<svg xmlns="http://www.w3.org/2000/svg" viewBox="0 0 157.75 48.99"><defs><style>.cls-1{fill:#fff;}.cls-2{fill:#f14464;}.cls-3{fill:#f9b7c3;}.cls-4{fill:#f1ca06;}</style></defs><title>Risorsa 1</title><g id="Livello_2" data-name="Livello 2"><g id="SvgjsSvg1013"><path class="cls-1" d="M81.61,12.17a2.84,2.84,0,0,1,1.38.62A3.54,3.54,0,0,1,84,14a3.47,3.47,0,0,1,.38,1.58,3.51,3.51,0,0,1-.54,1.92,3.74,3.74,0,0,1-1.58,1.34,5.6,5.6,0,0,1-2.42.48h-5.2V5.42h5a5.6,5.6,0,0,1,2.42.48,3.35,3.35,0,0,1,1.5,1.26,3.26,3.26,0,0,1,.5,1.8A3.07,3.07,0,0,1,83.37,11,3.6,3.6,0,0,1,81.61,12.17Zm-5.16-.74h3.06a2.93,2.93,0,0,0,2-.6,2.32,2.32,0,0,0,0-3.28l0,0a3,3,0,0,0-2-.6h-3Zm3.22,6.42a3.17,3.17,0,0,0,2.12-.64,2.16,2.16,0,0,0,.76-1.78,2.2,2.2,0,0,0-.8-1.82,3.19,3.19,0,0,0-2.14-.68H76.45v4.92Zm17.23-4.4a10.14,10.14,0,0,1-.06,1.1H88.09a3.54,3.54,0,0,0,1.1,2.54,3.6,3.6,0,0,0,2.46.9,3.43,3.43,0,0,0,2-.54A3,3,0,0,0,94.77,16h2A4.78,4.78,0,0,1,95,18.55a5.28,5.28,0,0,1-3.28,1,5.5,5.5,0,0,1-2.8-.7,4.81,4.81,0,0,1-1.92-2,6.8,6.8,0,0,1,0-6,4.7,4.7,0,0,1,1.9-2,5.64,5.64,0,0,1,2.84-.7,5.56,5.56,0,0,1,2.76.68,4.69,4.69,0,0,1,1.84,1.88,5.39,5.39,0,0,1,.55,2.71ZM95,13.07a3.48,3.48,0,0,0-.46-1.78,3,3,0,0,0-1.26-1.14,3.76,3.76,0,0,0-1.74-.4,3.43,3.43,0,0,0-2.36.88,3.59,3.59,0,0,0-1.1,2.44Zm5.22-6.46A1.23,1.23,0,0,1,99,5.39v0a1.23,1.23,0,0,1,1.24-1.24,1.16,1.16,0,0,1,.84.36,1.17,1.17,0,0,1,.36.88,1.17,1.17,0,0,1-.36.88,1.16,1.16,0,0,1-.84.36Zm.85,1.81v11H99.27v-11Zm4.08-1.78a1.17,1.17,0,0,1-.88-.36,1.31,1.31,0,0,1,0-1.76,1.17,1.17,0,0,1,.88-.36,1.11,1.11,0,0,1,.86.36,1.17,1.17,0,0,1,.36.88,1.17,1.17,0,0,1-.36.88,1.12,1.12,0,0,1-.83.33Zm.9,15.12a2.76,2.76,0,0,1-.74,2.14,3,3,0,0,1-2.16.68h-1.06V23h.76a1.49,1.49,0,0,0,1.06-.3,1.36,1.36,0,0,0,.32-1V8.42h1.84Zm13.11-8.34a10.14,10.14,0,0,1-.06,1.1h-8.76A3.41,3.41,0,0,0,113.92,18a3.29,3.29,0,0,0,2-.54A2.85,2.85,0,0,0,117,15.94h2a4.66,4.66,0,0,1-1.76,2.58,5.28,5.28,0,0,1-3.28,1,5.5,5.5,0,0,1-2.8-.7,5,5,0,0,1-1.92-2,6.8,6.8,0,0,1,0-6,4.88,4.88,0,0,1,1.9-2,5.86,5.86,0,0,1,2.84-.7,5.56,5.56,0,0,1,2.76.68,4.69,4.69,0,0,1,1.84,1.88A5.41,5.41,0,0,1,119.18,13.42ZM117.3,13a3.29,3.29,0,0,0-.46-1.78,3,3,0,0,0-1.26-1.14,3.76,3.76,0,0,0-1.74-.4,3.48,3.48,0,0,0-2.36.88,3.64,3.64,0,0,0-1.1,2.44Z"/><path class="cls-1" d="M79.59,29.31a8.15,8.15,0,0,1,3.88.88A6.18,6.18,0,0,1,86,32.67,7.72,7.72,0,0,1,86,40a6.05,6.05,0,0,1-2.58,2.48,8.07,8.07,0,0,1-3.86.88H74.33v-14Zm-.22,11.11a4.14,4.14,0,0,0,3-1.06,4,4,0,0,0,1.08-3,3.75,3.75,0,0,0-3.36-4.1,4.57,4.57,0,0,0-.74,0H77.73v8.16Zm20-2.8a8.39,8.39,0,0,1-.06,1H91.57a2.43,2.43,0,0,0,.66,1.6,2.12,2.12,0,0,0,1.46.54,1.79,1.79,0,0,0,1.78-1.08h3.62a4.73,4.73,0,0,1-1,2,4.85,4.85,0,0,1-1.82,1.38,5.62,5.62,0,0,1-2.46.5,5.94,5.94,0,0,1-2.92-.7,4.94,4.94,0,0,1-2-2,6.15,6.15,0,0,1-.72-3,6.52,6.52,0,0,1,.7-3,5.06,5.06,0,0,1,2-2,6.16,6.16,0,0,1,2.94-.7,6,6,0,0,1,2.88.68,4.85,4.85,0,0,1,2,1.94,5.84,5.84,0,0,1,.69,2.81Zm-3.5-.9a1.78,1.78,0,0,0-.6-1.4,2.41,2.41,0,0,0-3,0,2.35,2.35,0,0,0-.72,1.42Zm8.73-8.14v14.8h-3.41V28.58Zm4.2,2.48a2.12,2.12,0,0,1-1.48-.52,1.74,1.74,0,0,1-.56-1.32,1.7,1.7,0,0,1,.56-1.32,2.06,2.06,0,0,1,1.48-.54,2,2,0,0,1,1.44.54,1.71,1.71,0,0,1,.58,1.32,1.79,1.79,0,0,1-.58,1.32,2,2,0,0,1-1.43.49Zm1.7,1.16V43.38h-3.41V32.19Zm7.49,8,2.42-8h3.68l-4,11.16h-4.22l-4-11.16h3.66Zm18-2.56a8.39,8.39,0,0,1-.06,1h-7.74a2.43,2.43,0,0,0,.66,1.6,2.12,2.12,0,0,0,1.46.54,1.79,1.79,0,0,0,1.78-1.08h3.64a4.73,4.73,0,0,1-1,2,4.85,4.85,0,0,1-1.82,1.38,5.62,5.62,0,0,1-2.46.5,5.94,5.94,0,0,1-2.92-.7,4.94,4.94,0,0,1-2-2,6.15,6.15,0,0,1-.72-3,6.52,6.52,0,0,1,.7-3,5.06,5.06,0,0,1,2-2,6.16,6.16,0,0,1,2.94-.7,6,6,0,0,1,2.88.68,4.85,4.85,0,0,1,2,1.94,5.8,5.8,0,0,1,.69,2.77Zm-3.5-.9a1.78,1.78,0,0,0-.6-1.4,2.41,2.41,0,0,0-3,0,2.35,2.35,0,0,0-.72,1.42Zm8.73-2.64a4.49,4.49,0,0,1,1.5-1.44,3.8,3.8,0,0,1,2-.54v3.62h-.94a2.86,2.86,0,0,0-1.92.56,2.39,2.39,0,0,0-.64,1.92v5.18H137.8V32.19h3.42Zm16.53-1.86-7,16.46h-3.66L149.65,43l-4.56-10.85h3.82l2.58,7,2.56-7Z"/><path class="cls-2" d="M29.72.07a22.45,22.45,0,0,1,2.83.3,7.93,7.93,0,0,1,3,1.5c.16.1.24.33.35.49a7.73,7.73,0,0,1,1.47,3.46,11,11,0,0,1-.66,5.6A5.29,5.29,0,0,1,34.44,14c-2.37,1.46-4.85,2.75-7.3,4.08S22,20.69,19.56,22.32A24.8,24.8,0,0,0,14.29,27a12.11,12.11,0,0,0-2.63,6.46,10.54,10.54,0,0,0,.55,5.28,10.42,10.42,0,0,0,5.16,5.36,27.33,27.33,0,0,0,7.11,2.28,31.34,31.34,0,0,0,7.91.59,40.42,40.42,0,0,0,23.09-8.22,6.18,6.18,0,0,0,2.57-3.79,6.46,6.46,0,0,0-4.23-7.24A15.09,15.09,0,0,0,50.17,27a29,29,0,0,0-9.84,1.18l-4.09,1a6.75,6.75,0,0,1-6.43-1.59A4.73,4.73,0,0,1,28,23.08a6.55,6.55,0,0,1,1.52-3.18,10,10,0,0,1,4.55-3,29.4,29.4,0,0,1,6.13-1.45c2.47-.38,4.94-.74,7.42-1a40.42,40.42,0,0,1,8.08-.35,18.05,18.05,0,0,1,9.51,3.41,8.82,8.82,0,0,1,3.54,6.4A12.94,12.94,0,0,1,65.47,34a38.46,38.46,0,0,1-11.64,9.18,51.87,51.87,0,0,1-15,5A58.31,58.31,0,0,1,30.7,49a74.39,74.39,0,0,1-7.76-.19,33.37,33.37,0,0,1-11.07-2.35,20.89,20.89,0,0,1-9.08-7,15.47,15.47,0,0,1-2.64-7.2,1.84,1.84,0,0,0-.15-.8v-3.2c.13-.06.08-.18.09-.27a21.9,21.9,0,0,1,.4-2.78A32.79,32.79,0,0,1,9.26,9.07a31.92,31.92,0,0,1,9.23-6.55A23.58,23.58,0,0,1,27.65.12Z"/><path class="cls-3" d="M27.65.07V0H29.7V.07Z"/><path class="cls-4" d="M42.4,34.42a5.39,5.39,0,1,1,5.41,5.39,5.39,5.39,0,0,1-5.41-5.39Z"/></g></g></svg>