<?xml version="1.0" standalone="no"?>
<!DOCTYPE svg PUBLIC "-//W3C//DTD SVG 20010904//EN"
 "http://www.w3.org/TR/2001/REC-SVG-20010904/DTD/svg10.dtd">
<svg version="1.0" xmlns="http://www.w3.org/2000/svg"
 width="641.000000pt" height="1280.000000pt" viewBox="0 0 641.000000 1280.000000"
 preserveAspectRatio="xMidYMid meet">
<metadata>
Created by potrace 1.15, written by Peter Selinger 2001-2017
</metadata>
<g transform="translate(0.000000,1280.000000) scale(0.100000,-0.100000)"
fill="#03a9f4" stroke="none">
<path d="M3055 12293 c-25 -116 -78 -327 -151 -603 -336 -1266 -773 -2505
-1317 -3735 -112 -253 -181 -401 -437 -935 -128 -267 -266 -557 -307 -645
-520 -1114 -734 -1796 -825 -2620 -17 -157 -17 -673 1 -820 91 -777 364 -1387
860 -1920 515 -554 1160 -883 1941 -991 175 -25 625 -25 797 -1 601 84 1096
292 1573 661 134 104 423 390 531 526 359 455 582 987 665 1590 22 158 25 617
6 760 -58 422 -158 754 -347 1148 -224 465 -499 868 -1156 1693 -660 828 -920
1206 -1178 1714 -414 812 -660 1720 -721 2650 -13 206 -13 660 0 857 14 197
45 479 70 626 11 63 18 117 16 119 -2 2 -11 -31 -21 -74z"/>
</g>
</svg>
