<svg id="bfad9f77-0abd-4173-8308-819d02b95b56" xmlns="http://www.w3.org/2000/svg" viewBox="0 0 389.77 540.82"><defs><style>.cls-1{fill:#3f3d56;}.cls-2{fill:#fff;}.cls-3{fill:#ff6584;}.cls-4{isolation:isolate;opacity:0.2;}.cls-5{fill:#e6e6e6;}</style></defs><rect class="cls-1" x="19" y="275.16" width="12" height="7"/><rect class="cls-1" x="43" y="275.16" width="12" height="7"/><rect class="cls-1" x="67" y="275.16" width="12" height="7"/><rect class="cls-1" x="91" y="275.16" width="12" height="7"/><rect class="cls-1" x="115" y="275.16" width="12" height="7"/><rect class="cls-1" x="139" y="275.16" width="12" height="7"/><rect class="cls-1" x="163" y="275.16" width="12" height="7"/><rect class="cls-1" x="187" y="275.16" width="12" height="7"/><rect class="cls-1" x="211" y="275.16" width="12" height="7"/><rect class="cls-1" x="235" y="275.16" width="12" height="7"/><rect class="cls-1" x="259" y="275.16" width="12" height="7"/><path class="cls-1" d="M483.72,359.52a144,144,0,0,1-288,0Z" transform="translate(-185.22 -79.86)"/><path class="cls-1" d="M476.76,360.44l-91.6-273a143.9,143.9,0,0,1,182.26,90.54l.06.18c1,2.89,1.85,5.8,2.63,8.71A144,144,0,0,1,476.76,360.44Z" transform="translate(-185.22 -79.86)"/><circle class="cls-1" cx="295" cy="284.16" r="18"/><path class="cls-2" d="M297.23,397a5,5,0,0,0,0,10h86a5,5,0,0,0,0-10Z" transform="translate(-185.22 -79.86)"/><polygon class="cls-1" points="274 540.16 256.09 540.82 191.58 402.09 207.91 394.5 274 540.16"/><polygon class="cls-1" points="35 540.16 52.91 540.82 117.42 402.09 101.09 394.5 35 540.16"/><rect class="cls-1" x="81" y="460.16" width="148" height="10"/><path class="cls-2" d="M388.83,82.31a4.51,4.51,0,0,0-4.31,5.81l3.8,12.43a4.5,4.5,0,0,0,8.61-2.62l-3.8-12.44A4.49,4.49,0,0,0,388.83,82.31Z" transform="translate(-185.22 -79.86)"/><path class="cls-2" d="M189.72,362a4.5,4.5,0,0,0,0,9h13a4.5,4.5,0,1,0,0-9Z" transform="translate(-185.22 -79.86)"/><path class="cls-3" d="M297.22,329h-54c-.34,0-.67,0-1,0a14,14,0,0,0,0,27.92c.34,0,.68,0,1,0h54a14,14,0,0,0,0-28Z" transform="translate(-185.22 -79.86)"/><path class="cls-4" d="M237.78,355.91c9.2-1.18,16.44-12.79,16.44-26.89h-2c0,13.79-7.18,25-16,25v1.12Z" transform="translate(-185.22 -79.86)"/><path class="cls-4" d="M257.22,356v-2c8.83,0,16-11.21,16-25h2C275.22,343.91,267.15,356,257.22,356Z" transform="translate(-185.22 -79.86)"/><path class="cls-4" d="M278.22,356v-2c8.83,0,16-11.21,16-25h2C296.22,343.91,288.15,356,278.22,356Z" transform="translate(-185.22 -79.86)"/><path class="cls-3" d="M395.22,329h-54c-.34,0-.67,0-1,0a14,14,0,0,0,0,27.92c.34,0,.68,0,1,0h54a14,14,0,0,0,0-28Z" transform="translate(-185.22 -79.86)"/><path class="cls-4" d="M335.78,355.91c9.2-1.18,16.44-12.79,16.44-26.89h-2c0,13.79-7.18,25-16,25v1.12Z" transform="translate(-185.22 -79.86)"/><path class="cls-4" d="M355.22,356v-2c8.83,0,16-11.21,16-25h2C373.22,343.91,365.15,356,355.22,356Z" transform="translate(-185.22 -79.86)"/><path class="cls-4" d="M376.22,356v-2c8.83,0,16-11.21,16-25h2C394.22,343.91,386.15,356,376.22,356Z" transform="translate(-185.22 -79.86)"/><path class="cls-5" d="M293.27,194.58c-7.07-3.82-15.82.35-19.35,7.11-4.29,8.24-.73,18.13,4.27,25.17,5.2,7.31,12.25,13.34,15.72,21.79a36.44,36.44,0,0,1-14.21,44.87c-3.26,2.06-.25,7.25,3,5.18a42.59,42.59,0,0,0,15.19-55.58,58.79,58.79,0,0,0-7.81-11c-5.2-6.16-11.75-13-12.08-21.52a13.69,13.69,0,0,1,.23-3.32A12.5,12.5,0,0,1,279,205a10.88,10.88,0,0,1,3.16-3.93,9.59,9.59,0,0,1,4.29-1.94,6.37,6.37,0,0,1,3.84.62c3.4,1.84,6.44-3.34,3-5.18Z" transform="translate(-185.22 -79.86)"/><path class="cls-5" d="M383.56,230.87a17.51,17.51,0,0,0-17.51,4.07,10.65,10.65,0,0,0-2.85,9.29c.58,3.63,2.87,6.86,5.36,9.46,4.88,5.1,11.7,8.39,15.78,14.24a17.83,17.83,0,0,1,3.3,8.46,16,16,0,0,1-1.46,8c-3.05,6.19-9.1,10.41-15.48,13.12-1.49.63-1.82,2.83-1.08,4.11a3.09,3.09,0,0,0,4.11,1.07c11.74-5,22.61-16.17,19.37-29.91-1.71-7.23-6.93-12.33-12.55-16.76a70.46,70.46,0,0,1-7.9-6.74c-1.94-2.06-4-4.88-3.6-7.68a4.28,4.28,0,0,1,1.34-2.53,11.6,11.6,0,0,1,3-2,11.14,11.14,0,0,1,8.59-.45,3,3,0,0,0,3.69-2.1,3.06,3.06,0,0,0-2.09-3.69Z" transform="translate(-185.22 -79.86)"/><path class="cls-5" d="M337.88,145.52a10.35,10.35,0,0,0-6.4-2.46,11.21,11.21,0,0,0-6.22,2A21.43,21.43,0,0,0,317,157.44c-3,11.61.93,24.13,6.42,34.36,2.78,5.17,6,10.08,8.81,15.24a67,67,0,0,1,6.16,15.63,75.66,75.66,0,0,1,.75,34.13c-2.41,11.23-7.46,22.35-16.05,30.1a3,3,0,0,0,4.24,4.24c7.63-6.87,12.73-16.31,15.81-26a79.67,79.67,0,0,0,2.91-33.89,78.42,78.42,0,0,0-3.84-16.63A92.18,92.18,0,0,0,334.57,199c-5.63-9.53-11.64-19.17-12.45-30.53-.41-5.58.29-11.4,3.75-15.89-.19.25.15-.18.15-.18.21-.25.43-.49.65-.73a14,14,0,0,1,1.38-1.29c-.1.09-.37.26.11-.07.24-.17.49-.33.74-.48l.63-.33a2.64,2.64,0,0,1,.38-.18c-.3.12-.28.12,0,0s1.39-.33.75-.24c.21,0,.43,0,.65-.05s.9,0,.5,0,.37.08.37.08a6.15,6.15,0,0,1,.76.25c-.62-.25,1,.67.65.38a3.1,3.1,0,0,0,4.24,0c1-1,1.29-3.25,0-4.25Z" transform="translate(-185.22 -79.86)"/></svg>