<svg id="e8a6e089-f0a2-4336-8fc5-733c88302415" xmlns="http://www.w3.org/2000/svg" viewBox="0 0 625.2 484.56"><defs><style>.cls-1{fill:#fff;}.cls-2{fill:#3f3d56;}.cls-3{isolation:isolate;opacity:0.2;}.cls-4{fill:#ff6584;}.cls-5{fill:#e6e6e6;}.cls-6{fill:#f9a825;}.cls-7{fill:#00bf71;}</style></defs><path class="cls-1" d="M119.41,253H91a3.76,3.76,0,0,0-3.76,3.77v12.48A3.76,3.76,0,0,0,91,273.05H95.7v18.69h19V273.05h4.71a3.76,3.76,0,0,0,3.77-3.76V256.81A3.77,3.77,0,0,0,119.41,253Z" transform="translate(-61.06)"/><path class="cls-2" d="M147.88,367.21a146,146,0,0,1-25.42-86.63,3.07,3.07,0,0,0-2.41-3.07v-5.39H90v5.31h-.41a3.08,3.08,0,0,0-3.08,3.09,1.7,1.7,0,0,0,0,.22q3.54,49.44-24,88.68a8.48,8.48,0,0,0-1.53,5.14l3.28,101.52a8.79,8.79,0,0,0,8.71,8.48H141a8.79,8.79,0,0,0,8.72-8.63l1.26-98.57A17.79,17.79,0,0,0,147.88,367.21Z" transform="translate(-61.06)"/><path class="cls-3" d="M113.49,257.11a8.13,8.13,0,0,1-16.26,0" transform="translate(-61.06)"/><path class="cls-1" d="M137.13,400.93h-8.22a21.58,21.58,0,0,0-42.65,0H78A6.06,6.06,0,0,0,72,407a7.28,7.28,0,0,0,.07.93L81,466h51.28l10.84-57.85a6.07,6.07,0,0,0-4.84-7.08A6,6,0,0,0,137.13,400.93Z" transform="translate(-61.06)"/><circle class="cls-1" cx="383.44" cy="241.75" r="241.75"/><path class="cls-3" d="M444.51,418.21a176.46,176.46,0,1,1,124.77-51.68A176.46,176.46,0,0,1,444.51,418.21Zm0-342c-91.3,0-165.58,74.28-165.58,165.57s74.28,165.58,165.58,165.58,165.57-74.28,165.57-165.58S535.81,76.18,444.51,76.18Z" transform="translate(-61.06)"/><circle class="cls-2" cx="383.44" cy="241.75" r="171.02"/><path class="cls-4" d="M317.33,173.37A21.7,21.7,0,1,1,356,153.63l0,0,48.31,94.88a21.7,21.7,0,1,1-38.65,19.76l0-.06Z" transform="translate(-61.06)"/><path class="cls-3" d="M322.72,184l-2.23-4.37c11.13-8.65,24.19-15,38.68-19.7l2.23,4.38C345.72,167.52,332.39,173.56,322.72,184Z" transform="translate(-61.06)"/><path class="cls-3" d="M333.12,204.39,330.89,200c11.13-8.65,24.2-15,38.68-19.7l2.23,4.38C356.13,188,342.79,194,333.12,204.39Z" transform="translate(-61.06)"/><path class="cls-3" d="M343.53,224.83l-2.23-4.38c11.13-8.65,24.2-15,38.68-19.7l2.23,4.38C366.54,208.39,353.2,214.43,343.53,224.83Z" transform="translate(-61.06)"/><path class="cls-3" d="M353.94,245.26l-2.23-4.38c11.13-8.65,24.19-15,38.68-19.7l2.23,4.38C376.94,228.83,363.61,234.87,353.94,245.26Z" transform="translate(-61.06)"/><path class="cls-3" d="M364.34,265.7l-2.23-4.38c11.13-8.65,24.2-15,38.68-19.7L403,246C387.35,249.26,374,255.3,364.34,265.7Z" transform="translate(-61.06)"/><path class="cls-4" d="M281.08,208.89a21.71,21.71,0,1,1,38.67-19.73v0l48.32,94.88a21.7,21.7,0,0,1-38.68,19.7Z" transform="translate(-61.06)"/><path class="cls-3" d="M286.47,219.47l-2.23-4.38c11.13-8.64,24.2-15,38.68-19.69l2.23,4.38C309.47,203,296.14,209.08,286.47,219.47Z" transform="translate(-61.06)"/><path class="cls-3" d="M296.87,239.91l-2.23-4.38c11.13-8.65,24.2-15,38.69-19.7l2.23,4.38C319.88,223.47,306.54,229.52,296.87,239.91Z" transform="translate(-61.06)"/><path class="cls-3" d="M307.28,260.34,305.05,256c11.13-8.65,24.2-15,38.68-19.7l2.23,4.38C330.29,243.91,317,250,307.28,260.34Z" transform="translate(-61.06)"/><path class="cls-3" d="M317.69,280.78l-2.23-4.38c11.13-8.65,24.2-15,38.68-19.7l2.23,4.38C340.69,264.35,327.36,270.39,317.69,280.78Z" transform="translate(-61.06)"/><path class="cls-3" d="M328.09,301.21l-2.23-4.37c11.13-8.65,24.2-15,38.69-19.7l2.23,4.38C351.1,284.78,337.76,290.82,328.09,301.21Z" transform="translate(-61.06)"/><path class="cls-5" d="M558.78,247.2h.15A25.91,25.91,0,0,0,583.17,231a84.49,84.49,0,0,0,5.92-31.69c-.27-45.92-37.62-83.58-83.53-84.21a84.74,84.74,0,0,0-35.27,162.32,25.68,25.68,0,0,0,28.5-5.29A84.46,84.46,0,0,1,558.78,247.2Z" transform="translate(-61.06)"/><circle class="cls-6" cx="454.18" cy="193.56" r="27.98"/><circle class="cls-2" cx="393.36" cy="187.12" r="3.3"/><circle class="cls-2" cx="284.53" cy="190.22" r="3.3"/><circle class="cls-2" cx="410.93" cy="152.95" r="3.3"/><circle class="cls-2" cx="410.84" cy="247.97" r="3.3"/><circle class="cls-2" cx="476.13" cy="146.14" r="3.3"/><circle class="cls-2" cx="263.14" cy="236.31" r="3.3"/><circle class="cls-2" cx="287.24" cy="283.73" r="3.3"/><circle class="cls-4" cx="438.63" cy="289.95" r="12.44"/><path class="cls-3" d="M509,290.73a9.33,9.33,0,0,1-18.66,0" transform="translate(-61.06)"/><path class="cls-3" d="M490.37,289.17a9.33,9.33,0,0,1,18.66,0" transform="translate(-61.06)"/><ellipse class="cls-4" cx="433.97" cy="285.67" rx="0.78" ry="1.17"/><ellipse class="cls-4" cx="438.63" cy="284.12" rx="0.78" ry="1.17"/><ellipse class="cls-4" cx="438.63" cy="294.22" rx="0.78" ry="1.17"/><ellipse class="cls-4" cx="443.3" cy="288.01" rx="0.78" ry="1.17"/><ellipse class="cls-4" cx="442.52" cy="296.56" rx="0.78" ry="1.17"/><ellipse class="cls-4" cx="433.19" cy="292.67" rx="0.78" ry="1.17"/><circle class="cls-4" cx="463.51" cy="256.52" r="12.44"/><path class="cls-3" d="M533.9,257.3a9.33,9.33,0,0,1-18.65,0" transform="translate(-61.06)"/><path class="cls-3" d="M515.25,255.75a9.33,9.33,0,0,1,18.65,0" transform="translate(-61.06)"/><ellipse class="cls-4" cx="458.85" cy="252.25" rx="0.78" ry="1.17"/><ellipse class="cls-4" cx="463.51" cy="250.69" rx="0.78" ry="1.17"/><ellipse class="cls-4" cx="463.51" cy="260.8" rx="0.78" ry="1.17"/><ellipse class="cls-4" cx="468.17" cy="254.58" rx="0.78" ry="1.17"/><ellipse class="cls-4" cx="467.4" cy="263.13" rx="0.78" ry="1.17"/><ellipse class="cls-4" cx="458.07" cy="259.24" rx="0.78" ry="1.17"/><circle class="cls-1" cx="488.38" cy="273.63" r="12.44"/><path class="cls-3" d="M558.78,274.4a9.33,9.33,0,0,1-18.66,0" transform="translate(-61.06)"/><path class="cls-3" d="M540.12,272.85a9.33,9.33,0,0,1,18.66,0" transform="translate(-61.06)"/><ellipse class="cls-1" cx="483.72" cy="269.35" rx="0.78" ry="1.17"/><ellipse class="cls-1" cx="488.38" cy="267.8" rx="0.78" ry="1.17"/><ellipse class="cls-1" cx="488.38" cy="277.9" rx="0.78" ry="1.17"/><ellipse class="cls-1" cx="493.05" cy="271.68" rx="0.78" ry="1.17"/><ellipse class="cls-1" cx="492.27" cy="280.23" rx="0.78" ry="1.17"/><ellipse class="cls-1" cx="482.94" cy="276.35" rx="0.78" ry="1.17"/><circle class="cls-1" cx="426.2" cy="275.18" r="12.44"/><path class="cls-3" d="M496.59,276a9.33,9.33,0,0,1-18.66,0" transform="translate(-61.06)"/><path class="cls-3" d="M477.93,274.4a9.33,9.33,0,0,1,18.66,0" transform="translate(-61.06)"/><ellipse class="cls-1" cx="421.53" cy="270.9" rx="0.78" ry="1.17"/><ellipse class="cls-1" cx="426.2" cy="269.35" rx="0.78" ry="1.17"/><ellipse class="cls-1" cx="426.2" cy="279.46" rx="0.78" ry="1.17"/><ellipse class="cls-1" cx="430.86" cy="273.24" rx="0.78" ry="1.17"/><ellipse class="cls-1" cx="430.08" cy="281.79" rx="0.78" ry="1.17"/><ellipse class="cls-1" cx="420.76" cy="277.9" rx="0.78" ry="1.17"/><circle class="cls-1" cx="454.18" cy="280.62" r="12.44"/><path class="cls-3" d="M524.57,281.4a9.33,9.33,0,1,1-18.65,0v0" transform="translate(-61.06)"/><path class="cls-3" d="M505.92,279.84a9.33,9.33,0,0,1,18.65,0v0" transform="translate(-61.06)"/><ellipse class="cls-1" cx="449.52" cy="276.35" rx="0.78" ry="1.17"/><ellipse class="cls-1" cx="454.18" cy="274.79" rx="0.78" ry="1.17"/><ellipse class="cls-1" cx="454.18" cy="284.9" rx="0.78" ry="1.17"/><ellipse class="cls-1" cx="458.85" cy="278.68" rx="0.78" ry="1.17"/><ellipse class="cls-1" cx="458.07" cy="287.23" rx="0.78" ry="1.17"/><ellipse class="cls-1" cx="448.74" cy="283.34" rx="0.78" ry="1.17"/><circle class="cls-4" cx="473.62" cy="293.84" r="12.44"/><path class="cls-3" d="M544,294.61a9.33,9.33,0,0,1-18.66,0" transform="translate(-61.06)"/><path class="cls-3" d="M525.35,293.06a9.33,9.33,0,0,1,18.66,0h0" transform="translate(-61.06)"/><ellipse class="cls-4" cx="468.95" cy="289.56" rx="0.78" ry="1.17"/><ellipse class="cls-4" cx="473.62" cy="288.01" rx="0.78" ry="1.17"/><ellipse class="cls-4" cx="473.62" cy="298.11" rx="0.78" ry="1.17"/><ellipse class="cls-4" cx="478.28" cy="291.89" rx="0.78" ry="1.17"/><ellipse class="cls-4" cx="477.5" cy="300.44" rx="0.78" ry="1.17"/><ellipse class="cls-4" cx="468.17" cy="296.56" rx="0.78" ry="1.17"/><circle class="cls-2" cx="313.67" cy="246.42" r="3.3"/><polygon class="cls-6" points="403.28 366.08 324.11 344.12 327.14 332.86 406.31 354.81 403.28 366.08"/><path class="cls-6" d="M452.74,362.31a217.88,217.88,0,0,1-82.08,0V350.64a251.21,251.21,0,0,0,82.08,0Z" transform="translate(-61.06)"/><path class="cls-6" d="M461.18,327.28a218.3,218.3,0,0,1-82.08,0V315.6a250.66,250.66,0,0,0,82.08,0Z" transform="translate(-61.06)"/><path class="cls-6" d="M489.56,341.29a218.3,218.3,0,0,1-82.08,0V329.62a251.21,251.21,0,0,0,82.08,0Z" transform="translate(-61.06)"/><path class="cls-6" d="M496.46,354.53a218.3,218.3,0,0,1-82.08,0V342.85a251.21,251.21,0,0,0,82.08,0Z" transform="translate(-61.06)"/><polygon class="cls-6" points="459.47 371.82 378.49 385.43 376.61 373.9 457.59 360.3 459.47 371.82"/><path class="cls-6" d="M508.43,373.32a220,220,0,0,1-74.58,34.79l-4.8-10.62a252.71,252.71,0,0,0,74.58-34.78Z" transform="translate(-61.06)"/><path class="cls-6" d="M501.69,337.91a220,220,0,0,1-74.58,34.79l-4.81-10.62a252.59,252.59,0,0,0,74.58-34.78Z" transform="translate(-61.06)"/><path class="cls-6" d="M533.24,338.62a220,220,0,0,1-74.58,34.78l-4.8-10.61A253.1,253.1,0,0,0,528.44,328Z" transform="translate(-61.06)"/><path class="cls-6" d="M545,347.72a220,220,0,0,1-74.58,34.78l-4.8-10.61a253.33,253.33,0,0,0,74.58-34.78Z" transform="translate(-61.06)"/><rect class="cls-7" x="381.89" y="324.93" width="3.89" height="3.89"/><rect class="cls-7" x="393.55" y="392.56" width="3.89" height="3.89"/><rect class="cls-7" x="331.36" y="324.93" width="3.89" height="3.89"/><rect class="cls-7" x="421.53" y="373.13" width="3.89" height="3.89"/><rect class="cls-7" x="423.87" y="350.58" width="3.89" height="3.89"/><rect class="cls-7" x="420.02" y="336.98" width="3.11" height="5.44" transform="translate(-157.29 497.84) rotate(-55.84)"/><rect class="cls-7" x="465.89" y="345.53" width="3.11" height="5.44" transform="translate(-144.25 539.54) rotate(-55.84)"/><rect class="cls-7" x="409.92" y="360.3" width="3.11" height="5.44" transform="translate(-181.02 499.7) rotate(-55.84)"/><rect class="cls-7" x="440.62" y="358.36" width="5.44" height="3.11" transform="translate(-164.47 524.71) rotate(-55.84)"/><rect class="cls-7" x="461.61" y="363.8" width="5.44" height="3.11" transform="translate(-159.76 544.47) rotate(-55.84)"/><rect class="cls-7" x="517.58" y="345.14" width="5.44" height="3.11" transform="matrix(0.56, -0.83, 0.83, 0.56, -119.78, 582.6)"/></svg>