<svg id="e6e30d14-284b-46c1-a714-214f05c6d996" xmlns="http://www.w3.org/2000/svg" viewBox="0 0 518.78 459.36"><defs><style>.cls-1{fill:#3f3d56;}.cls-2,.cls-5,.cls-7{isolation:isolate;}.cls-2,.cls-7{opacity:0.1;}.cls-3{fill:#61ab43;}.cls-4{fill:#ea565c;}.cls-5{fill:#fff;opacity:0.2;}.cls-6{fill:#714b4f;}.cls-7{fill:none;stroke:#000;stroke-miterlimit:10;stroke-width:2px;}.cls-8{fill:#f6c964;}.cls-9{fill:#f2f2f2;}</style></defs><path class="cls-1" d="M348.72,463.85s-37.45,74.09-5.58,74.09,433.41,1.6,444.57-19.12c7.81-14.51,3.5-66.17.22-95.81a22.65,22.65,0,0,0-23.77-20.13c-86.85,4.79-411.28,22.56-409.86,20.34,2.78-4.38.79-3.19.79-3.19S342.34,460.66,348.72,463.85Z" transform="translate(-311.08 -78.62)"/><path class="cls-2" d="M788.73,423A22.65,22.65,0,0,0,765,402.88c-86.84,4.79-411.27,22.55-409.86,20.34,2.79-4.38.8-3.19.8-3.19s-2.85,9.07-5.18,19c.33,0,.58.28-.5,2.17-.09.43-.19.85-.28,1.28,13,1.28,324.6-15.78,409.45-20.46a22.65,22.65,0,0,1,23.77,20.13c2.44,22,5.45,56.24,3.62,78.31a4.8,4.8,0,0,0,1.73-1.62C796.32,504.31,792,452.65,788.73,423Z" transform="translate(-311.08 -78.62)"/><path class="cls-3" d="M393.35,352.81c-4.15-1.27-9.4-2.92-8.93-5.59.25-1.43,2.15-2.54,3.53-3.73,2.66-2.3,3.38-5.54.52-7.76s-9.73-2.52-12.26-.17c-1.29,1.21-1.21,2.72-1.88,4.09-2.09,4.26-10.54,6.13-17.72,7.79s-15.21,4.73-14.54,9.14c.74,4.81,11.81,9.08,7.36,13.18-1.62,1.48-5,2.31-5.74,4-.51,1.19.51,2.41,1.51,3.5l7.05,7.77c2.8,3.09,5.69,6.46,4.75,9.9-1.86,6.82-17,9.43-29,8.66-4.39-.28-9.56-.66-12.58,1.18-2.33,1.43-2.32,3.64-1.55,5.54,2,4.88,8.36,9.11,16.51,11-9.13,1.81-12.72,9.4-6.41,13.59a18.82,18.82,0,0,1-11.19.32c-3.12,2.87-1.29,6.81,2.67,9.33s9.56,3.92,15,5.26l-5.08,4.75c3.68,2.87,11.62,1.86,17,0s11.16-4.25,17.16-3.3c5.62.89,9.88,4.64,15.6,4,4.44-.5,6.55-3.35,7.94-5.82L388.91,439c8.36,1.31,17.16-4.43,13.8-9,9.36,1,18.58-5.07,15.51-10.23,5,3.85,8.49,8.31,10.21,13,.77,2.09,1.24,4.31,3.33,6.08a11,11,0,0,0,9.66,1.75c-1.71,3.31-3.09,7.17.42,10s13.63,2,13.19-1.43c5.35,2.3,11.34,4.46,18,4.63s14-2.37,14.61-6.18a93.26,93.26,0,0,0,29.21,4.7c.84-2.55,6.74-3.37,11.15-2.75s8.49,2.12,13,2.12,9.43-2.73,7.1-5a93.79,93.79,0,0,0,29.09,1.47c9.16-1,17.85-3.28,27.12-3.78A64.79,64.79,0,0,1,632,448.77c3,1.27,6.82,2.88,10.16,1.88,1.9-.57,2.82-1.79,4.11-2.77,5.54-4.2,16.87-3.4,25.61-1.75s18.92,3.65,26.58.73c2.89-1.11,5-2.81,8.09-3.74,11-3.31,24.2,5.18,35.89,2.74,3.81-.8,6.9-2.7,10.93-2.94,7.16-.41,11.88,4.44,18.84,5.48,7.21,1.08,15-3.31,13.28-7.45A64.89,64.89,0,0,0,806,438.1l-3.28-5.9c8.17-.13,14.17-6,10.39-10.12,8.19-1.56,14.66-5.75,16.34-10.59s-1.49-10.13-8-13.36c-3.85-1.91-8.9-3.25-11.1-5.88-1.58-1.89-1.35-4.09-2-6.16-1.35-4.52-7.19-8.51-14.75-10.07-3.27-.68-6.86-.93-9.83-2s-5.12-3.31-3.4-5c.9-.92,2.65-1.46,3.78-2.3,4.58-3.38-3.27-7.66-10-9.56l16-.52L793.6,341c-6.33,5.15-22.76,4.07-26.88-1.77,5.14,1.69,12-.47,14.55-3.54s1.9-6.64,1.23-10a4.87,4.87,0,0,0-2.67-4c-1.57-.74-4.06-1.05-4.58-2.18s1.51-2.17,1.81-3.35c.57-2.26-4.62-3.25-8.13-4.35-8.27-2.58-12.28-9.82-21.7-9.59s-12,7.37-12,12.72-3.17,12.49-12.52,12.4c-3.74,0-7-1.38-10-2.67L686,313.16a63.54,63.54,0,0,0-11-3.94c-5.41-1.26-11.37-1.41-17.2-1.55l-37.47-.85a17.51,17.51,0,0,0-5.68.49c-2,.66-2.93,1.95-4.11,3.07-5.22,4.89-17.48,6.81-26.34,4.12-2.34-.72-4.45-1.71-6.93-2.24-7.84-1.7-16.06,1.44-24.2,2.57-13.34,1.86-29.92-1.34-39.54,4.27-3.2,1.86-4.91,4.42-7.88,6.41s-8.33,3.34-12.08,1.84c.47,3.65.9,7.46-1.57,10.84s-8.82,6.14-15.06,5.29c-3.3-.87-3-3.65-1.48-5.54s4-3.8,3.19-5.84-4.32-3.19-7-4.6-4.41-4.07-1.6-5.37c-1.89-2.44-8.71-2.14-11.7-.1s-3.3,4.92-3.63,7.58-1,5.57-4.51,7.35c-5.91,3-17.27,1.46-21.2,5.41-1.24,1.26-1.32,2.77-2,4.16-3.18,6.18-16.93,7.78-28.16,8.28a13.43,13.43,0,0,0-.15,3.9C402.54,357.05,396.13,353.66,393.35,352.81Z" transform="translate(-311.08 -78.62)"/><path class="cls-2" d="M782.5,345.75c.67,3.37,1.29,6.94-1.23,10A7.83,7.83,0,0,1,780,357l10.14-.33q1.73-7.8,3.44-15.59c-2.62,2.14-7,3.2-11.48,3.3A9.91,9.91,0,0,1,782.5,345.75Z" transform="translate(-311.08 -78.62)"/><path class="cls-2" d="M785.46,364.11c-.4-2.11-3.88-4.24-7.77-5.77a15.86,15.86,0,0,1-11,1C769.56,363.33,778.25,365.09,785.46,364.11Z" transform="translate(-311.08 -78.62)"/><path class="cls-2" d="M790.43,375.47l-.27,1.19-16,.52c6.71,1.9,14.56,6.18,10,9.56-1.13.84-2.88,1.38-3.78,2.3-1.72,1.73.43,4,3.4,5s6.56,1.3,9.84,2c7.55,1.56,13.39,5.55,14.74,10.07.62,2.07.39,4.27,2,6.16,2.2,2.63,7.25,4,11.1,5.88q.55.27,1.08.57c3.48-2,6-4.51,6.93-7.25,1.69-4.84-1.49-10.13-8-13.36-3.85-1.91-8.9-3.25-11.1-5.88-1.58-1.89-1.35-4.09-2-6.16-1.35-4.52-7.19-8.51-14.74-10.07C792.55,375.81,791.49,375.64,790.43,375.47Z" transform="translate(-311.08 -78.62)"/><path class="cls-2" d="M321.38,447.25c1.24-2.66,4.43-5,9-5.92a30.26,30.26,0,0,1-12.06-5.44,18.2,18.2,0,0,1-5.54-.69c-3.12,2.87-1.29,6.81,2.67,9.33A29.45,29.45,0,0,0,321.38,447.25Z" transform="translate(-311.08 -78.62)"/><path class="cls-2" d="M349.62,369.56a53,53,0,0,1,7-2.08c7.18-1.66,15.63-3.53,17.72-7.79.67-1.36.59-2.88,1.88-4.09,2.53-2.35,9.41-2.05,12.27.17s2.14,5.46-.53,7.76c-1.37,1.19-3.28,2.3-3.53,3.73-.47,2.67,4.78,4.32,8.93,5.59a17.77,17.77,0,0,1,5.41,2.85l.09-.85c11.23-.5,25-2.1,28.16-8.28.71-1.39.79-2.9,2-4.16,3.93-4,15.29-2.37,21.2-5.41,3.48-1.78,4.19-4.69,4.52-7.35s.62-5.53,3.62-7.58,9.81-2.34,11.7.1c-2.81,1.3-1.05,4,1.6,5.37s6.19,2.59,7,4.6-1.62,4-3.19,5.84-1.82,4.67,1.48,5.54c6.24.85,12.58-1.9,15.06-5.28s2-7.2,1.57-10.85c3.75,1.5,9.11.15,12.08-1.84s4.68-4.55,7.88-6.41c9.62-5.61,26.2-2.41,39.54-4.27,8.14-1.13,16.36-4.27,24.2-2.57,2.48.53,4.59,1.52,6.93,2.24,8.86,2.69,21.12.78,26.34-4.12,1.18-1.12,2.14-2.41,4.11-3.07a17.51,17.51,0,0,1,5.68-.49l37.47.85c5.83.14,11.79.29,17.2,1.55a63.24,63.24,0,0,1,11,3.94l26.78,11.55c3,1.29,6.24,2.63,10,2.67,9.35.1,12.51-7.05,12.52-12.4s2.62-12.48,12-12.72,13.43,7,21.7,9.59c3.51,1.1,8.7,2.09,8.13,4.35-.27,1.05-1.9,2-1.89,3a12.36,12.36,0,0,0,6.1-3.5c2.52-3.07,1.9-6.64,1.23-10a4.87,4.87,0,0,0-2.67-4c-1.57-.74-4.06-1.05-4.58-2.18s1.51-2.17,1.81-3.35c.57-2.26-4.62-3.25-8.13-4.35-8.27-2.58-12.28-9.82-21.7-9.59s-12,7.37-12,12.72-3.17,12.5-12.52,12.4c-3.73,0-7-1.38-10-2.67L686,313.16a63.24,63.24,0,0,0-11-3.94c-5.41-1.26-11.37-1.41-17.2-1.55l-37.47-.85a17.51,17.51,0,0,0-5.68.49c-2,.66-2.93,1.95-4.11,3.07-5.22,4.89-17.48,6.81-26.34,4.12-2.34-.72-4.45-1.71-6.93-2.24-7.84-1.7-16.06,1.44-24.2,2.57-13.34,1.86-29.92-1.34-39.54,4.27-3.2,1.86-4.91,4.42-7.88,6.41s-8.33,3.34-12.08,1.84c.47,3.65.9,7.46-1.57,10.84s-8.82,6.14-15.06,5.29c-3.3-.87-3-3.65-1.48-5.54s4-3.8,3.19-5.84-4.32-3.19-7-4.6-4.41-4.07-1.6-5.37c-1.89-2.44-8.71-2.14-11.7-.1s-3.3,4.92-3.62,7.58-1,5.57-4.52,7.35c-5.91,3-17.27,1.46-21.2,5.41-1.24,1.26-1.32,2.77-2,4.16-3.18,6.18-16.92,7.78-28.16,8.28l-.09.85a17.77,17.77,0,0,0-5.41-2.85c-4.15-1.27-9.4-2.92-8.93-5.59.25-1.43,2.16-2.54,3.53-3.73,2.67-2.3,3.38-5.54.53-7.76s-9.74-2.52-12.26-.17c-1.3,1.21-1.22,2.72-1.89,4.09-2.09,4.26-10.54,6.13-17.72,7.79s-15.21,4.73-14.54,9.14C342.8,361.31,353.52,365.52,349.62,369.56Z" transform="translate(-311.08 -78.62)"/><path class="cls-2" d="M330.38,421.29a15.86,15.86,0,0,0-5.55,2.18c1.07,0,2.14.12,3.17.18,12,.77,27.14-1.84,29-8.66.94-3.44-1.95-6.81-4.75-9.9l-3.39-3.72c-5.87,2-13.89,2.69-20.86,2.24-4.39-.28-9.56-.66-12.58,1.18-2.33,1.43-2.32,3.64-1.55,5.54C315.86,415.21,322.23,419.44,330.38,421.29Z" transform="translate(-311.08 -78.62)"/><ellipse class="cls-4" cx="263.71" cy="232.62" rx="119.51" ry="78.87"/><path class="cls-5" d="M534.16,305.66s-54.18,5.57-38.25-17.53,35.86-31.07,45.42-24.7,13.54,23.9,11.95,23.9-24.7-13.54-32.67-3.19S534.16,305.66,534.16,305.66Z" transform="translate(-311.08 -78.62)"/><path class="cls-5" d="M581.1,307.91s44.74,31.06,17.6,38.21-47.45.22-50.55-10.84,5.29-27,6.5-25.92,9.92,26.37,22.71,23.7S581.1,307.91,581.1,307.91Z" transform="translate(-311.08 -78.62)"/><path class="cls-5" d="M591.54,288.45s3.53-54.35,23.66-34.79,24.66,40.53,16.78,48.9-25.82,9.37-25.56,7.8,17.47-22.1,8.59-31.68S591.54,288.45,591.54,288.45Z" transform="translate(-311.08 -78.62)"/><ellipse class="cls-4" cx="119.51" cy="226.24" rx="119.51" ry="78.87"/><path class="cls-5" d="M390,299.28s-54.18,5.58-38.24-17.53,35.85-31.07,45.41-24.69S410.66,281,409.07,281s-24.7-13.55-32.66-3.19S390,299.28,390,299.28Z" transform="translate(-311.08 -78.62)"/><path class="cls-5" d="M436.89,301.54s44.74,31.06,17.6,38.21S407.05,340,404,328.91s5.29-27,6.5-25.92,9.91,26.36,22.71,23.69S436.89,301.54,436.89,301.54Z" transform="translate(-311.08 -78.62)"/><path class="cls-5" d="M447.34,282.07s3.53-54.34,23.65-34.78,24.67,40.53,16.79,48.89S462,305.55,462.22,304s17.47-22.09,8.59-31.67S447.34,282.07,447.34,282.07Z" transform="translate(-311.08 -78.62)"/><path class="cls-2" d="M492.78,237.73c26,14.47,42.57,36.14,42.57,60.36,0,43.56-53.5,78.87-119.51,78.87-22.61,0-43.76-4.15-61.79-11.35,20.79,11.56,47.63,18.52,76.93,18.52,66,0,119.51-35.31,119.51-78.87C550.49,276.62,527.37,251.55,492.78,237.73Z" transform="translate(-311.08 -78.62)"/><path class="cls-2" d="M637,243.31c26,14.47,42.58,36.13,42.58,60.35,0,43.56-53.51,78.88-119.51,78.88-22.62,0-43.76-4.15-61.8-11.35,20.79,11.55,47.63,18.52,76.94,18.52,66,0,119.5-35.31,119.5-78.88C694.69,282.2,671.57,257.13,637,243.31Z" transform="translate(-311.08 -78.62)"/><path class="cls-6" d="M358,289.75S460.73,179.8,712.49,225.21c199,35.9,35.59,97.69-41.61,122a277.27,277.27,0,0,1-69.06,12.44C514.71,364.13,295.62,368.14,358,289.75Z" transform="translate(-311.08 -78.62)"/><path class="cls-2" d="M670.88,322.52A277.26,277.26,0,0,1,601.82,335c-70.57,3.63-227.74,6.95-251.75-33.6-30.32,65.54,169.52,61.74,251.75,57.5a277.26,277.26,0,0,0,69.06-12.43c56.59-17.82,159.5-55.78,132-88.91C784.45,283.51,714.13,308.89,670.88,322.52Z" transform="translate(-311.08 -78.62)"/><line class="cls-7" x1="266.37" y1="147" x2="294.26" y2="201.97"/><line class="cls-7" x1="180.33" y1="166.91" x2="204.23" y2="213.12"/><line class="cls-7" x1="316.57" y1="147" x2="354.01" y2="201.97"/><line class="cls-7" x1="180.33" y1="217.9" x2="431.29" y2="186.04"/><line class="cls-7" x1="421.73" y1="157.35" x2="439.26" y2="182.05"/><line class="cls-7" x1="130.93" y1="186.04" x2="142.09" y2="209.14"/><path class="cls-8" d="M479.47,189.8s229.18-1,231.29-3.11,50.46-3.17,59.92,10.31,12.61,19.7,0,21.77S342.8,433.4,342.8,433.4s-23.13,2.07-11.56-20.74S479.47,189.8,479.47,189.8Z" transform="translate(-311.08 -78.62)"/><path class="cls-3" d="M575.69,284.61c0,8.58-41.38,29.48-92.42,29.48s-92.42-20.9-92.42-29.48,41.38-11.95,92.42-11.95S575.69,276,575.69,284.61Z" transform="translate(-311.08 -78.62)"/><ellipse class="cls-3" cx="172.19" cy="205.59" rx="92.42" ry="15.54"/><path class="cls-3" d="M687.23,270.27c0,8.58-41.38,29.48-92.42,29.48s-92.42-20.9-92.42-29.48,41.38-11.95,92.42-11.95S687.23,261.69,687.23,270.27Z" transform="translate(-311.08 -78.62)"/><ellipse class="cls-3" cx="283.73" cy="191.25" rx="92.42" ry="15.54"/><path class="cls-3" d="M798.77,255.93c0,8.58-41.38,29.47-92.42,29.47s-92.42-20.89-92.42-29.47,41.38-12,92.42-12S798.77,247.35,798.77,255.93Z" transform="translate(-311.08 -78.62)"/><ellipse class="cls-3" cx="395.27" cy="176.91" rx="92.42" ry="15.54"/><path class="cls-1" d="M366,260.34s-38-6.19-18.57-37.13,26-65.62,34.48-73.37c9.49-8.66,205.31-160.54,357.87,7.53a224,224,0,0,1,38.9,60.75c1.85,4.2,3.88,8,5.87,10,6.19,6.18,11.49,23.86,0,32.7S434.49,304.1,366,260.34Z" transform="translate(-311.08 -78.62)"/><path class="cls-9" d="M544.11,131.72a15,15,0,0,1-8,2.66c-4.39,0-8-1.19-8-2.66s3.57-2.65,8-2.65A14.88,14.88,0,0,1,544.11,131.72Z" transform="translate(-311.08 -78.62)"/><path class="cls-9" d="M480.46,114.93a14.82,14.82,0,0,1-8,2.65c-4.39,0-7.95-1.19-7.95-2.65s3.56-2.65,7.95-2.65A14.82,14.82,0,0,1,480.46,114.93Z" transform="translate(-311.08 -78.62)"/><path class="cls-9" d="M653.35,139.4a14.84,14.84,0,0,1-8.38.16c-4.19-1.31-7.24-3.51-6.8-4.91s4.19-1.47,8.38-.15A14.9,14.9,0,0,1,653.35,139.4Z" transform="translate(-311.08 -78.62)"/><path class="cls-9" d="M535.79,94.32a14.88,14.88,0,0,1-8.39.16c-4.19-1.32-7.24-3.51-6.8-4.91s4.19-1.47,8.39-.16A14.92,14.92,0,0,1,535.79,94.32Z" transform="translate(-311.08 -78.62)"/><path class="cls-9" d="M664,110.23a14.84,14.84,0,0,1-8.38.16c-4.2-1.31-7.24-3.51-6.8-4.91s4.19-1.47,8.38-.15A14.83,14.83,0,0,1,664,110.23Z" transform="translate(-311.08 -78.62)"/><path class="cls-9" d="M637.81,107.86a14.88,14.88,0,0,1-8,2.65c-4.39,0-8-1.19-8-2.65s3.57-2.66,8-2.66A15,15,0,0,1,637.81,107.86Z" transform="translate(-311.08 -78.62)"/><path class="cls-9" d="M561.78,92a15,15,0,0,1-7.95,2.65c-4.39,0-8-1.19-8-2.65s3.57-2.66,8-2.66A14.91,14.91,0,0,1,561.78,92Z" transform="translate(-311.08 -78.62)"/><path class="cls-9" d="M620.13,92a15,15,0,0,1-8,2.65c-4.39,0-7.95-1.19-7.95-2.65s3.56-2.66,7.95-2.66A15,15,0,0,1,620.13,92Z" transform="translate(-311.08 -78.62)"/><path class="cls-9" d="M598,126.42a14.88,14.88,0,0,1-8,2.65c-4.39,0-8-1.19-8-2.65s3.56-2.65,8-2.65A14.88,14.88,0,0,1,598,126.42Z" transform="translate(-311.08 -78.62)"/><path class="cls-9" d="M533.75,120.22a14.82,14.82,0,0,1,4.17-7.27c3.28-2.93,6.73-4.41,7.7-3.32s-.89,4.35-4.17,7.28A14.82,14.82,0,0,1,533.75,120.22Z" transform="translate(-311.08 -78.62)"/><path class="cls-9" d="M494,110.5a14.82,14.82,0,0,1,4.17-7.27c3.28-2.93,6.73-4.41,7.7-3.32s-.89,4.35-4.17,7.27A14.76,14.76,0,0,1,494,110.5Z" transform="translate(-311.08 -78.62)"/><path class="cls-9" d="M425,158.24a14.89,14.89,0,0,1,4.17-7.28c3.28-2.93,6.73-4.41,7.7-3.32s-.89,4.35-4.17,7.28A14.92,14.92,0,0,1,425,158.24Z" transform="translate(-311.08 -78.62)"/><path class="cls-9" d="M578,105.2a14.85,14.85,0,0,1,4.17-7.28c3.28-2.92,6.73-4.41,7.7-3.32s-.89,4.35-4.17,7.28A15,15,0,0,1,578,105.2Z" transform="translate(-311.08 -78.62)"/><path class="cls-9" d="M562,137a14.85,14.85,0,0,1,4.17-7.28c3.28-2.92,6.72-4.41,7.7-3.31s-.89,4.35-4.17,7.27A14.87,14.87,0,0,1,562,137Z" transform="translate(-311.08 -78.62)"/></svg>