<svg id="acfec7e7-ff55-4f51-a7da-3052482bb043" xmlns="http://www.w3.org/2000/svg" viewBox="0 0 311.61 461.48"><defs><style>.cls-1{fill:#3f3d56;}.cls-2{isolation:isolate;opacity:0.1;}.cls-3{fill:#fff;}</style></defs><path class="cls-1" d="M507.33,363.41s-6.15,19.13-15.75,46.61c-3.11,8.93-6.58,18.73-10.33,29.05-5.22,14.36-11,29.73-17,45.1-3.71,9.45-7.51,18.9-11.36,28.13-20.69,49.46-42.72,92.31-57.16,92.91-32.44,1.35-101.92-215.68-109.5-239.66-.45-1.4-.67-2.14-.67-2.14Z" transform="translate(-270.89 -143.74)"/><path class="cls-2" d="M491.58,410c-3.11,8.93-6.58,18.73-10.33,29.05l-85.92-75.66h43.31Z" transform="translate(-270.89 -143.74)"/><path class="cls-2" d="M464.25,484.17c-3.71,9.45-7.51,18.9-11.36,28.13L286.23,365.55l-.67-2.14h41.55Z" transform="translate(-270.89 -143.74)"/><path class="cls-3" d="M400.29,171.19c-10.17,8.05-26.24,5-36,13.54-6.69,5.83-8.47,15.81-6.65,24.49s6.67,16.39,11.55,23.8c3.36,5.12,6.85,10.27,11.58,14.16,6.61,5.44,15.1,8,23.41,10a290.82,290.82,0,0,0,55.22,8c8.31.4,17.71,0,23.3-6.15,3.26-3.58,4.57-8.48,5.53-13.23,1.49-7.42,2.32-15.42-.77-22.33-2.53-5.69-7.41-9.95-12.36-13.73-15.5-11.86-33.76-21.68-43.23-38.76-3.76-6.79-6.08-14.65-11.78-19.92-7.43-6.86-24-9.67-32.71-5.09C388.72,149.07,406.38,166.36,400.29,171.19Z" transform="translate(-270.89 -143.74)"/><path class="cls-3" d="M314.86,251.23c-3,10.46-5.8,21.52-3.26,32.1,3.35,13.94,15.58,24.39,29,29.47s28.05,5.67,42.38,6.2l75,2.8c9.43.36,19,.74,27.91,4,7.3,2.67,16,7.07,22.07,2.23,2.77-2.2,4-5.75,5-9.14,3.19-11,5-23.14.68-33.79-4.91-12.2-17-20.22-29.62-24s-25.91-4.21-39-5.65a235.62,235.62,0,0,1-39.2-7.76c-10.72-3.09-21.58-7.17-29.51-15-4.29-4.24-7.54-9.42-11.58-13.9C341.61,193,320.55,231.48,314.86,251.23Z" transform="translate(-270.89 -143.74)"/><path class="cls-3" d="M298.37,299.26a46.43,46.43,0,0,0-9.69,78.92c11.42,9,26.38,12.09,40.87,13.13,14.14,1,28.35.32,42.52-.38l125.35-6.21c7.34-.36,15.66-1.21,20.14-7,3.35-4.35,3.55-10.35,2.75-15.79-2.88-19.54-17.63-36.83-36.47-42.76-7.11-2.23-14.59-2.94-22-3.63l-53.73-5c-7.23-.67-14.51-1.36-21.53-3.27-21.24-5.77-40.23-22.64-62.11-20.14-14.84,1.7-27.06,12.09-37.84,22.43" transform="translate(-270.89 -143.74)"/><path class="cls-2" d="M368.54,214.6s17.54,31.66,107.5,44.45" transform="translate(-270.89 -143.74)"/><path class="cls-2" d="M318.78,297.53s32.59,33,167.09,33" transform="translate(-270.89 -143.74)"/><ellipse class="cls-1" cx="123.4" cy="52.26" rx="8.58" ry="2.86"/><ellipse class="cls-1" cx="152.02" cy="70.86" rx="8.58" ry="2.86"/><ellipse class="cls-1" cx="184.93" cy="90.89" rx="8.58" ry="2.86"/><ellipse class="cls-1" cx="70.46" cy="99.48" rx="8.58" ry="2.86"/><ellipse class="cls-1" cx="143.44" cy="126.66" rx="8.58" ry="2.86"/><ellipse class="cls-1" cx="40.42" cy="182.46" rx="8.58" ry="2.86"/><ellipse class="cls-1" cx="94.79" cy="129.52" rx="8.58" ry="2.86"/><ellipse class="cls-1" cx="61.88" cy="203.93" rx="8.58" ry="2.86"/><ellipse class="cls-1" cx="117.68" cy="191.05" rx="8.58" ry="2.86"/><ellipse class="cls-3" cx="151.31" cy="243.27" rx="9.3" ry="19.32"/><ellipse class="cls-3" cx="162.75" cy="250.43" rx="9.3" ry="19.32"/><path class="cls-1" d="M414.56,580.42c.08-.38,2-9.52,12.1-22.84,9.25-12.23,27.46-30.42,61.64-47.66,64.74-32.66,79.23-94,79.37-94.63l1.73.39c0,.15-3.66,15.86-15.32,35.41a158.71,158.71,0,0,1-65,60.41c-64.64,32.6-72.72,68.91-72.8,69.27Z" transform="translate(-270.89 -143.74)"/><circle class="cls-3" cx="300.09" cy="253.46" r="11.52"/><circle class="cls-1" cx="297.81" cy="309.38" r="11.52"/><circle class="cls-3" cx="260.32" cy="313.3" r="11.52"/><circle class="cls-3" cx="266.14" cy="351.35" r="11.52"/><circle class="cls-1" cx="212.23" cy="352.13" r="11.52"/><path class="cls-1" d="M419.38,585.47s10.84-28.64,50.66-20.73Z" transform="translate(-270.89 -143.74)"/><path class="cls-1" d="M409.34,575.45s16.66-25.68-13.28-53.1Z" transform="translate(-270.89 -143.74)"/></svg>