<svg id="SvgjsSvg1013" xmlns="http://www.w3.org/2000/svg" viewBox="0 0 157.79 49.12"><defs><style>.cls-1{fill:#3f3d56;}.cls-2{fill:#fefefe;}.cls-3{fill:#f14464;}.cls-4{fill:#f9b7c3;}.cls-5{fill:#f1ca06;}</style></defs><path class="cls-1" d="M160.52,141.75a2.89,2.89,0,0,1,1.38.62,3.54,3.54,0,0,1,1,1.24,3.35,3.35,0,0,1,.38,1.58,3.52,3.52,0,0,1-.54,1.92,3.69,3.69,0,0,1-1.58,1.34,5.62,5.62,0,0,1-2.42.48h-5.2V135h5a5.52,5.52,0,0,1,2.42.48,3.37,3.37,0,0,1,1.5,1.26,3.3,3.3,0,0,1,.5,1.8,3.07,3.07,0,0,1-.68,2.06A3.64,3.64,0,0,1,160.52,141.75Zm-5.16-.74h3.06a2.93,2.93,0,0,0,2-.6,2.32,2.32,0,0,0,0-3.32,3,3,0,0,0-2-.6h-3Zm3.22,6.42a3.16,3.16,0,0,0,2.12-.64,2.18,2.18,0,0,0,.76-1.78,2.22,2.22,0,0,0-.8-1.82,3.19,3.19,0,0,0-2.14-.68h-3.16v4.92Zm17.23-4.4a10.56,10.56,0,0,1-.06,1.1H167a3.55,3.55,0,0,0,1.1,2.54,3.59,3.59,0,0,0,2.46.9,3.38,3.38,0,0,0,2-.54,3,3,0,0,0,1.12-1.48h2a4.75,4.75,0,0,1-1.76,2.58,5.32,5.32,0,0,1-3.28,1,5.54,5.54,0,0,1-2.8-.7,4.82,4.82,0,0,1-1.92-2,6.82,6.82,0,0,1,0-6,4.72,4.72,0,0,1,1.9-2,5.72,5.72,0,0,1,2.84-.7,5.54,5.54,0,0,1,2.76.68,4.69,4.69,0,0,1,1.84,1.88A5.4,5.4,0,0,1,175.81,143Zm-1.88-.38a3.39,3.39,0,0,0-.46-1.78,3,3,0,0,0-1.26-1.14,3.84,3.84,0,0,0-1.74-.4,3.43,3.43,0,0,0-2.36.88,3.6,3.6,0,0,0-1.1,2.44Zm5.22-6.46a1.23,1.23,0,0,1-1.24-1.24,1.21,1.21,0,0,1,.36-.88,1.19,1.19,0,0,1,.88-.36,1.12,1.12,0,0,1,.84.36,1.21,1.21,0,0,1,.36.88,1.19,1.19,0,0,1-.36.88A1.12,1.12,0,0,1,179.15,136.19ZM180,138v11h-1.82V138Zm4.08-1.78a1.21,1.21,0,0,1-.88-.36,1.26,1.26,0,0,1-.34-.88,1.27,1.27,0,0,1,.34-.88,1.21,1.21,0,0,1,.88-.36,1.12,1.12,0,0,1,.86.36,1.21,1.21,0,0,1,.36.88,1.19,1.19,0,0,1-.36.88A1.12,1.12,0,0,1,184.11,136.19Zm.9,15.12a2.74,2.74,0,0,1-.74,2.14,3,3,0,0,1-2.16.68h-1.06v-1.54h.76a1.48,1.48,0,0,0,1.06-.3,1.33,1.33,0,0,0,.32-1V138H185ZM198.09,143a10.56,10.56,0,0,1-.06,1.1h-8.76a3.63,3.63,0,0,0,1.1,2.54,3.59,3.59,0,0,0,2.46.9,3.36,3.36,0,0,0,2-.54,2.85,2.85,0,0,0,1.12-1.48h2a4.69,4.69,0,0,1-1.76,2.58,5.3,5.3,0,0,1-3.28,1,5.57,5.57,0,0,1-2.8-.7,5,5,0,0,1-1.92-2,6.82,6.82,0,0,1,0-6,4.85,4.85,0,0,1,1.9-2,5.77,5.77,0,0,1,2.84-.7,5.54,5.54,0,0,1,2.76.68,4.62,4.62,0,0,1,1.84,1.88A5.4,5.4,0,0,1,198.09,143Zm-1.88-.38a3.3,3.3,0,0,0-.46-1.78,2.9,2.9,0,0,0-1.26-1.14,3.84,3.84,0,0,0-1.74-.4,3.45,3.45,0,0,0-2.36.88,3.64,3.64,0,0,0-1.1,2.44Z" transform="translate(-78.91 -129.57)"/><path class="cls-1" d="M158.5,158.89a8.23,8.23,0,0,1,3.88.88,6.25,6.25,0,0,1,2.56,2.48,7.74,7.74,0,0,1,0,7.32,6.12,6.12,0,0,1-2.58,2.48,8.06,8.06,0,0,1-3.86.88h-5.26v-14ZM158.28,170a4.1,4.1,0,0,0,3-1.06,4,4,0,0,0,1.08-3,3.75,3.75,0,0,0-4.1-4.1h-1.62V170Zm20-2.8a8.64,8.64,0,0,1-.06,1h-7.74a2.43,2.43,0,0,0,.66,1.6,2.11,2.11,0,0,0,1.46.54,1.79,1.79,0,0,0,1.78-1.08H178a4.69,4.69,0,0,1-1,2,4.84,4.84,0,0,1-1.82,1.38,5.76,5.76,0,0,1-2.46.5,6,6,0,0,1-2.92-.7,4.94,4.94,0,0,1-2-2,6.16,6.16,0,0,1-.72-3,6.4,6.4,0,0,1,.7-3,5.06,5.06,0,0,1,2-2,6.14,6.14,0,0,1,2.94-.7,6,6,0,0,1,2.88.68,4.82,4.82,0,0,1,2,1.94A5.82,5.82,0,0,1,178.29,167.17Zm-3.5-.9a1.77,1.77,0,0,0-.6-1.4,2.4,2.4,0,0,0-3,0,2.34,2.34,0,0,0-.72,1.42Zm8.73-8.14v14.8H180.1v-14.8Zm4.2,2.48a2.11,2.11,0,0,1-1.48-.52,1.74,1.74,0,0,1-.56-1.32,1.71,1.71,0,0,1,.56-1.32,2.07,2.07,0,0,1,1.48-.54,2,2,0,0,1,1.44.54,1.73,1.73,0,0,1,.58,1.32,1.76,1.76,0,0,1-.58,1.32A2,2,0,0,1,187.72,160.61Zm1.7,1.16v11.16H186V161.77Zm7.49,8,2.42-8H203l-4,11.16h-4.22l-4-11.16h3.66Zm18-2.56a8.64,8.64,0,0,1-.06,1h-7.74a2.43,2.43,0,0,0,.66,1.6,2.11,2.11,0,0,0,1.46.54,1.79,1.79,0,0,0,1.78-1.08h3.64a4.69,4.69,0,0,1-1,2,4.84,4.84,0,0,1-1.82,1.38,5.76,5.76,0,0,1-2.46.5,6,6,0,0,1-2.92-.7,4.94,4.94,0,0,1-2-2,6.16,6.16,0,0,1-.72-3,6.4,6.4,0,0,1,.7-3,5.06,5.06,0,0,1,2-2,6.14,6.14,0,0,1,2.94-.7,6,6,0,0,1,2.88.68,4.82,4.82,0,0,1,2,1.94A5.82,5.82,0,0,1,214.93,167.17Zm-3.5-.9a1.77,1.77,0,0,0-.6-1.4,2.4,2.4,0,0,0-3,0,2.34,2.34,0,0,0-.72,1.42Zm8.73-2.64a4.48,4.48,0,0,1,1.5-1.44,3.82,3.82,0,0,1,2-.54v3.62h-.94a2.88,2.88,0,0,0-1.92.56,2.4,2.4,0,0,0-.64,1.92v5.18h-3.42V161.77h3.42Zm16.53-1.86-7,16.46H226l2.56-5.68L224,161.77h3.82l2.58,7,2.56-7Z" transform="translate(-78.91 -129.57)"/><path class="cls-2" d="M108.62,129.58h38.89c.29,0,.35.07.35.35q0,24.21,0,48.43c0,.28-.06.35-.35.35H78.91V161a1.84,1.84,0,0,1,.15.8A15.43,15.43,0,0,0,81.7,169,20.88,20.88,0,0,0,90.78,176a33.27,33.27,0,0,0,11.06,2.36,74.39,74.39,0,0,0,7.76.19,58.31,58.31,0,0,0,8.13-.81,51.78,51.78,0,0,0,15-5,38.43,38.43,0,0,0,11.64-9.18,12.92,12.92,0,0,0,3.32-10.06,8.8,8.8,0,0,0-3.54-6.4,18.11,18.11,0,0,0-9.51-3.41,40.48,40.48,0,0,0-8.08.35c-2.48.27-4.95.63-7.42,1a29.4,29.4,0,0,0-6.13,1.45,10.1,10.1,0,0,0-4.55,3,6.55,6.55,0,0,0-1.52,3.18,4.73,4.73,0,0,0,1.77,4.5,6.73,6.73,0,0,0,6.43,1.59c1.36-.38,2.72-.72,4.09-1a29,29,0,0,1,9.84-1.18,15.09,15.09,0,0,1,3.65.69,6.46,6.46,0,0,1,4.23,7.24,6.16,6.16,0,0,1-2.57,3.79,40.42,40.42,0,0,1-23.09,8.22,31.34,31.34,0,0,1-7.91-.59,27.21,27.21,0,0,1-7.11-2.28,10.42,10.42,0,0,1-5.16-5.36,10.56,10.56,0,0,1-.55-5.28,12.11,12.11,0,0,1,2.63-6.42,25.08,25.08,0,0,1,5.27-4.64c2.41-1.63,5-2.9,7.58-4.28s4.93-2.62,7.3-4.08a5.29,5.29,0,0,0,2.27-2.54,11,11,0,0,0,.66-5.6,7.78,7.78,0,0,0-1.47-3.46c-.11-.16-.19-.39-.35-.49a8,8,0,0,0-3-1.5,20.74,20.74,0,0,0-2.83-.3A.2.2,0,0,1,108.62,129.58ZM121.31,164a5.39,5.39,0,0,0,10.78,0,5.39,5.39,0,1,0-10.78,0Z" transform="translate(-78.91 -129.57)"/><path class="cls-3" d="M108.63,129.65a20.74,20.74,0,0,1,2.83.3,8,8,0,0,1,3,1.5c.16.1.24.33.35.49a7.78,7.78,0,0,1,1.47,3.46,11,11,0,0,1-.66,5.6,5.29,5.29,0,0,1-2.27,2.54c-2.37,1.46-4.85,2.75-7.3,4.08s-5.17,2.65-7.58,4.28a25.08,25.08,0,0,0-5.27,4.64A12.11,12.11,0,0,0,90.57,163a10.56,10.56,0,0,0,.55,5.28,10.42,10.42,0,0,0,5.16,5.36,27.21,27.21,0,0,0,7.11,2.28,31.34,31.34,0,0,0,7.91.59,40.42,40.42,0,0,0,23.09-8.22,6.16,6.16,0,0,0,2.57-3.79,6.46,6.46,0,0,0-4.23-7.24,15.09,15.09,0,0,0-3.65-.69,29,29,0,0,0-9.84,1.18c-1.37.33-2.73.67-4.09,1a6.73,6.73,0,0,1-6.43-1.59,4.73,4.73,0,0,1-1.77-4.5,6.55,6.55,0,0,1,1.52-3.18,10.1,10.1,0,0,1,4.55-3,29.4,29.4,0,0,1,6.13-1.45c2.47-.38,4.94-.74,7.42-1a40.48,40.48,0,0,1,8.08-.35,18.11,18.11,0,0,1,9.51,3.41,8.8,8.8,0,0,1,3.54,6.4,12.92,12.92,0,0,1-3.32,10.06,38.43,38.43,0,0,1-11.64,9.18,51.78,51.78,0,0,1-15,5,58.31,58.31,0,0,1-8.13.81,74.39,74.39,0,0,1-7.76-.19A33.27,33.27,0,0,1,90.78,176,20.88,20.88,0,0,1,81.7,169a15.43,15.43,0,0,1-2.64-7.2,1.84,1.84,0,0,0-.15-.8v-3.2c.13-.06.08-.18.09-.27a21.9,21.9,0,0,1,.4-2.78,32.79,32.79,0,0,1,8.77-16.1,31.92,31.92,0,0,1,9.23-6.55,23.53,23.53,0,0,1,9.16-2.4Z" transform="translate(-78.91 -129.57)"/><path class="cls-2" d="M106.56,129.65a23.53,23.53,0,0,0-9.16,2.4,31.92,31.92,0,0,0-9.23,6.55,32.79,32.79,0,0,0-8.77,16.1,21.9,21.9,0,0,0-.4,2.78c0,.09,0,.21-.09.27q0-13.92,0-27.85c0-.27,0-.33.33-.33h27.33A.17.17,0,0,1,106.56,129.65Z" transform="translate(-78.91 -129.57)"/><path class="cls-4" d="M106.56,129.65a.17.17,0,0,0,0-.07h2.05a.2.2,0,0,0,0,.07Z" transform="translate(-78.91 -129.57)"/><path class="cls-5" d="M121.31,164a5.39,5.39,0,1,1,5.41,5.39A5.39,5.39,0,0,1,121.31,164Z" transform="translate(-78.91 -129.57)"/></svg>