<?xml version="1.0" encoding="utf-8"?>
<!-- Generator: Adobe Illustrator 25.3.1, SVG Export Plug-In . SVG Version: 6.00 Build 0)  -->
<svg version="1.1" id="Layer_1" xmlns="http://www.w3.org/2000/svg" xmlns:xlink="http://www.w3.org/1999/xlink" x="0px" y="0px"
	 viewBox="0 0 1400 980" style="enable-background:new 0 0 1400 980;" xml:space="preserve">
<style type="text/css">
	.st0{opacity:0.2;fill:#BCBEC0;}
	.st1{fill:#D1D3D4;}
	.st2{fill:#C9C9C9;}
	.st3{fill:#BCBEC0;}
	.st4{fill:#A7A9AC;}
	.st5{fill:#9C9C9D;}
	.st6{fill:#F2E74F;}
	.st7{fill:#F2B137;}
	.st8{fill:#ABA7A6;}
	.st9{fill:#766C66;}
	.st10{fill:#DDC69C;}
	.st11{fill:#F2DABD;}
	.st12{fill:#F7941D;}
	.st13{fill:#F15A29;}
	.st14{fill:#F9ED32;}
	.st15{fill:#009444;}
	.st16{fill:#00A79D;}
	.st17{fill:#8DC63F;}
	.st18{fill:#BE1E2D;}
	.st19{fill:#27AAE1;}
	.st20{fill:#2B3990;}
	.st21{fill:#1C75BC;}
	.st22{fill:#9E1F63;}
	.st23{fill:#662D91;}
	.st24{fill:#BF2727;}
	.st25{fill:#979C9C;}
	.st26{fill:#808285;}
	.st27{fill:#F2C333;}
	.st28{fill:#DDD4AB;}
	.st29{fill:#F2EABC;}
	.st30{fill:#E33760;}
	.st31{fill:#C5203F;}
	.st32{opacity:0.3;fill:#8C8C8C;}
</style>
<ellipse id="XMLID_506_" class="st0" cx="700" cy="740.6" rx="299.1" ry="59.9"/>
<g id="XMLID_504_">
	<path id="XMLID_142_" class="st1" d="M864,745.4H536c-4,0-6.2-4.5-3.9-7.7l30.2-41.8c0.9-1.3,2.4-2,3.9-2h267.5c1.6,0,3,0.7,3.9,2
		l30.2,41.8C870.2,740.9,867.9,745.4,864,745.4z"/>
	<ellipse id="XMLID_502_" class="st2" cx="704.7" cy="719.7" rx="116.5" ry="13.9"/>
	<path id="XMLID_246_" class="st3" d="M774.2,719.7H625.8V69.9c0-5.6,4.6-10.2,10.2-10.2H764c5.6,0,10.2,4.6,10.2,10.2V719.7z"/>
	<path id="XMLID_508_" class="st4" d="M764,68.5H636c-5.6,0-10.2,4.6-10.2,10.2v641h148.3v-641C774.2,73.1,769.6,68.5,764,68.5z"/>
	<path id="XMLID_501_" class="st5" d="M700,633.4c-26.1,0-51.1-4.7-74.2-13.2v12.2c23.1,8.6,48.1,13.2,74.2,13.2s51.1-4.7,74.2-13.2
		v-12.2C751.1,628.8,726.1,633.4,700,633.4z"/>
	<g id="XMLID_143_">
		<circle id="XMLID_141_" class="st6" cx="700" cy="196.3" r="7.4"/>
		<g id="XMLID_149_">
			<path id="XMLID_140_" class="st7" d="M701.2,202.9C701.2,202.9,701.2,202.9,701.2,202.9c-0.1,0-0.1-0.1-0.1-0.1l1.3-4.9
				c-0.2,0-0.3,0.1-0.5,0.2c-0.2,0.1-0.3,0.3-0.7,0.3s-0.5-0.1-0.7-0.3c-0.2-0.1-0.3-0.2-0.6-0.2c-0.3,0-0.4,0.1-0.6,0.2
				c-0.2,0.1-0.3,0.3-0.7,0.3c-0.3,0-0.5-0.1-0.7-0.3c-0.1-0.1-0.3-0.2-0.5-0.2l1.3,4.9c0,0,0,0.1-0.1,0.1c0,0-0.1,0-0.1-0.1l-1.3-5
				c0,0,0-0.1,0-0.1s0,0,0.1,0c0.3,0,0.5,0.1,0.7,0.3c0.2,0.1,0.3,0.2,0.6,0.2c0.3,0,0.4-0.1,0.6-0.2c0.2-0.1,0.3-0.3,0.7-0.3
				s0.5,0.1,0.7,0.3c0.2,0.1,0.3,0.2,0.6,0.2s0.4-0.1,0.6-0.2c0.2-0.1,0.3-0.3,0.7-0.3c0,0,0.1,0,0.1,0c0,0,0,0,0,0.1L701.2,202.9
				C701.3,202.8,701.3,202.9,701.2,202.9z"/>
		</g>
		<path id="XMLID_139_" class="st8" d="M702.4,207.6h-4.8c-0.7,0-1.3-0.6-1.3-1.3v-3.6h7.3v3.6C703.7,207.1,703.1,207.6,702.4,207.6
			z"/>
		<g id="XMLID_146_">
			<path id="XMLID_138_" class="st9" d="M696.3,206.7c-0.2,0-0.4-0.1-0.4-0.3c0-0.2,0.1-0.4,0.3-0.4l7.3-0.7c0.2,0,0.4,0.1,0.4,0.3
				c0,0.2-0.1,0.4-0.3,0.4L696.3,206.7C696.4,206.7,696.3,206.7,696.3,206.7z"/>
		</g>
		<g id="XMLID_144_">
			<path id="XMLID_10_" class="st9" d="M696.3,205.2c-0.2,0-0.4-0.1-0.4-0.3c0-0.2,0.1-0.4,0.3-0.4l7.3-0.7c0.2,0,0.4,0.1,0.4,0.3
				c0,0.2-0.1,0.4-0.3,0.4L696.3,205.2C696.4,205.2,696.3,205.2,696.3,205.2z"/>
		</g>
	</g>
	<g id="XMLID_145_">
		<path id="XMLID_155_" class="st6" d="M594.6,222.5c2.1,3.6,0.8,8.1-2.7,10.2c-3.6,2.1-8.1,0.8-10.2-2.7c-2.1-3.6-0.8-8.1,2.7-10.2
			C588,217.8,592.6,219,594.6,222.5z"/>
		<g id="XMLID_153_">
			<path id="XMLID_154_" class="st7" d="M592.5,231.3C592.5,231.3,592.5,231.3,592.5,231.3c-0.1,0-0.1,0-0.1-0.1l-1.3-4.9
				c-0.2,0.1-0.2,0.3-0.3,0.4c-0.1,0.2-0.2,0.4-0.5,0.6c-0.3,0.2-0.5,0.1-0.7,0.1c-0.2,0-0.4,0-0.6,0.1c-0.2,0.1-0.3,0.3-0.4,0.5
				c-0.1,0.2-0.2,0.4-0.5,0.6c-0.3,0.2-0.5,0.1-0.7,0.1c-0.2,0-0.3,0-0.5,0l3.6,3.6c0,0,0,0.1,0,0.1c0,0-0.1,0-0.1,0l-3.6-3.6
				c0,0,0,0,0-0.1c0,0,0-0.1,0-0.1c0.3-0.2,0.5-0.1,0.7-0.1c0.2,0,0.4,0,0.6-0.1c0.2-0.1,0.3-0.3,0.4-0.5c0.1-0.2,0.2-0.4,0.5-0.6
				c0.3-0.2,0.5-0.1,0.7-0.1c0.2,0,0.4,0,0.6-0.1c0.2-0.1,0.3-0.3,0.4-0.5c0.1-0.2,0.2-0.4,0.5-0.6c0,0,0.1,0,0.1,0c0,0,0,0,0.1,0.1
				L592.5,231.3C592.6,231.3,592.6,231.3,592.5,231.3z"/>
		</g>
		<path id="XMLID_152_" class="st8" d="M595.9,234.9l-4.2,2.4c-0.6,0.3-1.4,0.1-1.7-0.5l-1.8-3.1l6.3-3.7l1.8,3.1
			C596.7,233.8,596.5,234.5,595.9,234.9z"/>
		<g id="XMLID_150_">
			<path id="XMLID_151_" class="st9" d="M590.2,237.1c-0.2,0.1-0.4,0.1-0.5-0.1c-0.1-0.2-0.1-0.4,0.1-0.5l6-4.3
				c0.2-0.1,0.4-0.1,0.5,0.1c0.1,0.2,0.1,0.4-0.1,0.5L590.2,237.1C590.3,237.1,590.2,237.1,590.2,237.1z"/>
		</g>
		<g id="XMLID_147_">
			<path id="XMLID_148_" class="st9" d="M589.5,235.8c-0.2,0.1-0.4,0.1-0.5-0.1c-0.1-0.2-0.1-0.4,0.1-0.5l6-4.3
				c0.2-0.1,0.4-0.1,0.5,0.1c0.1,0.2,0.1,0.4-0.1,0.5L589.5,235.8C589.5,235.8,589.5,235.8,589.5,235.8z"/>
		</g>
	</g>
	<g id="XMLID_156_">
		<path id="XMLID_164_" class="st6" d="M510.1,301.7c3.6,2.1,4.8,6.6,2.7,10.2c-2.1,3.6-6.6,4.8-10.2,2.7c-3.6-2.1-4.8-6.6-2.7-10.2
			C502,300.8,506.5,299.6,510.1,301.7z"/>
		<g id="XMLID_162_">
			<path id="XMLID_163_" class="st7" d="M512.6,310.3C512.6,310.3,512.6,310.3,512.6,310.3c0,0.1-0.1,0.1-0.1,0l-3.6-3.6
				c-0.1,0.2-0.1,0.3,0,0.5c0,0.2,0.1,0.4-0.1,0.7c-0.2,0.3-0.4,0.4-0.6,0.5c-0.2,0.1-0.3,0.1-0.5,0.4c-0.1,0.2-0.1,0.4-0.1,0.6
				c0,0.2,0.1,0.4-0.1,0.7c-0.2,0.3-0.4,0.4-0.6,0.5c-0.2,0.1-0.3,0.1-0.4,0.3l4.9,1.3c0,0,0.1,0.1,0.1,0.1c0,0-0.1,0.1-0.1,0.1
				l-5-1.3c0,0,0,0-0.1-0.1c0,0,0-0.1,0-0.1c0.2-0.3,0.4-0.4,0.6-0.5c0.2-0.1,0.3-0.1,0.5-0.4c0.1-0.2,0.1-0.4,0.1-0.6
				c0-0.2-0.1-0.4,0.1-0.7s0.4-0.4,0.6-0.5c0.2-0.1,0.3-0.1,0.5-0.4s0.1-0.4,0.1-0.6c0-0.2-0.1-0.4,0.1-0.7c0,0,0,0,0.1,0
				c0,0,0.1,0,0.1,0l3.6,3.6C512.7,310.2,512.7,310.3,512.6,310.3z"/>
		</g>
		<path id="XMLID_161_" class="st8" d="M517.4,311.7l-2.4,4.2c-0.3,0.6-1.1,0.8-1.7,0.5l-3.1-1.8l3.7-6.3l3.1,1.8
			C517.5,310.3,517.7,311.1,517.4,311.7z"/>
		<g id="XMLID_159_">
			<path id="XMLID_160_" class="st9" d="M513.5,316.5c-0.1,0.2-0.3,0.2-0.5,0.2c-0.2-0.1-0.3-0.3-0.2-0.5l3.1-6.7
				c0.1-0.2,0.3-0.3,0.5-0.2c0.2,0.1,0.3,0.3,0.2,0.5L513.5,316.5C513.6,316.5,513.6,316.5,513.5,316.5z"/>
		</g>
		<g id="XMLID_157_">
			<path id="XMLID_158_" class="st9" d="M512.3,315.7c-0.1,0.2-0.3,0.2-0.5,0.2c-0.2-0.1-0.3-0.3-0.2-0.5l3.1-6.7
				c0.1-0.2,0.3-0.3,0.5-0.2c0.2,0.1,0.3,0.3,0.2,0.5L512.3,315.7C512.3,315.7,512.3,315.7,512.3,315.7z"/>
		</g>
	</g>
	<g id="XMLID_165_">
		<circle id="XMLID_173_" class="st6" cx="476.4" cy="419.9" r="7.4"/>
		<g id="XMLID_171_">
			<path id="XMLID_172_" class="st7" d="M483,418.7C483,418.7,483,418.7,483,418.7c0,0.1-0.1,0.1-0.1,0.1l-4.9-1.3
				c0,0.2,0.1,0.3,0.2,0.5c0.1,0.2,0.3,0.3,0.3,0.7s-0.1,0.5-0.3,0.7c-0.1,0.2-0.2,0.3-0.2,0.6c0,0.3,0.1,0.4,0.2,0.6
				c0.1,0.2,0.3,0.3,0.3,0.7s-0.1,0.5-0.3,0.7c-0.1,0.1-0.2,0.3-0.2,0.5l4.9-1.3c0,0,0.1,0,0.1,0.1c0,0,0,0.1-0.1,0.1l-5,1.3
				c0,0-0.1,0-0.1,0c0,0,0,0,0-0.1c0-0.3,0.1-0.5,0.3-0.7c0.1-0.2,0.2-0.3,0.2-0.6c0-0.3-0.1-0.4-0.2-0.6c-0.1-0.2-0.3-0.3-0.3-0.7
				c0-0.3,0.1-0.5,0.3-0.7c0.1-0.2,0.2-0.3,0.2-0.6c0-0.3-0.1-0.4-0.2-0.6c-0.1-0.2-0.3-0.3-0.3-0.7c0,0,0-0.1,0-0.1c0,0,0,0,0.1,0
				L483,418.7C482.9,418.6,483,418.6,483,418.7z"/>
		</g>
		<path id="XMLID_170_" class="st8" d="M487.7,417.5v4.8c0,0.7-0.6,1.3-1.3,1.3h-3.6v-7.3h3.6C487.2,416.3,487.7,416.8,487.7,417.5z
			"/>
		<g id="XMLID_168_">
			<path id="XMLID_169_" class="st9" d="M486.8,423.6c0,0.2-0.1,0.4-0.3,0.4c-0.2,0-0.4-0.1-0.4-0.3l-0.7-7.3c0-0.2,0.1-0.4,0.3-0.4
				c0.2,0,0.4,0.1,0.4,0.3L486.8,423.6C486.8,423.5,486.8,423.6,486.8,423.6z"/>
		</g>
		<g id="XMLID_166_">
			<path id="XMLID_167_" class="st9" d="M485.3,423.6c0,0.2-0.1,0.4-0.3,0.4c-0.2,0-0.4-0.1-0.4-0.3l-0.7-7.3c0-0.2,0.1-0.4,0.3-0.4
				c0.2,0,0.4,0.1,0.4,0.3L485.3,423.6C485.3,423.5,485.3,423.6,485.3,423.6z"/>
		</g>
	</g>
	<g id="XMLID_174_">
		<path id="XMLID_182_" class="st6" d="M502.6,525.3c3.6-2.1,8.1-0.8,10.2,2.7c2.1,3.6,0.8,8.1-2.7,10.2c-3.6,2.1-8.1,0.8-10.2-2.7
			S499.1,527.3,502.6,525.3z"/>
		<g id="XMLID_180_">
			<path id="XMLID_181_" class="st7" d="M511.4,527.4C511.4,527.4,511.4,527.4,511.4,527.4c0,0.1,0,0.1-0.1,0.1l-4.9,1.3
				c0.1,0.2,0.3,0.2,0.4,0.3c0.2,0.1,0.4,0.2,0.6,0.5c0.2,0.3,0.1,0.5,0.1,0.7c0,0.2,0,0.4,0.1,0.6c0.1,0.2,0.3,0.3,0.5,0.4
				c0.2,0.1,0.4,0.2,0.6,0.5c0.2,0.3,0.1,0.5,0.1,0.7c0,0.2,0,0.3,0,0.5l3.6-3.6c0,0,0.1,0,0.1,0c0,0,0,0.1,0,0.1l-3.6,3.6
				c0,0,0,0-0.1,0c0,0-0.1,0-0.1,0c-0.2-0.3-0.1-0.5-0.1-0.7c0-0.2,0-0.4-0.1-0.6c-0.1-0.2-0.3-0.3-0.5-0.4
				c-0.2-0.1-0.4-0.2-0.6-0.5c-0.2-0.3-0.1-0.5-0.1-0.7c0-0.2,0-0.4-0.1-0.6c-0.1-0.2-0.3-0.3-0.5-0.4c-0.2-0.1-0.4-0.2-0.6-0.5
				c0,0,0-0.1,0-0.1c0,0,0,0,0.1-0.1L511.4,527.4C511.4,527.3,511.4,527.3,511.4,527.4z"/>
		</g>
		<path id="XMLID_179_" class="st8" d="M515,524l2.4,4.2c0.3,0.6,0.1,1.4-0.5,1.7l-3.1,1.8l-3.7-6.3l3.1-1.8
			C513.9,523.2,514.6,523.4,515,524z"/>
		<g id="XMLID_177_">
			<path id="XMLID_178_" class="st9" d="M517.2,529.7c0.1,0.2,0.1,0.4-0.1,0.5c-0.2,0.1-0.4,0.1-0.5-0.1l-4.3-6
				c-0.1-0.2-0.1-0.4,0.1-0.5c0.2-0.1,0.4-0.1,0.5,0.1L517.2,529.7C517.2,529.6,517.2,529.7,517.2,529.7z"/>
		</g>
		<g id="XMLID_175_">
			<path id="XMLID_176_" class="st9" d="M515.9,530.4c0.1,0.2,0.1,0.4-0.1,0.5c-0.2,0.1-0.4,0.1-0.5-0.1l-4.3-6
				c-0.1-0.2-0.1-0.4,0.1-0.5c0.2-0.1,0.4-0.1,0.5,0.1L515.9,530.4C515.9,530.4,515.9,530.4,515.9,530.4z"/>
		</g>
	</g>
	<g id="XMLID_183_">
		
			<ellipse id="XMLID_191_" transform="matrix(0.328 -0.9447 0.9447 0.328 -184.3578 967.9319)" class="st6" cx="588.2" cy="613.6" rx="7.4" ry="7.4"/>
		<g id="XMLID_189_">
			<path id="XMLID_190_" class="st7" d="M590.4,607.3C590.4,607.3,590.4,607.3,590.4,607.3c0.1,0,0.1,0.1,0,0.1l-3.6,3.6
				c0.2,0.1,0.3,0.1,0.5,0c0.2,0,0.4-0.1,0.7,0.1c0.3,0.2,0.4,0.4,0.5,0.6c0.1,0.2,0.1,0.3,0.4,0.5c0.2,0.1,0.4,0.1,0.6,0.1
				c0.2,0,0.4-0.1,0.7,0.1c0.3,0.2,0.4,0.4,0.5,0.6c0.1,0.2,0.1,0.3,0.3,0.4l1.3-4.9c0,0,0.1-0.1,0.1-0.1c0,0,0.1,0.1,0.1,0.1
				l-1.3,5c0,0,0,0-0.1,0.1c0,0-0.1,0-0.1,0c-0.3-0.2-0.4-0.4-0.5-0.6c-0.1-0.2-0.1-0.3-0.4-0.5c-0.2-0.1-0.4-0.1-0.6-0.1
				c-0.2,0-0.4,0.1-0.7-0.1c-0.3-0.2-0.4-0.4-0.5-0.6c-0.1-0.2-0.1-0.3-0.4-0.5c-0.2-0.1-0.4-0.1-0.6-0.1c-0.2,0-0.4,0.1-0.7-0.1
				c0,0,0,0,0-0.1c0,0,0-0.1,0-0.1l3.6-3.6C590.3,607.2,590.4,607.2,590.4,607.3z"/>
		</g>
		<path id="XMLID_188_" class="st8" d="M591.8,602.5l4.2,2.4c0.6,0.3,0.8,1.1,0.5,1.7l-1.8,3.1l-6.3-3.7l1.8-3.1
			C590.4,602.4,591.2,602.2,591.8,602.5z"/>
		<g id="XMLID_186_">
			<path id="XMLID_187_" class="st9" d="M596.6,606.4c0.2,0.1,0.2,0.3,0.2,0.5c-0.1,0.2-0.3,0.3-0.5,0.2l-6.7-3.1
				c-0.2-0.1-0.3-0.3-0.2-0.5c0.1-0.2,0.3-0.3,0.5-0.2L596.6,606.4C596.6,606.3,596.6,606.3,596.6,606.4z"/>
		</g>
		<g id="XMLID_184_">
			<path id="XMLID_185_" class="st9" d="M595.8,607.7c0.2,0.1,0.2,0.3,0.2,0.5c-0.1,0.2-0.3,0.3-0.5,0.2l-6.7-3.1
				c-0.2-0.1-0.3-0.3-0.2-0.5c0.1-0.2,0.3-0.3,0.5-0.2L595.8,607.7C595.8,607.6,595.8,607.6,595.8,607.7z"/>
		</g>
	</g>
	<g id="XMLID_192_">
		<circle id="XMLID_200_" class="st6" cx="700" cy="643.5" r="7.4"/>
		<g id="XMLID_198_">
			<path id="XMLID_199_" class="st7" d="M698.8,637C698.8,637,698.8,637,698.8,637c0.1,0,0.1,0.1,0.1,0.1l-1.3,4.9
				c0.2,0,0.3-0.1,0.5-0.2c0.2-0.1,0.3-0.3,0.7-0.3s0.5,0.1,0.7,0.3c0.2,0.1,0.3,0.2,0.6,0.2c0.3,0,0.4-0.1,0.6-0.2
				c0.2-0.1,0.3-0.3,0.7-0.3c0.3,0,0.5,0.1,0.7,0.3c0.1,0.1,0.3,0.2,0.5,0.2l-1.3-4.9c0,0,0-0.1,0.1-0.1c0,0,0.1,0,0.1,0.1l1.3,5
				c0,0,0,0.1,0,0.1c0,0,0,0-0.1,0c-0.3,0-0.5-0.1-0.7-0.3c-0.2-0.1-0.3-0.2-0.6-0.2c-0.3,0-0.4,0.1-0.6,0.2
				c-0.2,0.1-0.3,0.3-0.7,0.3c-0.3,0-0.5-0.1-0.7-0.3c-0.2-0.1-0.3-0.2-0.6-0.2c-0.3,0-0.4,0.1-0.6,0.2c-0.2,0.1-0.3,0.3-0.7,0.3
				c0,0-0.1,0-0.1,0c0,0,0,0,0-0.1L698.8,637C698.7,637,698.7,637,698.8,637z"/>
		</g>
		<path id="XMLID_197_" class="st8" d="M697.6,632.2h4.8c0.7,0,1.3,0.6,1.3,1.3v3.6h-7.3v-3.6C696.3,632.7,696.9,632.2,697.6,632.2z
			"/>
		<g id="XMLID_195_">
			<path id="XMLID_196_" class="st9" d="M703.7,633.1c0.2,0,0.4,0.1,0.4,0.3c0,0.2-0.1,0.4-0.3,0.4l-7.3,0.7c-0.2,0-0.4-0.1-0.4-0.3
				c0-0.2,0.1-0.4,0.3-0.4L703.7,633.1C703.6,633.1,703.7,633.1,703.7,633.1z"/>
		</g>
		<g id="XMLID_193_">
			<path id="XMLID_194_" class="st9" d="M703.7,634.6c0.2,0,0.4,0.1,0.4,0.3c0,0.2-0.1,0.4-0.3,0.4l-7.3,0.7c-0.2,0-0.4-0.1-0.4-0.3
				c0-0.2,0.1-0.4,0.3-0.4L703.7,634.6C703.6,634.6,703.7,634.6,703.7,634.6z"/>
		</g>
	</g>
	<g id="XMLID_201_">
		<path id="XMLID_209_" class="st6" d="M805.4,617.3c-2.1-3.6-0.8-8.1,2.7-10.2c3.6-2.1,8.1-0.8,10.2,2.7c2.1,3.6,0.8,8.1-2.7,10.2
			C812,622,807.4,620.8,805.4,617.3z"/>
		<g id="XMLID_207_">
			<path id="XMLID_208_" class="st7" d="M807.5,608.5C807.5,608.5,807.5,608.5,807.5,608.5c0.1,0,0.1,0,0.1,0.1l1.3,4.9
				c0.2-0.1,0.2-0.3,0.3-0.4c0.1-0.2,0.2-0.4,0.5-0.6c0.3-0.2,0.5-0.1,0.7-0.1c0.2,0,0.4,0,0.6-0.1s0.3-0.3,0.4-0.5
				c0.1-0.2,0.2-0.4,0.5-0.6c0.3-0.2,0.5-0.1,0.7-0.1c0.2,0,0.3,0,0.5,0l-3.6-3.6c0,0,0-0.1,0-0.1c0,0,0.1,0,0.1,0l3.6,3.6
				c0,0,0,0,0,0.1c0,0,0,0.1,0,0.1c-0.3,0.2-0.5,0.1-0.7,0.1c-0.2,0-0.4,0-0.6,0.1c-0.2,0.1-0.3,0.3-0.4,0.5
				c-0.1,0.2-0.2,0.4-0.5,0.6c-0.3,0.2-0.5,0.1-0.7,0.1c-0.2,0-0.4,0-0.6,0.1c-0.2,0.1-0.3,0.3-0.4,0.5c-0.1,0.2-0.2,0.4-0.5,0.6
				c0,0-0.1,0-0.1,0c0,0,0,0-0.1-0.1L807.5,608.5C807.4,608.5,807.4,608.5,807.5,608.5z"/>
		</g>
		<path id="XMLID_206_" class="st8" d="M804.1,604.9l4.2-2.4c0.6-0.3,1.4-0.1,1.7,0.5l1.8,3.1l-6.3,3.7l-1.8-3.1
			C803.3,606,803.5,605.3,804.1,604.9z"/>
		<g id="XMLID_204_">
			<path id="XMLID_205_" class="st9" d="M809.8,602.7c0.2-0.1,0.4-0.1,0.5,0.1c0.1,0.2,0.1,0.4-0.1,0.5l-6,4.3
				c-0.2,0.1-0.4,0.1-0.5-0.1c-0.1-0.2-0.1-0.4,0.1-0.5L809.8,602.7C809.7,602.7,809.8,602.7,809.8,602.7z"/>
		</g>
		<g id="XMLID_202_">
			<path id="XMLID_203_" class="st9" d="M810.5,604c0.2-0.1,0.4-0.1,0.5,0.1c0.1,0.2,0.1,0.4-0.1,0.5l-6,4.3
				c-0.2,0.1-0.4,0.1-0.5-0.1c-0.1-0.2-0.1-0.4,0.1-0.5L810.5,604C810.5,604,810.5,604,810.5,604z"/>
		</g>
	</g>
	<g id="XMLID_210_">
		<path id="XMLID_218_" class="st6" d="M889.9,538.1c-3.6-2.1-4.8-6.6-2.7-10.2c2.1-3.6,6.6-4.8,10.2-2.7c3.6,2.1,4.8,6.6,2.7,10.2
			S893.5,540.2,889.9,538.1z"/>
		<g id="XMLID_216_">
			<path id="XMLID_217_" class="st7" d="M887.4,529.5C887.4,529.5,887.4,529.5,887.4,529.5c0-0.1,0.1-0.1,0.1,0l3.6,3.6
				c0.1-0.2,0.1-0.3,0-0.5c0-0.2-0.1-0.4,0.1-0.7c0.2-0.3,0.4-0.4,0.6-0.5c0.2-0.1,0.3-0.1,0.5-0.4c0.1-0.2,0.1-0.4,0.1-0.6
				c0-0.2-0.1-0.4,0.1-0.7c0.2-0.3,0.4-0.4,0.6-0.5c0.2-0.1,0.3-0.1,0.4-0.3l-4.9-1.3c0,0-0.1-0.1-0.1-0.1c0,0,0.1-0.1,0.1-0.1
				l5,1.3c0,0,0,0,0.1,0.1c0,0,0,0.1,0,0.1c-0.2,0.3-0.4,0.4-0.6,0.5c-0.2,0.1-0.3,0.1-0.5,0.4c-0.1,0.2-0.1,0.4-0.1,0.6
				c0,0.2,0.1,0.4-0.1,0.7c-0.2,0.3-0.4,0.4-0.6,0.5c-0.2,0.1-0.3,0.1-0.5,0.4c-0.1,0.2-0.1,0.4-0.1,0.6c0,0.2,0.1,0.4-0.1,0.7
				c0,0,0,0-0.1,0c0,0-0.1,0-0.1,0l-3.6-3.6C887.3,529.6,887.3,529.5,887.4,529.5z"/>
		</g>
		<path id="XMLID_215_" class="st8" d="M882.6,528.1l2.4-4.2c0.3-0.6,1.1-0.8,1.7-0.5l3.1,1.8l-3.7,6.3l-3.1-1.8
			C882.5,529.5,882.3,528.7,882.6,528.1z"/>
		<g id="XMLID_213_">
			<path id="XMLID_214_" class="st9" d="M886.5,523.3c0.1-0.2,0.3-0.2,0.5-0.2c0.2,0.1,0.3,0.3,0.2,0.5l-3.1,6.7
				c-0.1,0.2-0.3,0.3-0.5,0.2c-0.2-0.1-0.3-0.3-0.2-0.5L886.5,523.3C886.4,523.3,886.4,523.3,886.5,523.3z"/>
		</g>
		<g id="XMLID_211_">
			<path id="XMLID_212_" class="st9" d="M887.7,524.1c0.1-0.2,0.3-0.2,0.5-0.2c0.2,0.1,0.3,0.3,0.2,0.5l-3.1,6.7
				c-0.1,0.2-0.3,0.3-0.5,0.2c-0.2-0.1-0.3-0.3-0.2-0.5L887.7,524.1C887.7,524.1,887.7,524.1,887.7,524.1z"/>
		</g>
	</g>
	<g id="XMLID_219_">
		<circle id="XMLID_227_" class="st6" cx="923.6" cy="419.9" r="7.4"/>
		<g id="XMLID_225_">
			<path id="XMLID_226_" class="st7" d="M917,421.1C917,421.1,917,421.1,917,421.1c0-0.1,0.1-0.1,0.1-0.1l4.9,1.3
				c0-0.2-0.1-0.3-0.2-0.5c-0.1-0.2-0.3-0.3-0.3-0.7c0-0.3,0.1-0.5,0.3-0.7c0.1-0.2,0.2-0.3,0.2-0.6c0-0.3-0.1-0.4-0.2-0.6
				c-0.1-0.2-0.3-0.3-0.3-0.7c0-0.3,0.1-0.5,0.3-0.7c0.1-0.1,0.2-0.3,0.2-0.5l-4.9,1.3c0,0-0.1,0-0.1-0.1c0,0,0-0.1,0.1-0.1l5-1.3
				c0,0,0.1,0,0.1,0c0,0,0,0,0,0.1c0,0.3-0.1,0.5-0.3,0.7c-0.1,0.2-0.2,0.3-0.2,0.6s0.1,0.4,0.2,0.6c0.1,0.2,0.3,0.3,0.3,0.7
				c0,0.3-0.1,0.5-0.3,0.7c-0.1,0.2-0.2,0.3-0.2,0.6c0,0.3,0.1,0.4,0.2,0.6c0.1,0.2,0.3,0.3,0.3,0.7c0,0,0,0.1,0,0.1c0,0,0,0-0.1,0
				L917,421.1C917.1,421.2,917,421.2,917,421.1z"/>
		</g>
		<path id="XMLID_224_" class="st8" d="M912.3,422.3v-4.8c0-0.7,0.6-1.3,1.3-1.3h3.6v7.3h-3.6C912.8,423.6,912.3,423,912.3,422.3z"
			/>
		<g id="XMLID_222_">
			<path id="XMLID_223_" class="st9" d="M913.2,416.2c0-0.2,0.1-0.4,0.3-0.4c0.2,0,0.4,0.1,0.4,0.3l0.7,7.3c0,0.2-0.1,0.4-0.3,0.4
				c-0.2,0-0.4-0.1-0.4-0.3L913.2,416.2C913.2,416.3,913.2,416.2,913.2,416.2z"/>
		</g>
		<g id="XMLID_220_">
			<path id="XMLID_221_" class="st9" d="M914.7,416.2c0-0.2,0.1-0.4,0.3-0.4c0.2,0,0.4,0.1,0.4,0.3l0.7,7.3c0,0.2-0.1,0.4-0.3,0.4
				c-0.2,0-0.4-0.1-0.4-0.3L914.7,416.2C914.7,416.3,914.7,416.2,914.7,416.2z"/>
		</g>
	</g>
	<g id="XMLID_228_">
		<path id="XMLID_236_" class="st6" d="M897.4,314.5c-3.6,2.1-8.1,0.8-10.2-2.7c-2.1-3.6-0.8-8.1,2.7-10.2c3.6-2.1,8.1-0.8,10.2,2.7
			C902.1,307.9,900.9,312.5,897.4,314.5z"/>
		<g id="XMLID_234_">
			<path id="XMLID_235_" class="st7" d="M888.6,312.4C888.6,312.4,888.6,312.4,888.6,312.4c0-0.1,0-0.1,0.1-0.1l4.9-1.3
				c-0.1-0.2-0.3-0.2-0.4-0.3c-0.2-0.1-0.4-0.2-0.6-0.5c-0.2-0.3-0.1-0.5-0.1-0.7c0-0.2,0-0.4-0.1-0.6c-0.1-0.2-0.3-0.3-0.5-0.4
				c-0.2-0.1-0.4-0.2-0.6-0.5c-0.2-0.3-0.1-0.5-0.1-0.7c0-0.2,0-0.3,0-0.5l-3.6,3.6c0,0-0.1,0-0.1,0c0,0,0-0.1,0-0.1l3.6-3.6
				c0,0,0,0,0.1,0c0,0,0.1,0,0.1,0c0.2,0.3,0.1,0.5,0.1,0.7c0,0.2,0,0.4,0.1,0.6c0.1,0.2,0.3,0.3,0.5,0.4c0.2,0.1,0.4,0.2,0.6,0.5
				c0.2,0.3,0.1,0.5,0.1,0.7c0,0.2,0,0.4,0.1,0.6c0.1,0.2,0.3,0.3,0.5,0.4c0.2,0.1,0.4,0.2,0.6,0.5c0,0,0,0.1,0,0.1c0,0,0,0-0.1,0.1
				L888.6,312.4C888.6,312.5,888.6,312.5,888.6,312.4z"/>
		</g>
		<path id="XMLID_233_" class="st8" d="M885,315.8l-2.4-4.2c-0.3-0.6-0.1-1.4,0.5-1.7l3.1-1.8l3.7,6.3l-3.1,1.8
			C886.1,316.7,885.4,316.4,885,315.8z"/>
		<g id="XMLID_231_">
			<path id="XMLID_232_" class="st9" d="M882.8,310.1c-0.1-0.2-0.1-0.4,0.1-0.5c0.2-0.1,0.4-0.1,0.5,0.1l4.3,6
				c0.1,0.2,0.1,0.4-0.1,0.5c-0.2,0.1-0.4,0.1-0.5-0.1L882.8,310.1C882.8,310.2,882.8,310.1,882.8,310.1z"/>
		</g>
		<g id="XMLID_229_">
			<path id="XMLID_230_" class="st9" d="M884.1,309.4c-0.1-0.2-0.1-0.4,0.1-0.5c0.2-0.1,0.4-0.1,0.5,0.1l4.3,6
				c0.1,0.2,0.1,0.4-0.1,0.5c-0.2,0.1-0.4,0.1-0.5-0.1L884.1,309.4C884.1,309.4,884.1,309.4,884.1,309.4z"/>
		</g>
	</g>
	<g id="XMLID_237_">
		<path id="XMLID_245_" class="st6" d="M818.2,230c-2.1,3.6-6.6,4.8-10.2,2.7c-3.6-2.1-4.8-6.6-2.7-10.2c2.1-3.6,6.6-4.8,10.2-2.7
			C819.1,221.9,820.3,226.4,818.2,230z"/>
		<g id="XMLID_243_">
			<path id="XMLID_244_" class="st7" d="M809.6,232.5C809.6,232.5,809.6,232.5,809.6,232.5c-0.1,0-0.1-0.1,0-0.1l3.6-3.6
				c-0.2-0.1-0.3-0.1-0.5,0c-0.2,0-0.4,0.1-0.7-0.1c-0.3-0.2-0.4-0.4-0.5-0.6c-0.1-0.2-0.1-0.3-0.4-0.5c-0.2-0.1-0.4-0.1-0.6-0.1
				c-0.2,0-0.4,0.1-0.7-0.1c-0.3-0.2-0.4-0.4-0.5-0.6c-0.1-0.2-0.1-0.3-0.3-0.4l-1.3,4.9c0,0-0.1,0.1-0.1,0.1c0,0-0.1-0.1-0.1-0.1
				l1.3-5c0,0,0,0,0.1-0.1c0,0,0.1,0,0.1,0c0.3,0.2,0.4,0.4,0.5,0.6c0.1,0.2,0.1,0.3,0.4,0.5c0.2,0.1,0.4,0.1,0.6,0.1
				c0.2,0,0.4-0.1,0.7,0.1c0.3,0.2,0.4,0.4,0.5,0.6c0.1,0.2,0.1,0.3,0.4,0.5c0.2,0.1,0.4,0.1,0.6,0.1c0.2,0,0.4-0.1,0.7,0.1
				c0,0,0,0,0,0.1c0,0,0,0.1,0,0.1l-3.6,3.6C809.7,232.6,809.6,232.6,809.6,232.5z"/>
		</g>
		<path id="XMLID_242_" class="st8" d="M808.2,237.3l-4.2-2.4c-0.6-0.3-0.8-1.1-0.5-1.7l1.8-3.1l6.3,3.7l-1.8,3.1
			C809.6,237.4,808.8,237.6,808.2,237.3z"/>
		<g id="XMLID_240_">
			<path id="XMLID_241_" class="st9" d="M803.4,233.5c-0.2-0.1-0.2-0.3-0.2-0.5c0.1-0.2,0.3-0.3,0.5-0.2l6.7,3.1
				c0.2,0.1,0.3,0.3,0.2,0.5c-0.1,0.2-0.3,0.3-0.5,0.2L803.4,233.5C803.4,233.5,803.4,233.5,803.4,233.5z"/>
		</g>
		<g id="XMLID_238_">
			<path id="XMLID_239_" class="st9" d="M804.2,232.2c-0.2-0.1-0.2-0.3-0.2-0.5c0.1-0.2,0.3-0.3,0.5-0.2l6.7,3.1
				c0.2,0.1,0.3,0.3,0.2,0.5c-0.1,0.2-0.3,0.3-0.5,0.2L804.2,232.2C804.2,232.2,804.2,232.2,804.2,232.2z"/>
		</g>
	</g>
	<circle id="XMLID_1_" class="st10" cx="700" cy="419.9" r="213.5"/>
	
		<ellipse id="XMLID_4_" transform="matrix(0.7071 -0.7071 0.7071 0.7071 -91.8903 617.9612)" class="st11" cx="700" cy="419.9" rx="201.2" ry="201.2"/>
	<path id="XMLID_16_" class="st12" d="M650.5,235.1c-32.9,8.8-62.3,26.1-85.7,49.5L700,419.9L650.5,235.1z"/>
	<path id="XMLID_17_" class="st13" d="M564.7,284.6c-23.4,23.4-40.7,52.8-49.5,85.7L700,419.9L564.7,284.6z"/>
	<path id="XMLID_18_" class="st14" d="M749.5,235.1c-15.8-4.2-32.4-6.5-49.5-6.5s-33.7,2.3-49.5,6.5L700,419.9L749.5,235.1z"/>
	<path id="XMLID_19_" class="st15" d="M884.8,370.4c-8.8-32.9-26.1-62.3-49.5-85.7L700,419.9L884.8,370.4z"/>
	<path id="XMLID_20_" class="st16" d="M884.8,469.4c4.2-15.8,6.5-32.4,6.5-49.5c0-17.1-2.3-33.7-6.5-49.5L700,419.9L884.8,469.4z"/>
	<path id="XMLID_21_" class="st17" d="M835.3,284.6c-23.4-23.4-52.8-40.7-85.7-49.5L700,419.9L835.3,284.6z"/>
	<path id="XMLID_22_" class="st18" d="M515.2,370.4c-4.2,15.8-6.5,32.4-6.5,49.5c0,17.1,2.3,33.7,6.5,49.5L700,419.9L515.2,370.4z"
		/>
	<path id="XMLID_23_" class="st19" d="M700,419.9l135.3,135.3c23.4-23.4,40.7-52.8,49.5-85.7L700,419.9z"/>
	<path id="XMLID_24_" class="st20" d="M650.5,604.7c15.8,4.2,32.4,6.5,49.5,6.5s33.7-2.3,49.5-6.5L700,419.9L650.5,604.7z"/>
	<path id="XMLID_25_" class="st21" d="M749.5,604.7c32.9-8.8,62.3-26.1,85.7-49.5L700,419.9L749.5,604.7z"/>
	<path id="XMLID_26_" class="st22" d="M515.2,469.4c8.8,32.9,26.1,62.3,49.5,85.7L700,419.9L515.2,469.4z"/>
	<path id="XMLID_27_" class="st23" d="M564.7,555.2c23.4,23.4,52.8,40.7,85.7,49.5L700,419.9L564.7,555.2z"/>
	<circle id="XMLID_2_" class="st11" cx="700" cy="419.9" r="16.8"/>
	
		<ellipse id="XMLID_3_" transform="matrix(0.8801 -0.4747 0.4747 0.8801 -115.4307 382.6138)" class="st24" cx="700" cy="419.9" rx="11" ry="11"/>
	<g id="XMLID_9_">
		<path id="XMLID_5_" class="st25" d="M706.6,218.7c0,3.7-3,6.6-6.6,6.6c-3.7,0-6.6-3-6.6-6.6c0-3.7,3-6.6,6.6-6.6
			C703.7,212.1,706.6,215,706.6,218.7z"/>
		<path id="XMLID_8_" class="st26" d="M705.9,218.7c0,3.3-2.6,5.9-5.9,5.9c-3.3,0-5.9-2.6-5.9-5.9c0-3.3,2.6-5.9,5.9-5.9
			C703.3,212.8,705.9,215.5,705.9,218.7z"/>
		<path id="XMLID_6_" class="st27" d="M705.1,218.7c0,2.8-2.3,5.1-5.1,5.1c-2.8,0-5.1-2.3-5.1-5.1c0-2.8,2.3-5.1,5.1-5.1
			C702.8,213.6,705.1,215.9,705.1,218.7z"/>
		<path id="XMLID_7_" class="st6" d="M703.3,219.3c-0.9-0.1-1.1-1.1-3.3-1.1c-2.2,0-2.4,1-3.3,1.1c-1.2,0.2-1-4.4,3.3-4.5
			C704.3,214.9,704.5,219.5,703.3,219.3z"/>
	</g>
	<g id="XMLID_11_">
		<path id="XMLID_15_" class="st25" d="M653.7,228.9c-1.8,3.2-5.9,4.3-9.1,2.4c-3.2-1.8-4.3-5.9-2.4-9.1c1.8-3.2,5.9-4.3,9.1-2.4
			C654.4,221.7,655.5,225.7,653.7,228.9z"/>
		<path id="XMLID_14_" class="st26" d="M653,228.5c-1.6,2.8-5.2,3.8-8,2.2c-2.8-1.6-3.8-5.2-2.2-8c1.6-2.8,5.2-3.8,8-2.2
			C653.7,222.1,654.7,225.7,653,228.5z"/>
		<path id="XMLID_13_" class="st27" d="M652.4,228.1c-1.4,2.4-4.5,3.3-7,1.9c-2.4-1.4-3.3-4.5-1.9-7c1.4-2.4,4.5-3.3,7-1.9
			C652.9,222.6,653.8,225.7,652.4,228.1z"/>
		<path id="XMLID_12_" class="st6" d="M650.5,227.7c-0.7-0.5-0.4-1.5-2.3-2.6c-1.9-1.1-2.6-0.4-3.4-0.7c-1.1-0.4,1.3-4.3,5.1-2.2
			C653.6,224.4,651.4,228.5,650.5,227.7z"/>
	</g>
	<g id="XMLID_28_">
		<path id="XMLID_32_" class="st25" d="M605.8,247.4c-0.9,3.5-4.6,5.6-8.1,4.7c-3.5-0.9-5.6-4.6-4.7-8.1c0.9-3.5,4.6-5.6,8.1-4.7
			C604.7,240.2,606.8,243.8,605.8,247.4z"/>
		<path id="XMLID_31_" class="st26" d="M605.1,247.2c-0.8,3.1-4.1,5-7.2,4.2c-3.1-0.8-5-4.1-4.2-7.2c0.8-3.1,4.1-5,7.2-4.2
			C604.1,240.8,605.9,244.1,605.1,247.2z"/>
		<path id="XMLID_30_" class="st27" d="M604.4,247c-0.7,2.7-3.5,4.4-6.3,3.6c-2.7-0.7-4.4-3.5-3.6-6.3c0.7-2.7,3.5-4.4,6.3-3.6
			C603.5,241.5,605.1,244.3,604.4,247z"/>
		<path id="XMLID_29_" class="st6" d="M602.5,247.1c-0.8-0.3-0.8-1.4-2.9-1.9c-2.1-0.6-2.6,0.3-3.5,0.2c-1.2-0.1,0.2-4.5,4.4-3.5
			C604.6,243.1,603.5,247.6,602.5,247.1z"/>
	</g>
	<g id="XMLID_33_">
		<path id="XMLID_37_" class="st25" d="M564.4,277.6c0,3.7-3,6.6-6.6,6.6c-3.7,0-6.6-3-6.6-6.6c0-3.7,3-6.6,6.6-6.6
			C561.4,271,564.4,274,564.4,277.6z"/>
		<path id="XMLID_36_" class="st26" d="M563.6,277.6c0,3.3-2.6,5.9-5.9,5.9c-3.3,0-5.9-2.6-5.9-5.9c0-3.3,2.6-5.9,5.9-5.9
			C561,271.8,563.6,274.4,563.6,277.6z"/>
		<path id="XMLID_35_" class="st27" d="M562.9,277.6c0,2.8-2.3,5.1-5.1,5.1c-2.8,0-5.1-2.3-5.1-5.1c0-2.8,2.3-5.1,5.1-5.1
			C560.6,272.5,562.9,274.8,562.9,277.6z"/>
		<path id="XMLID_34_" class="st6" d="M561.1,278.2c-0.9-0.1-1.1-1.1-3.3-1.1c-2.2,0-2.4,1-3.3,1.1c-1.2,0.2-1-4.4,3.3-4.5
			C562,273.8,562.2,278.4,561.1,278.2z"/>
	</g>
	<g id="XMLID_38_">
		<path id="XMLID_42_" class="st25" d="M531.5,322.6c-1.8,3.2-5.9,4.3-9.1,2.4c-3.2-1.8-4.3-5.9-2.4-9.1c1.8-3.2,5.9-4.3,9.1-2.4
			C532.3,315.4,533.4,319.5,531.5,322.6z"/>
		<path id="XMLID_41_" class="st26" d="M530.9,322.3c-1.6,2.8-5.2,3.8-8,2.2c-2.8-1.6-3.8-5.2-2.2-8c1.6-2.8,5.2-3.8,8-2.2
			C531.5,315.8,532.5,319.4,530.9,322.3z"/>
		<path id="XMLID_40_" class="st27" d="M530.2,321.9c-1.4,2.4-4.5,3.3-7,1.9c-2.4-1.4-3.3-4.5-1.9-7c1.4-2.4,4.5-3.3,7-1.9
			C530.8,316.3,531.6,319.4,530.2,321.9z"/>
		<path id="XMLID_39_" class="st6" d="M528.4,321.5c-0.7-0.5-0.4-1.5-2.3-2.6c-1.9-1.1-2.6-0.4-3.4-0.7c-1.1-0.4,1.3-4.3,5.1-2.2
			C531.4,318.2,529.3,322.2,528.4,321.5z"/>
	</g>
	<g id="XMLID_43_">
		<circle id="XMLID_47_" class="st25" cx="505.7" cy="367.8" r="6.6"/>
		<path id="XMLID_46_" class="st26" d="M511.4,369.4c-0.8,3.1-4.1,5-7.2,4.2s-5-4.1-4.2-7.2c0.8-3.1,4.1-5,7.2-4.2
			S512.2,366.2,511.4,369.4z"/>
		<path id="XMLID_45_" class="st27" d="M510.6,369.2c-0.7,2.7-3.5,4.4-6.3,3.6c-2.7-0.7-4.4-3.5-3.6-6.3c0.7-2.7,3.5-4.4,6.3-3.6
			C509.7,363.6,511.3,366.4,510.6,369.2z"/>
		<path id="XMLID_44_" class="st6" d="M508.7,369.2c-0.8-0.3-0.8-1.4-2.9-1.9c-2.1-0.6-2.6,0.3-3.5,0.2c-1.2-0.1,0.2-4.5,4.4-3.5
			C510.8,365.3,509.8,369.7,508.7,369.2z"/>
	</g>
	<g id="XMLID_48_">
		<circle id="XMLID_52_" class="st25" cx="498.8" cy="419.9" r="6.6"/>
		<path id="XMLID_51_" class="st26" d="M504.7,419.9c0,3.3-2.6,5.9-5.9,5.9c-3.3,0-5.9-2.6-5.9-5.9s2.6-5.9,5.9-5.9
			C502.1,414,504.7,416.6,504.7,419.9z"/>
		<path id="XMLID_50_" class="st27" d="M503.9,419.9c0,2.8-2.3,5.1-5.1,5.1c-2.8,0-5.1-2.3-5.1-5.1s2.3-5.1,5.1-5.1
			C501.6,414.8,503.9,417.1,503.9,419.9z"/>
		<path id="XMLID_49_" class="st6" d="M502.1,420.5c-0.9-0.1-1.1-1.1-3.3-1.1c-2.2,0-2.4,1-3.3,1.1c-1.2,0.2-1-4.4,3.3-4.5
			C503.1,416.1,503.3,420.7,502.1,420.5z"/>
	</g>
	<g id="XMLID_53_">
		<path id="XMLID_57_" class="st25" d="M511.4,475.3c-1.8,3.2-5.9,4.3-9.1,2.4c-3.2-1.8-4.3-5.9-2.4-9.1c1.8-3.2,5.9-4.3,9.1-2.4
			C512.2,468.1,513.3,472.1,511.4,475.3z"/>
		<path id="XMLID_56_" class="st26" d="M510.8,474.9c-1.6,2.8-5.2,3.8-8,2.2c-2.8-1.6-3.8-5.2-2.2-8c1.6-2.8,5.2-3.8,8-2.2
			S512.4,472.1,510.8,474.9z"/>
		<path id="XMLID_55_" class="st27" d="M510.1,474.5c-1.4,2.4-4.5,3.3-7,1.9c-2.4-1.4-3.3-4.5-1.9-7c1.4-2.4,4.5-3.3,7-1.9
			C510.7,469,511.5,472.1,510.1,474.5z"/>
		<path id="XMLID_54_" class="st6" d="M508.3,474.1c-0.7-0.5-0.4-1.5-2.3-2.6c-1.9-1.1-2.6-0.4-3.4-0.7c-1.1-0.4,1.3-4.3,5.1-2.2
			C511.3,470.8,509.2,474.9,508.3,474.1z"/>
	</g>
	<g id="XMLID_58_">
		<path id="XMLID_62_" class="st25" d="M532.2,522.2c-0.9,3.5-4.6,5.6-8.1,4.7c-3.5-0.9-5.6-4.6-4.7-8.1c0.9-3.5,4.6-5.6,8.1-4.7
			C531,515,533.1,518.7,532.2,522.2z"/>
		<path id="XMLID_61_" class="st26" d="M531.5,522c-0.8,3.1-4.1,5-7.2,4.2c-3.1-0.8-5-4.1-4.2-7.2c0.8-3.1,4.1-5,7.2-4.2
			C530.4,515.6,532.3,518.9,531.5,522z"/>
		<path id="XMLID_60_" class="st27" d="M530.7,521.8c-0.7,2.7-3.5,4.4-6.3,3.6s-4.4-3.5-3.6-6.3c0.7-2.7,3.5-4.4,6.3-3.6
			S531.4,519.1,530.7,521.8z"/>
		<path id="XMLID_59_" class="st6" d="M528.8,521.9c-0.8-0.3-0.8-1.4-2.9-1.9s-2.6,0.3-3.5,0.2c-1.2-0.1,0.2-4.5,4.4-3.5
			C530.9,517.9,529.9,522.4,528.8,521.9z"/>
	</g>
	<g id="XMLID_63_">
		<path id="XMLID_67_" class="st25" d="M564.4,562.2c0,3.7-3,6.6-6.6,6.6c-3.7,0-6.6-3-6.6-6.6c0-3.7,3-6.6,6.6-6.6
			C561.4,555.5,564.4,558.5,564.4,562.2z"/>
		<path id="XMLID_66_" class="st26" d="M563.6,562.2c0,3.3-2.6,5.9-5.9,5.9c-3.3,0-5.9-2.6-5.9-5.9c0-3.3,2.6-5.9,5.9-5.9
			C561,556.3,563.6,558.9,563.6,562.2z"/>
		<path id="XMLID_65_" class="st27" d="M562.9,562.2c0,2.8-2.3,5.1-5.1,5.1c-2.8,0-5.1-2.3-5.1-5.1c0-2.8,2.3-5.1,5.1-5.1
			C560.6,557,562.9,559.3,562.9,562.2z"/>
		<path id="XMLID_64_" class="st6" d="M561.1,562.7c-0.9-0.1-1.1-1.1-3.3-1.1c-2.2,0-2.4,1-3.3,1.1c-1.2,0.2-1-4.4,3.3-4.5
			C562,558.3,562.2,562.9,561.1,562.7z"/>
	</g>
	<g id="XMLID_68_">
		<path id="XMLID_72_" class="st25" d="M605.2,597.5c-1.8,3.2-5.9,4.3-9.1,2.4c-3.2-1.8-4.3-5.9-2.4-9.1c1.8-3.2,5.9-4.3,9.1-2.4
			C605.9,590.2,607,594.3,605.2,597.5z"/>
		<path id="XMLID_71_" class="st26" d="M604.5,597.1c-1.6,2.8-5.2,3.8-8,2.2c-2.8-1.6-3.8-5.2-2.2-8c1.6-2.8,5.2-3.8,8-2.2
			C605.2,590.7,606.1,594.3,604.5,597.1z"/>
		<path id="XMLID_70_" class="st27" d="M603.8,596.7c-1.4,2.4-4.5,3.3-7,1.9c-2.4-1.4-3.3-4.5-1.9-7c1.4-2.4,4.5-3.3,7-1.9
			C604.4,591.1,605.3,594.2,603.8,596.7z"/>
		<path id="XMLID_69_" class="st6" d="M602,596.3c-0.7-0.5-0.4-1.5-2.3-2.6c-1.9-1.1-2.6-0.4-3.4-0.7c-1.1-0.4,1.3-4.3,5.1-2.2
			C605,593,602.9,597,602,596.3z"/>
	</g>
	<g id="XMLID_73_">
		
			<ellipse id="XMLID_77_" transform="matrix(0.136 -0.9907 0.9907 0.136 -48.7274 1172.5891)" class="st25" cx="647.9" cy="614.2" rx="6.6" ry="6.6"/>
		<path id="XMLID_76_" class="st26" d="M653.6,615.8c-0.8,3.1-4.1,5-7.2,4.2c-3.1-0.8-5-4.1-4.2-7.2c0.8-3.1,4.1-5,7.2-4.2
			C652.6,609.4,654.5,612.6,653.6,615.8z"/>
		<path id="XMLID_75_" class="st27" d="M652.9,615.6c-0.7,2.7-3.5,4.4-6.3,3.6c-2.7-0.7-4.4-3.5-3.6-6.3c0.7-2.7,3.5-4.4,6.3-3.6
			C652,610,653.6,612.8,652.9,615.6z"/>
		<path id="XMLID_74_" class="st6" d="M651,615.6c-0.8-0.3-0.8-1.4-2.9-1.9c-2.1-0.6-2.6,0.3-3.5,0.2c-1.2-0.1,0.2-4.5,4.4-3.5
			C653.1,611.7,652.1,616.1,651,615.6z"/>
	</g>
	<g id="XMLID_78_">
		<path id="XMLID_82_" class="st25" d="M706.6,621.1c0,3.7-3,6.6-6.6,6.6c-3.7,0-6.6-3-6.6-6.6c0-3.7,3-6.6,6.6-6.6
			C703.7,614.4,706.6,617.4,706.6,621.1z"/>
		<path id="XMLID_81_" class="st26" d="M705.9,621.1c0,3.3-2.6,5.9-5.9,5.9c-3.3,0-5.9-2.6-5.9-5.9c0-3.3,2.6-5.9,5.9-5.9
			C703.3,615.2,705.9,617.8,705.9,621.1z"/>
		<circle id="XMLID_80_" class="st27" cx="700" cy="621.1" r="5.1"/>
		<path id="XMLID_79_" class="st6" d="M703.3,621.6c-0.9-0.1-1.1-1.1-3.3-1.1c-2.2,0-2.4,1-3.3,1.1c-1.2,0.2-1-4.4,3.3-4.5
			C704.3,617.3,704.5,621.9,703.3,621.6z"/>
	</g>
	<g id="XMLID_83_">
		
			<ellipse id="XMLID_87_" transform="matrix(0.664 -0.7478 0.7478 0.664 -206.5801 768.7637)" class="st25" cx="752.1" cy="614.2" rx="6.6" ry="6.6"/>
		<path id="XMLID_86_" class="st26" d="M757.8,612.7c0.8,3.1-1,6.4-4.2,7.2c-3.1,0.8-6.4-1-7.2-4.2c-0.8-3.1,1-6.4,4.2-7.2
			C753.7,607.7,756.9,609.6,757.8,612.7z"/>
		<path id="XMLID_85_" class="st27" d="M757,612.9c0.7,2.7-0.9,5.5-3.6,6.3c-2.7,0.7-5.5-0.9-6.3-3.6s0.9-5.5,3.6-6.3
			C753.5,608.6,756.3,610.2,757,612.9z"/>
		<path id="XMLID_84_" class="st6" d="M755.4,613.9c-0.9,0.1-1.4-0.8-3.5-0.2c-2.1,0.6-2.1,1.6-2.9,1.9c-1.1,0.5-2.1-4,2.1-5.2
			C755.2,609.4,756.6,613.8,755.4,613.9z"/>
	</g>
	<g id="XMLID_88_">
		<path id="XMLID_92_" class="st25" d="M806.3,590.8c1.8,3.2,0.7,7.2-2.4,9.1c-3.2,1.8-7.2,0.7-9.1-2.4c-1.8-3.2-0.7-7.2,2.4-9.1
			C800.4,586.5,804.5,587.6,806.3,590.8z"/>
		<path id="XMLID_91_" class="st26" d="M805.7,591.2c1.6,2.8,0.7,6.4-2.2,8c-2.8,1.6-6.4,0.7-8-2.2c-1.6-2.8-0.7-6.4,2.2-8
			C800.5,587.4,804.1,588.4,805.7,591.2z"/>
		<path id="XMLID_90_" class="st27" d="M805,591.6c1.4,2.4,0.6,5.6-1.9,7c-2.4,1.4-5.6,0.6-7-1.9s-0.6-5.6,1.9-7
			C800.5,588.3,803.6,589.1,805,591.6z"/>
		<path id="XMLID_89_" class="st6" d="M803.8,592.9c-0.8,0.3-1.5-0.4-3.4,0.7c-1.9,1.1-1.6,2.1-2.3,2.6c-0.9,0.8-3-3.3,0.6-5.5
			C802.4,588.7,804.9,592.6,803.8,592.9z"/>
	</g>
	<g id="XMLID_93_">
		<path id="XMLID_97_" class="st25" d="M848.9,562.2c0,3.7-3,6.6-6.6,6.6c-3.7,0-6.6-3-6.6-6.6c0-3.7,3-6.6,6.6-6.6
			C845.9,555.5,848.9,558.5,848.9,562.2z"/>
		<path id="XMLID_96_" class="st26" d="M848.1,562.2c0,3.3-2.6,5.9-5.9,5.9c-3.3,0-5.9-2.6-5.9-5.9c0-3.3,2.6-5.9,5.9-5.9
			C845.5,556.3,848.1,558.9,848.1,562.2z"/>
		<path id="XMLID_95_" class="st27" d="M847.4,562.2c0,2.8-2.3,5.1-5.1,5.1c-2.8,0-5.1-2.3-5.1-5.1c0-2.8,2.3-5.1,5.1-5.1
			C845.1,557,847.4,559.3,847.4,562.2z"/>
		<path id="XMLID_94_" class="st6" d="M845.6,562.7c-0.9-0.1-1.1-1.1-3.3-1.1c-2.2,0-2.4,1-3.3,1.1c-1.2,0.2-1-4.4,3.3-4.5
			C846.6,558.3,846.7,562.9,845.6,562.7z"/>
	</g>
	<g id="XMLID_98_">
		
			<ellipse id="XMLID_102_" transform="matrix(0.9921 -0.1255 0.1255 0.9921 -58.3956 113.7981)" class="st25" cx="874.2" cy="520.5" rx="6.6" ry="6.6"/>
		<path id="XMLID_101_" class="st26" d="M879.9,519c0.8,3.1-1,6.4-4.2,7.2c-3.1,0.8-6.4-1-7.2-4.2c-0.8-3.1,1-6.4,4.2-7.2
			C875.8,514,879.1,515.8,879.9,519z"/>
		<path id="XMLID_100_" class="st27" d="M879.2,519.2c0.7,2.7-0.9,5.5-3.6,6.3s-5.5-0.9-6.3-3.6c-0.7-2.7,0.9-5.5,3.6-6.3
			C875.6,514.8,878.4,516.4,879.2,519.2z"/>
		<path id="XMLID_99_" class="st6" d="M877.6,520.2c-0.9,0.1-1.4-0.8-3.5-0.2c-2.1,0.6-2.1,1.6-2.9,1.9c-1.1,0.5-2.1-4,2.1-5.2
			C877.4,515.7,878.8,520.1,877.6,520.2z"/>
	</g>
	<g id="XMLID_103_">
		<path id="XMLID_107_" class="st25" d="M900.1,468.7c1.8,3.2,0.7,7.2-2.4,9.1c-3.2,1.8-7.2,0.7-9.1-2.4s-0.7-7.2,2.4-9.1
			C894.2,464.4,898.2,465.5,900.1,468.7z"/>
		<path id="XMLID_106_" class="st26" d="M899.4,469c1.6,2.8,0.7,6.4-2.2,8c-2.8,1.6-6.4,0.7-8-2.2c-1.6-2.8-0.7-6.4,2.2-8
			S897.8,466.2,899.4,469z"/>
		<path id="XMLID_105_" class="st27" d="M898.8,469.4c1.4,2.4,0.6,5.6-1.9,7c-2.4,1.4-5.6,0.6-7-1.9c-1.4-2.4-0.6-5.6,1.9-7
			C894.2,466.1,897.4,467,898.8,469.4z"/>
		<path id="XMLID_104_" class="st6" d="M897.5,470.8c-0.8,0.3-1.5-0.4-3.4,0.7c-1.9,1.1-1.6,2.1-2.3,2.6c-0.9,0.8-3-3.3,0.6-5.5
			C896.1,466.5,898.6,470.4,897.5,470.8z"/>
	</g>
	<g id="XMLID_108_">
		<path id="XMLID_112_" class="st25" d="M907.8,419.9c0,3.7-3,6.6-6.6,6.6c-3.7,0-6.6-3-6.6-6.6c0-3.7,3-6.6,6.6-6.6
			C904.9,413.3,907.8,416.2,907.8,419.9z"/>
		<path id="XMLID_111_" class="st26" d="M907.1,419.9c0,3.3-2.6,5.9-5.9,5.9c-3.3,0-5.9-2.6-5.9-5.9c0-3.3,2.6-5.9,5.9-5.9
			C904.4,414,907.1,416.6,907.1,419.9z"/>
		<path id="XMLID_110_" class="st27" d="M906.3,419.9c0,2.8-2.3,5.1-5.1,5.1c-2.8,0-5.1-2.3-5.1-5.1s2.3-5.1,5.1-5.1
			C904,414.8,906.3,417.1,906.3,419.9z"/>
		<path id="XMLID_109_" class="st6" d="M904.5,420.5c-0.9-0.1-1.1-1.1-3.3-1.1s-2.4,1-3.3,1.1c-1.2,0.2-1-4.4,3.3-4.5
			C905.5,416.1,905.7,420.7,904.5,420.5z"/>
	</g>
	<g id="XMLID_113_">
		<path id="XMLID_117_" class="st25" d="M900.7,366.1c0.9,3.5-1.2,7.2-4.7,8.1c-3.5,0.9-7.2-1.2-8.1-4.7c-0.9-3.5,1.2-7.2,4.7-8.1
			C896.2,360.5,899.8,362.6,900.7,366.1z"/>
		<path id="XMLID_116_" class="st26" d="M900,366.3c0.8,3.1-1,6.4-4.2,7.2c-3.1,0.8-6.4-1-7.2-4.2c-0.8-3.1,1-6.4,4.2-7.2
			C895.9,361.3,899.2,363.2,900,366.3z"/>
		<path id="XMLID_115_" class="st27" d="M899.3,366.5c0.7,2.7-0.9,5.5-3.6,6.3c-2.7,0.7-5.5-0.9-6.3-3.6c-0.7-2.7,0.9-5.5,3.6-6.3
			C895.7,362.2,898.5,363.8,899.3,366.5z"/>
		<path id="XMLID_114_" class="st6" d="M897.7,367.5c-0.9,0.1-1.4-0.8-3.5-0.2c-2.1,0.6-2.1,1.6-2.9,1.9c-1.1,0.5-2.1-4,2.1-5.2
			C897.5,363,898.9,367.4,897.7,367.5z"/>
	</g>
	<g id="XMLID_118_">
		<path id="XMLID_122_" class="st25" d="M880,316c1.8,3.2,0.7,7.2-2.4,9.1c-3.2,1.8-7.2,0.7-9.1-2.4c-1.8-3.2-0.7-7.2,2.4-9.1
			C874.1,311.7,878.1,312.8,880,316z"/>
		<path id="XMLID_121_" class="st26" d="M879.3,316.4c1.6,2.8,0.7,6.4-2.2,8c-2.8,1.6-6.4,0.7-8-2.2c-1.6-2.8-0.7-6.4,2.2-8
			C874.1,312.6,877.7,313.5,879.3,316.4z"/>
		<path id="XMLID_120_" class="st27" d="M878.7,316.7c1.4,2.4,0.6,5.6-1.9,7c-2.4,1.4-5.6,0.6-7-1.9c-1.4-2.4-0.6-5.6,1.9-7
			C874.1,313.5,877.3,314.3,878.7,316.7z"/>
		<path id="XMLID_119_" class="st6" d="M877.4,318.1c-0.8,0.3-1.5-0.4-3.4,0.7c-1.9,1.1-1.6,2.1-2.3,2.6c-0.9,0.8-3-3.3,0.6-5.5
			C876,313.9,878.5,317.7,877.4,318.1z"/>
	</g>
	<g id="XMLID_123_">
		<path id="XMLID_127_" class="st25" d="M848.9,277.6c0,3.7-3,6.6-6.6,6.6c-3.7,0-6.6-3-6.6-6.6c0-3.7,3-6.6,6.6-6.6
			C845.9,271,848.9,274,848.9,277.6z"/>
		<path id="XMLID_126_" class="st26" d="M848.1,277.6c0,3.3-2.6,5.9-5.9,5.9c-3.3,0-5.9-2.6-5.9-5.9c0-3.3,2.6-5.9,5.9-5.9
			C845.5,271.8,848.1,274.4,848.1,277.6z"/>
		<path id="XMLID_125_" class="st27" d="M847.4,277.6c0,2.8-2.3,5.1-5.1,5.1c-2.8,0-5.1-2.3-5.1-5.1c0-2.8,2.3-5.1,5.1-5.1
			C845.1,272.5,847.4,274.8,847.4,277.6z"/>
		<path id="XMLID_124_" class="st6" d="M845.6,278.2c-0.9-0.1-1.1-1.1-3.3-1.1c-2.2,0-2.4,1-3.3,1.1c-1.2,0.2-1-4.4,3.3-4.5
			C846.6,273.8,846.7,278.4,845.6,278.2z"/>
	</g>
	<g id="XMLID_128_">
		<path id="XMLID_132_" class="st25" d="M807,244c0.9,3.5-1.2,7.2-4.7,8.1c-3.5,0.9-7.2-1.2-8.1-4.7c-0.9-3.5,1.2-7.2,4.7-8.1
			C802.4,238.3,806.1,240.4,807,244z"/>
		<path id="XMLID_131_" class="st26" d="M806.3,244.1c0.8,3.1-1,6.4-4.2,7.2c-3.1,0.8-6.4-1-7.2-4.2c-0.8-3.1,1-6.4,4.2-7.2
			C802.2,239.1,805.4,241,806.3,244.1z"/>
		<path id="XMLID_130_" class="st27" d="M805.5,244.3c0.7,2.7-0.9,5.5-3.6,6.3c-2.7,0.7-5.5-0.9-6.3-3.6c-0.7-2.7,0.9-5.5,3.6-6.3
			C802,240,804.8,241.6,805.5,244.3z"/>
		<path id="XMLID_129_" class="st6" d="M804,245.3c-0.9,0.1-1.4-0.8-3.5-0.2c-2.1,0.6-2.1,1.6-2.9,1.9c-1.1,0.5-2.1-4,2.1-5.2
			C803.8,240.9,805.1,245.2,804,245.3z"/>
	</g>
	<g id="XMLID_133_">
		<path id="XMLID_137_" class="st25" d="M757.8,222.3c1.8,3.2,0.7,7.2-2.4,9.1c-3.2,1.8-7.2,0.7-9.1-2.4c-1.8-3.2-0.7-7.2,2.4-9.1
			C751.9,218,756,219.1,757.8,222.3z"/>
		<path id="XMLID_136_" class="st26" d="M757.2,222.6c1.6,2.8,0.7,6.4-2.2,8c-2.8,1.6-6.4,0.7-8-2.2c-1.6-2.8-0.7-6.4,2.2-8
			C751.9,218.8,755.5,219.8,757.2,222.6z"/>
		<path id="XMLID_135_" class="st27" d="M756.5,223c1.4,2.4,0.6,5.6-1.9,7c-2.4,1.4-5.6,0.6-7-1.9c-1.4-2.4-0.6-5.6,1.9-7
			C752,219.7,755.1,220.6,756.5,223z"/>
		<path id="XMLID_134_" class="st6" d="M755.2,224.4c-0.8,0.3-1.5-0.4-3.4,0.7c-1.9,1.1-1.6,2.1-2.3,2.6c-0.9,0.8-3-3.3,0.6-5.5
			C753.9,220.1,756.3,224,755.2,224.4z"/>
	</g>
	<path id="XMLID_495_" class="st6" d="M700,181.4c30.5,0,60.3,2.9,89.2,8.2c7,1.3,13.8-3,15.6-9.9l17.8-66.4c2-7.4-2.5-15-10-16.8
		C776.4,88,738.7,83.4,700,83.4c-38.7,0-76.4,4.5-112.6,13.1c-7.5,1.8-12,9.4-10,16.8l17.8,66.4c1.8,6.9,8.6,11.2,15.6,9.9
		C639.7,184.2,669.5,181.4,700,181.4z"/>
	<path id="XMLID_497_" class="st5" d="M700,181.4c-25.2,0-50,2-74.2,5.7v7.8c24.6-3.7,49.4-5.6,74.2-5.6s49.6,1.9,74.2,5.6V187
		C750,183.3,725.2,181.4,700,181.4z"/>
	<path id="XMLID_250_" class="st27" d="M791.6,185.9c-0.6,0-1.2-0.1-1.8-0.2c-29.6-5.5-59.9-8.3-89.9-8.3s-60.3,2.8-89.9,8.3
		c-0.6,0.1-1.2,0.2-1.8,0.2h0c-4.4,0-8.2-3-9.3-7.2l-17.8-66.4c-0.7-2.6-0.3-5.2,1-7.5c1.4-2.3,3.5-3.8,6.1-4.5
		c36.4-8.6,74-13,111.7-13s75.2,4.4,111.7,13c2.6,0.6,4.7,2.2,6.1,4.5c1.4,2.3,1.7,4.9,1,7.5L801,178.7
		C799.8,182.9,796,185.9,791.6,185.9z"/>
	<path id="XMLID_382_" class="st28" d="M791.6,182c-0.3,0-0.7,0-1.1-0.1c-29.9-5.5-60.3-8.4-90.6-8.4s-60.7,2.8-90.6,8.4
		c-0.3,0.1-0.7,0.1-1.1,0.1c-2.6,0-4.9-1.8-5.6-4.3L585,111.3c-0.4-1.5-0.2-3.1,0.6-4.5c0.8-1.3,2.1-2.3,3.6-2.6
		c36.1-8.6,73.4-12.9,110.8-12.9s74.6,4.3,110.8,12.9c1.5,0.4,2.8,1.3,3.6,2.6c0.8,1.4,1,3,0.6,4.5l-17.8,66.4
		C796.5,180.2,794.2,182,791.6,182z"/>
	<path id="XMLID_498_" class="st29" d="M608.4,182c0.3,0,0.7,0,1.1-0.1c29.9-5.5,60.3-8.4,90.6-8.4s60.7,2.8,90.6,8.4
		c0.3,0.1,0.7,0.1,1.1,0.1c2.6,0,4.9-1.8,5.6-4.3l17.7-65.9c-0.1-0.4-0.3-0.7-0.5-1c-0.8-1.3-2.1-2.3-3.6-2.6
		c-36.1-8.6-73.4-12.9-110.8-12.9s-74.6,4.3-110.8,12.9c-1.5,0.4-2.8,1.3-3.6,2.6c-0.2,0.3-0.4,0.7-0.5,1.1l17.7,65.9
		C603.5,180.2,605.8,182,608.4,182z"/>
	<g id="XMLID_643_">
		<path id="XMLID_644_" class="st9" d="M613.3,141.4l-2.9,0.5l-2.2-14.1l8.1-1.3l0.4,2.4l-5.1,0.8l0.6,3.6l4.8-0.7l0.4,2.4l-4.8,0.7
			L613.3,141.4z"/>
		<path id="XMLID_646_" class="st9" d="M634.5,131.2c0.3,2.3,0,4.2-1,5.6c-1,1.4-2.6,2.3-4.7,2.5c-2.2,0.3-3.9-0.1-5.2-1.2
			c-1.3-1.1-2.1-2.8-2.4-5.2c-0.3-2.3,0-4.2,1-5.6c1-1.4,2.6-2.2,4.8-2.5c2.2-0.3,3.9,0.1,5.2,1.2
			C633.4,127.1,634.2,128.9,634.5,131.2z M624.2,132.6c0.2,1.6,0.7,2.7,1.4,3.4c0.7,0.7,1.6,1,2.8,0.8c2.4-0.3,3.4-2.1,3-5.2
			c-0.4-3.2-1.8-4.6-4.2-4.3c-1.2,0.2-2,0.7-2.5,1.6C624.1,129.7,624,131,624.2,132.6z"/>
		<path id="XMLID_649_" class="st9" d="M642.2,132.1l0.6,5.4l-3,0.3l-1.5-14.2l4.1-0.4c1.9-0.2,3.4,0,4.4,0.6c1,0.6,1.6,1.6,1.7,3
			c0.1,0.8-0.1,1.6-0.5,2.3c-0.4,0.7-1,1.3-1.8,1.7c2.5,3,4.1,4.9,4.8,5.7l-3.3,0.3l-3.9-5.1L642.2,132.1z M641.9,129.6l1-0.1
			c0.9-0.1,1.6-0.3,2.1-0.7c0.4-0.4,0.6-0.9,0.5-1.6c-0.1-0.7-0.3-1.1-0.8-1.4c-0.5-0.2-1.2-0.3-2.2-0.2l-0.9,0.1L641.9,129.6z"/>
		<path id="XMLID_652_" class="st9" d="M659.7,136l-3,0.2l-0.9-11.7l-3.9,0.3l-0.2-2.5l10.7-0.8l0.2,2.5l-3.9,0.3L659.7,136z"/>
		<path id="XMLID_654_" class="st9" d="M678,120.6l0.5,9.2c0.1,1.1-0.1,2-0.6,2.8c-0.4,0.8-1.1,1.5-1.9,1.9
			c-0.9,0.5-1.9,0.7-3.1,0.8c-1.8,0.1-3.3-0.3-4.3-1.2c-1.1-0.9-1.6-2.1-1.7-3.8l-0.5-9.2l3-0.2l0.5,8.7c0.1,1.1,0.3,1.9,0.8,2.4
			c0.5,0.5,1.2,0.7,2.2,0.7c1-0.1,1.7-0.3,2.1-0.9c0.4-0.5,0.6-1.4,0.5-2.5l-0.5-8.7L678,120.6z"/>
		<path id="XMLID_656_" class="st9" d="M696.2,134.3l-3.8,0.1l-6.5-10.6l-0.1,0c0.2,1.9,0.3,3.3,0.3,4.1l0.2,6.7l-2.7,0.1l-0.3-14.2
			l3.8-0.1l6.4,10.5l0.1,0c-0.1-1.8-0.2-3.2-0.2-3.9l-0.2-6.7l2.7-0.1L696.2,134.3z"/>
		<path id="XMLID_658_" class="st9" d="M709.4,134.3l-8.2,0l0-14.2l8.2,0l0,2.5l-5.2,0l0,3.1l4.8,0l0,2.5l-4.8,0l0,3.7l5.2,0
			L709.4,134.3z"/>
		<path id="XMLID_660_" class="st9" d="M734.3,135l-3.4-0.1l-1.6-7.6c-0.1-0.3-0.2-0.8-0.3-1.7c-0.1-0.8-0.2-1.4-0.2-1.7
			c-0.1,0.3-0.2,0.9-0.4,1.7c-0.2,0.8-0.3,1.3-0.4,1.6l-2.2,7.4l-3.4-0.1l-3-14.4l3,0.1l1.5,7.8c0.3,1.4,0.4,2.7,0.5,3.8
			c0.1-0.4,0.2-0.9,0.3-1.7s0.3-1.4,0.5-1.8l2.4-7.9l2.9,0.1l1.7,8.1c0.1,0.4,0.2,0.9,0.3,1.6c0.1,0.7,0.2,1.4,0.2,1.9
			c0.1-0.5,0.2-1.1,0.4-1.9c0.2-0.7,0.3-1.4,0.5-1.8l2.1-7.7l3,0.1L734.3,135z"/>
		<path id="XMLID_662_" class="st9" d="M752.7,136.2l-3-0.2l0.4-6.1l-5.6-0.4l-0.4,6.1l-3-0.2l1-14.2l3,0.2l-0.4,5.6l5.6,0.4
			l0.4-5.6l3,0.2L752.7,136.2z"/>
		<path id="XMLID_664_" class="st9" d="M765.9,137.5l-8.2-0.8l1.4-14.2l8.2,0.8l-0.2,2.5l-5.2-0.5l-0.3,3.1l4.8,0.5l-0.2,2.5
			l-4.8-0.5l-0.4,3.7l5.2,0.5L765.9,137.5z"/>
		<path id="XMLID_666_" class="st9" d="M778.4,139l-8.1-1l1.7-14.1l8.1,1l-0.3,2.5l-5.1-0.6l-0.4,3.1l4.8,0.6l-0.3,2.5l-4.8-0.6
			l-0.4,3.6l5.1,0.6L778.4,139z"/>
		<path id="XMLID_668_" class="st9" d="M782.7,139.5l2-14.1l3,0.4l-1.7,11.6l5.7,0.8l-0.4,2.5L782.7,139.5z"/>
	</g>
	<path id="XMLID_248_" class="st30" d="M727.8,211l-26.2,41.3c-0.7,1.1-2.4,1.1-3.1,0L672.2,211c-13.9-21.9,1.8-50.5,27.8-50.5h0
		C725.9,160.5,741.7,189.1,727.8,211z"/>
	<path id="XMLID_960_" class="st31" d="M700,167.3L700,167.3c-18,0-31.1,13.8-32.7,29.5c0.5,4.8,2.1,9.6,5,14.2l26.2,41.3
		c0.7,1.1,2.4,1.1,3.1,0l26.2-41.3c2.9-4.5,4.5-9.4,5-14.2C731.1,181,718,167.3,700,167.3z"/>
	<rect id="XMLID_499_" x="531.2" y="740.6" class="st4" width="337.7" height="16.2"/>
	<path id="XMLID_505_" class="st4" d="M861.4,745.4H538.6l-6.5,9c-2.3,3.2,0,7.7,3.9,7.7h328c4,0,6.2-4.5,3.9-7.7L861.4,745.4z"/>
	<polygon id="XMLID_503_" class="st2" points="625.8,719.7 618.2,694 625.8,694 	"/>
	<path id="XMLID_496_" class="st5" d="M704,177.4c0,2.2-1.8,4-4,4s-4-1.8-4-4c0-2.2,1.8-4,4-4S704,175.2,704,177.4z"/>
	<path id="XMLID_962_" class="st4" d="M700,174.8c-1.9,0-3.6,1.4-3.9,3.3c0.3,1.9,2,3.3,3.9,3.3c1.9,0,3.6-1.4,3.9-3.3
		C703.6,176.3,701.9,174.8,700,174.8z"/>
	<path id="XMLID_963_" class="st32" d="M724.9,171.9c8.8,10.3,11.2,25.9,2.8,39.1l-22,34.6l4.4,5.6c0.8,1.1,2.5,0.9,3.1-0.3
		l21.8-43.8c2.4-4.8,3.5-9.8,3.5-14.6C736.9,184.1,731.9,176.7,724.9,171.9z"/>
</g>
</svg>
