<svg id="e8a6e089-f0a2-4336-8fc5-733c88302415" xmlns="http://www.w3.org/2000/svg" viewBox="0 0 483.51 483.51"><defs><style>.cls-1{fill:#fff;}.cls-2{isolation:isolate;opacity:0.2;}.cls-3{fill:#3f3d56;}.cls-4{fill:#ff6584;}.cls-5{fill:#e6e6e6;}.cls-6{fill:#f9a825;}.cls-7{fill:#00bf71;}</style></defs><circle class="cls-1" cx="241.75" cy="241.75" r="241.75"/><path class="cls-2" d="M444.51,418.21a176.46,176.46,0,1,1,124.77-51.68A176.46,176.46,0,0,1,444.51,418.21Zm0-342c-91.3,0-165.58,74.28-165.58,165.57s74.28,165.58,165.58,165.58,165.57-74.28,165.57-165.58S535.81,76.18,444.51,76.18Z" transform="translate(-202.75)"/><circle class="cls-3" cx="241.75" cy="241.75" r="171.02"/><path class="cls-4" d="M317.33,173.37A21.7,21.7,0,1,1,356,153.63l0,0,48.31,94.88a21.7,21.7,0,1,1-38.65,19.76l0-.06Z" transform="translate(-202.75)"/><path class="cls-2" d="M322.72,184l-2.23-4.37c11.13-8.65,24.19-15,38.68-19.7l2.23,4.38C345.72,167.52,332.39,173.56,322.72,184Z" transform="translate(-202.75)"/><path class="cls-2" d="M333.12,204.39,330.89,200c11.13-8.65,24.2-15,38.68-19.7l2.23,4.38C356.13,188,342.79,194,333.12,204.39Z" transform="translate(-202.75)"/><path class="cls-2" d="M343.53,224.83l-2.23-4.38c11.13-8.65,24.2-15,38.68-19.7l2.23,4.38C366.54,208.39,353.2,214.43,343.53,224.83Z" transform="translate(-202.75)"/><path class="cls-2" d="M353.94,245.26l-2.23-4.38c11.13-8.65,24.19-15,38.68-19.7l2.23,4.38C376.94,228.83,363.61,234.87,353.94,245.26Z" transform="translate(-202.75)"/><path class="cls-2" d="M364.34,265.7l-2.23-4.38c11.13-8.65,24.2-15,38.68-19.7L403,246C387.35,249.26,374,255.3,364.34,265.7Z" transform="translate(-202.75)"/><path class="cls-4" d="M281.08,208.89a21.71,21.71,0,1,1,38.67-19.73v0l48.32,94.88a21.7,21.7,0,0,1-38.68,19.7Z" transform="translate(-202.75)"/><path class="cls-2" d="M286.47,219.47l-2.23-4.38c11.13-8.64,24.2-15,38.68-19.69l2.23,4.38C309.47,203,296.14,209.08,286.47,219.47Z" transform="translate(-202.75)"/><path class="cls-2" d="M296.87,239.91l-2.23-4.38c11.13-8.65,24.2-15,38.69-19.7l2.23,4.38C319.88,223.47,306.54,229.52,296.87,239.91Z" transform="translate(-202.75)"/><path class="cls-2" d="M307.28,260.34,305.05,256c11.13-8.65,24.2-15,38.68-19.7l2.23,4.38C330.29,243.91,317,250,307.28,260.34Z" transform="translate(-202.75)"/><path class="cls-2" d="M317.69,280.78l-2.23-4.38c11.13-8.65,24.2-15,38.68-19.7l2.23,4.38C340.69,264.35,327.36,270.39,317.69,280.78Z" transform="translate(-202.75)"/><path class="cls-2" d="M328.09,301.21l-2.23-4.37c11.13-8.65,24.2-15,38.69-19.7l2.23,4.38C351.1,284.78,337.76,290.82,328.09,301.21Z" transform="translate(-202.75)"/><path class="cls-5" d="M558.78,247.2h.15A25.91,25.91,0,0,0,583.17,231a84.49,84.49,0,0,0,5.92-31.69c-.27-45.92-37.62-83.58-83.53-84.21a84.74,84.74,0,0,0-35.27,162.32,25.68,25.68,0,0,0,28.5-5.29A84.46,84.46,0,0,1,558.78,247.2Z" transform="translate(-202.75)"/><circle class="cls-6" cx="312.49" cy="193.56" r="27.98"/><circle class="cls-3" cx="251.67" cy="187.12" r="3.3"/><circle class="cls-3" cx="142.84" cy="190.22" r="3.3"/><circle class="cls-3" cx="269.24" cy="152.95" r="3.3"/><circle class="cls-3" cx="269.15" cy="247.97" r="3.3"/><circle class="cls-3" cx="334.45" cy="146.14" r="3.3"/><circle class="cls-3" cx="121.45" cy="236.31" r="3.3"/><circle class="cls-3" cx="145.55" cy="283.73" r="3.3"/><circle class="cls-4" cx="296.95" cy="289.95" r="12.44"/><path class="cls-2" d="M509,290.73a9.33,9.33,0,0,1-18.66,0" transform="translate(-202.75)"/><path class="cls-2" d="M490.37,289.17a9.33,9.33,0,0,1,18.66,0" transform="translate(-202.75)"/><ellipse class="cls-4" cx="292.28" cy="285.67" rx="0.78" ry="1.17"/><ellipse class="cls-4" cx="296.95" cy="284.12" rx="0.78" ry="1.17"/><ellipse class="cls-4" cx="296.95" cy="294.22" rx="0.78" ry="1.17"/><ellipse class="cls-4" cx="301.61" cy="288.01" rx="0.78" ry="1.17"/><ellipse class="cls-4" cx="300.83" cy="296.56" rx="0.78" ry="1.17"/><ellipse class="cls-4" cx="291.5" cy="292.67" rx="0.78" ry="1.17"/><circle class="cls-4" cx="321.82" cy="256.52" r="12.44"/><path class="cls-2" d="M533.9,257.3a9.33,9.33,0,0,1-18.65,0" transform="translate(-202.75)"/><path class="cls-2" d="M515.25,255.75a9.33,9.33,0,0,1,18.65,0" transform="translate(-202.75)"/><ellipse class="cls-4" cx="317.16" cy="252.25" rx="0.78" ry="1.17"/><ellipse class="cls-4" cx="321.82" cy="250.69" rx="0.78" ry="1.17"/><ellipse class="cls-4" cx="321.82" cy="260.8" rx="0.78" ry="1.17"/><ellipse class="cls-4" cx="326.48" cy="254.58" rx="0.78" ry="1.17"/><ellipse class="cls-4" cx="325.71" cy="263.13" rx="0.78" ry="1.17"/><ellipse class="cls-4" cx="316.38" cy="259.24" rx="0.78" ry="1.17"/><circle class="cls-1" cx="346.7" cy="273.63" r="12.44"/><path class="cls-2" d="M558.78,274.4a9.33,9.33,0,0,1-18.66,0" transform="translate(-202.75)"/><path class="cls-2" d="M540.12,272.85a9.33,9.33,0,0,1,18.66,0" transform="translate(-202.75)"/><ellipse class="cls-1" cx="342.03" cy="269.35" rx="0.78" ry="1.17"/><ellipse class="cls-1" cx="346.7" cy="267.8" rx="0.78" ry="1.17"/><ellipse class="cls-1" cx="346.7" cy="277.9" rx="0.78" ry="1.17"/><ellipse class="cls-1" cx="351.36" cy="271.68" rx="0.78" ry="1.17"/><ellipse class="cls-1" cx="350.58" cy="280.23" rx="0.78" ry="1.17"/><ellipse class="cls-1" cx="341.25" cy="276.35" rx="0.78" ry="1.17"/><circle class="cls-1" cx="284.51" cy="275.18" r="12.44"/><path class="cls-2" d="M496.59,276a9.33,9.33,0,0,1-18.66,0" transform="translate(-202.75)"/><path class="cls-2" d="M477.93,274.4a9.33,9.33,0,0,1,18.66,0" transform="translate(-202.75)"/><ellipse class="cls-1" cx="279.84" cy="270.9" rx="0.78" ry="1.17"/><ellipse class="cls-1" cx="284.51" cy="269.35" rx="0.78" ry="1.17"/><ellipse class="cls-1" cx="284.51" cy="279.46" rx="0.78" ry="1.17"/><ellipse class="cls-1" cx="289.17" cy="273.24" rx="0.78" ry="1.17"/><ellipse class="cls-1" cx="288.39" cy="281.79" rx="0.78" ry="1.17"/><ellipse class="cls-1" cx="279.07" cy="277.9" rx="0.78" ry="1.17"/><circle class="cls-1" cx="312.49" cy="280.62" r="12.44"/><path class="cls-2" d="M524.57,281.4a9.33,9.33,0,1,1-18.65,0v0" transform="translate(-202.75)"/><path class="cls-2" d="M505.92,279.84a9.33,9.33,0,0,1,18.65,0v0" transform="translate(-202.75)"/><ellipse class="cls-1" cx="307.83" cy="276.35" rx="0.78" ry="1.17"/><ellipse class="cls-1" cx="312.49" cy="274.79" rx="0.78" ry="1.17"/><ellipse class="cls-1" cx="312.49" cy="284.9" rx="0.78" ry="1.17"/><ellipse class="cls-1" cx="317.16" cy="278.68" rx="0.78" ry="1.17"/><ellipse class="cls-1" cx="316.38" cy="287.23" rx="0.78" ry="1.17"/><ellipse class="cls-1" cx="307.05" cy="283.34" rx="0.78" ry="1.17"/><circle class="cls-4" cx="331.93" cy="293.84" r="12.44"/><path class="cls-2" d="M544,294.61a9.33,9.33,0,0,1-18.66,0" transform="translate(-202.75)"/><path class="cls-2" d="M525.35,293.06a9.33,9.33,0,0,1,18.66,0h0" transform="translate(-202.75)"/><ellipse class="cls-4" cx="327.26" cy="289.56" rx="0.78" ry="1.17"/><ellipse class="cls-4" cx="331.93" cy="288.01" rx="0.78" ry="1.17"/><ellipse class="cls-4" cx="331.93" cy="298.11" rx="0.78" ry="1.17"/><ellipse class="cls-4" cx="336.59" cy="291.89" rx="0.78" ry="1.17"/><ellipse class="cls-4" cx="335.81" cy="300.44" rx="0.78" ry="1.17"/><ellipse class="cls-4" cx="326.48" cy="296.56" rx="0.78" ry="1.17"/><circle class="cls-3" cx="171.98" cy="246.42" r="3.3"/><polygon class="cls-6" points="261.59 366.08 182.42 344.12 185.45 332.86 264.62 354.81 261.59 366.08"/><path class="cls-6" d="M452.74,362.31a217.88,217.88,0,0,1-82.08,0V350.64a251.21,251.21,0,0,0,82.08,0Z" transform="translate(-202.75)"/><path class="cls-6" d="M461.18,327.28a218.3,218.3,0,0,1-82.08,0V315.6a250.66,250.66,0,0,0,82.08,0Z" transform="translate(-202.75)"/><path class="cls-6" d="M489.56,341.29a218.3,218.3,0,0,1-82.08,0V329.62a251.21,251.21,0,0,0,82.08,0Z" transform="translate(-202.75)"/><path class="cls-6" d="M496.46,354.53a218.3,218.3,0,0,1-82.08,0V342.85a251.21,251.21,0,0,0,82.08,0Z" transform="translate(-202.75)"/><polygon class="cls-6" points="317.78 371.82 236.8 385.43 234.92 373.9 315.9 360.3 317.78 371.82"/><path class="cls-6" d="M508.43,373.32a220,220,0,0,1-74.58,34.79l-4.8-10.62a252.71,252.71,0,0,0,74.58-34.78Z" transform="translate(-202.75)"/><path class="cls-6" d="M501.69,337.91a220,220,0,0,1-74.58,34.79l-4.81-10.62a252.59,252.59,0,0,0,74.58-34.78Z" transform="translate(-202.75)"/><path class="cls-6" d="M533.24,338.62a220,220,0,0,1-74.58,34.78l-4.8-10.61A253.1,253.1,0,0,0,528.44,328Z" transform="translate(-202.75)"/><path class="cls-6" d="M545,347.72a220,220,0,0,1-74.58,34.78l-4.8-10.61a253.33,253.33,0,0,0,74.58-34.78Z" transform="translate(-202.75)"/><rect class="cls-7" x="240.2" y="324.93" width="3.89" height="3.89"/><rect class="cls-7" x="251.86" y="392.56" width="3.89" height="3.89"/><rect class="cls-7" x="189.67" y="324.93" width="3.89" height="3.89"/><rect class="cls-7" x="279.84" y="373.13" width="3.89" height="3.89"/><rect class="cls-7" x="282.18" y="350.58" width="3.89" height="3.89"/><rect class="cls-7" x="420.02" y="336.98" width="3.11" height="5.44" transform="translate(-298.98 497.84) rotate(-55.84)"/><rect class="cls-7" x="465.89" y="345.53" width="3.11" height="5.44" transform="translate(-285.94 539.54) rotate(-55.84)"/><rect class="cls-7" x="409.92" y="360.3" width="3.11" height="5.44" transform="translate(-322.71 499.7) rotate(-55.84)"/><rect class="cls-7" x="440.62" y="358.36" width="5.44" height="3.11" transform="translate(-306.15 524.71) rotate(-55.84)"/><rect class="cls-7" x="461.61" y="363.8" width="5.44" height="3.11" transform="translate(-301.45 544.47) rotate(-55.84)"/><rect class="cls-7" x="517.58" y="345.14" width="5.44" height="3.11" transform="matrix(0.56, -0.83, 0.83, 0.56, -261.47, 582.6)"/></svg>