<?xml version="1.0" standalone="no"?>
<!DOCTYPE svg PUBLIC "-//W3C//DTD SVG 20010904//EN"
 "http://www.w3.org/TR/2001/REC-SVG-20010904/DTD/svg10.dtd">
<svg version="1.0" xmlns="http://www.w3.org/2000/svg"
 width="840.000000pt" height="780.000000pt" viewBox="0 0 840.000000 780.000000"
 preserveAspectRatio="xMidYMid meet">

<g
transform="translate(0.000000,780.000000) scale(0.100000,-0.100000)"
fill="#000000" stroke="none">
<path d="M3538 7353 c-21 -24 -42 -69 -57 -123 -7 -25 -18 -56 -25 -69 l-11
-24 -7 29 c-35 147 -43 169 -69 172 -43 5 -79 -59 -79 -143 0 -23 -3 -45 -6
-48 -4 -3 -27 12 -52 33 -36 32 -53 40 -83 40 -33 0 -40 -4 -45 -25 -6 -26 -1
-102 11 -147 7 -27 5 -28 -27 -28 -45 0 -58 -15 -58 -67 0 -36 6 -48 38 -80
21 -21 54 -47 73 -58 30 -18 35 -26 39 -70 10 -92 58 -158 140 -192 19 -9 41
-18 48 -22 7 -3 41 -60 76 -126 74 -143 133 -251 156 -285 10 -14 45 -79 79
-145 34 -66 69 -133 79 -150 9 -16 37 -66 61 -110 24 -44 53 -96 64 -115 10
-19 43 -67 73 -107 30 -40 54 -78 54 -85 0 -7 -9 -24 -20 -38 -38 -49 -28 -72
63 -143 45 -36 93 -75 107 -87 31 -27 88 -58 160 -86 30 -11 56 -28 58 -36 2
-9 -17 -47 -42 -86 -26 -39 -46 -73 -46 -75 0 -3 -17 -36 -39 -74 -115 -204
-171 -314 -171 -335 0 -12 -22 -33 -62 -58 -70 -46 -110 -51 -167 -21 -20 10
-54 27 -76 36 -77 33 -158 76 -225 120 -71 46 -89 76 -105 170 -10 58 -38 114
-82 164 -34 39 -50 47 -131 72 -72 21 -100 25 -124 18 -42 -12 -62 7 -90 84
-21 57 -120 208 -177 270 -14 16 -70 60 -124 99 -54 38 -122 94 -151 123 -72
71 -107 82 -194 59 -163 -43 -263 -133 -319 -288 -21 -59 -43 -144 -43 -168 0
-31 40 -135 59 -152 36 -33 97 -82 120 -94 74 -42 91 -50 139 -67 48 -18 81
-40 71 -49 -2 -2 -38 -26 -79 -52 -67 -44 -147 -100 -160 -114 -3 -3 -32 -27
-65 -55 -33 -27 -78 -66 -100 -86 -22 -20 -56 -50 -75 -65 -19 -16 -37 -31
-40 -34 -3 -3 -23 -19 -45 -35 -22 -17 -42 -32 -45 -35 -3 -3 -41 -35 -85 -70
-143 -115 -224 -200 -304 -320 -43 -63 -83 -131 -91 -150 -7 -19 -17 -39 -21
-44 -4 -4 -3 -21 1 -38 11 -37 -3 -43 -78 -33 -82 12 -178 11 -247 -3 -155
-30 -158 -30 -215 -54 -61 -26 -93 -44 -97 -55 -3 -7 -10 -10 -15 -7 -6 4 -13
3 -17 -2 -3 -5 -31 -28 -61 -51 -57 -43 -71 -58 -106 -108 -43 -60 -41 -74 10
-119 25 -23 73 -52 106 -66 33 -14 60 -30 60 -37 0 -6 -28 -29 -62 -51 -193
-121 -245 -190 -312 -413 -33 -108 -36 -243 -7 -328 10 -31 26 -81 36 -111 28
-91 171 -261 286 -340 61 -42 210 -122 249 -134 34 -10 155 -25 269 -32 100
-7 128 -2 244 45 15 6 37 11 48 11 28 0 123 63 187 124 57 54 109 128 132 186
17 44 39 70 59 70 9 0 47 -29 84 -64 85 -80 178 -143 231 -157 23 -6 46 -14
51 -18 6 -4 30 -13 55 -21 25 -7 49 -17 54 -22 6 -4 20 -8 32 -8 13 0 26 -4
29 -10 3 -5 13 -10 21 -10 8 0 34 -9 56 -20 23 -11 47 -20 54 -20 21 0 288
-85 316 -100 10 -6 27 -10 37 -10 11 0 23 -4 26 -10 3 -5 13 -10 21 -10 8 0
37 -11 66 -25 28 -14 58 -25 65 -25 7 0 21 -4 31 -9 21 -11 108 -38 187 -58
245 -61 282 -60 480 16 76 30 81 30 131 0 26 -15 51 -26 55 -23 16 9 24 -24
24 -101 1 -100 13 -160 62 -305 37 -108 49 -129 135 -243 51 -68 325 -241 428
-271 118 -34 144 -37 267 -37 72 0 151 5 175 11 24 6 61 16 83 22 102 27 243
123 351 239 35 38 144 202 144 217 0 5 14 26 30 47 41 52 69 142 101 330 13
75 4 288 -15 375 -51 225 -72 288 -142 426 -53 103 -99 169 -144 204 -96 75
-107 98 -54 114 16 4 37 12 46 17 10 5 25 9 33 9 8 0 23 4 33 9 62 31 149 40
199 20 73 -30 135 -49 155 -49 10 0 26 20 39 50 17 37 27 49 38 45 39 -16 101
-34 151 -45 30 -7 65 -16 78 -21 13 -5 47 -9 76 -9 61 0 80 14 95 75 5 22 15
57 20 78 6 20 15 52 20 70 4 17 18 59 31 92 12 33 28 78 35 100 7 22 27 76 45
120 40 99 62 168 90 276 11 46 25 100 30 120 6 20 10 48 10 61 0 19 8 29 30
38 62 26 100 103 100 204 l0 74 -87 59 c-94 63 -209 121 -283 142 -51 15 -66
21 -132 50 -26 12 -54 21 -62 21 -14 0 -105 26 -141 40 -11 4 -54 18 -95 30
-41 12 -86 25 -100 30 -14 5 -56 16 -95 24 -38 9 -86 21 -105 26 -19 5 -48 12
-65 15 -16 3 -48 10 -70 16 -51 12 -130 28 -175 35 -41 6 -140 -24 -150 -46
-18 -37 -30 -92 -41 -185 -6 -55 -14 -104 -18 -110 -5 -5 -11 -21 -14 -35 -10
-49 -55 -216 -69 -260 -8 -25 -25 -79 -38 -120 -12 -41 -26 -86 -31 -100 -7
-23 -26 -121 -44 -224 -3 -21 -10 -49 -15 -62 l-9 -24 -45 30 c-24 17 -49 30
-55 30 -5 0 -30 6 -53 14 -24 7 -63 19 -88 27 -25 7 -47 16 -50 19 -8 10 -85
30 -113 30 -40 0 -42 17 -5 58 18 20 41 55 51 77 10 22 33 50 52 63 19 12 35
27 35 32 0 6 14 10 30 10 36 0 49 23 31 52 -10 16 -10 23 1 38 133 184 206
314 238 420 7 25 20 70 30 100 10 30 23 75 30 100 7 25 16 54 20 65 5 11 11
31 13 45 3 14 15 70 28 125 19 83 23 130 23 280 1 179 1 180 -27 227 -15 26
-36 53 -46 61 -26 17 -16 30 43 56 57 25 115 70 201 156 55 56 78 92 118 185
40 94 50 111 60 101 39 -39 132 27 156 109 7 25 17 54 21 65 9 21 14 46 30
155 5 36 14 83 21 105 20 69 22 124 7 148 -10 14 -17 62 -21 132 -7 129 -16
158 -75 243 -89 128 -219 198 -442 235 -84 15 -221 11 -326 -9 -75 -14 -182
-88 -256 -178 -28 -34 -71 -82 -98 -108 -26 -25 -57 -68 -70 -95 -25 -53 -31
-132 -12 -156 10 -11 9 -23 -4 -53 -19 -43 -31 -94 -40 -168 -6 -52 14 -124
42 -146 11 -10 14 -42 14 -151 0 -77 -4 -139 -8 -139 -58 0 -185 159 -290 364
-8 16 -36 61 -62 100 -96 145 -186 293 -227 376 -36 73 -42 94 -43 148 0 84
30 138 148 264 19 20 42 60 52 90 16 48 16 55 2 71 -26 30 -112 20 -147 -17
-5 -6 -23 -30 -39 -53 -34 -50 -63 -59 -51 -15 13 45 17 354 5 366 -5 5 -10
18 -10 28 0 24 -42 24 -62 1z m36 -59 c11 -28 6 -281 -6 -334 -10 -44 -18 -56
-55 -81 -46 -32 -86 -97 -81 -132 4 -32 19 -25 44 19 27 48 103 109 118 94 15
-15 36 -12 43 8 13 34 76 122 99 137 27 17 74 20 74 5 0 -22 -34 -77 -86 -138
-68 -79 -98 -132 -119 -205 -16 -54 -16 -61 1 -115 18 -60 88 -198 136 -269
15 -23 28 -45 28 -48 0 -4 29 -52 65 -106 35 -54 81 -129 101 -166 21 -38 46
-84 57 -104 10 -20 50 -76 88 -125 98 -127 98 -125 63 -176 -49 -73 -79 -108
-91 -108 -17 0 -123 150 -173 245 -23 44 -45 85 -50 90 -4 6 -45 82 -90 170
-46 88 -108 201 -138 250 -57 93 -172 317 -172 335 0 5 -12 13 -27 16 -44 11
-126 70 -152 109 -16 24 -26 56 -29 91 -4 44 -10 58 -29 72 -87 62 -114 86
-119 108 -12 46 9 49 80 9 92 -51 113 -35 51 38 -39 46 -70 134 -61 173 8 30
17 30 53 0 29 -24 52 -65 92 -158 14 -35 25 -48 40 -48 25 0 26 13 5 71 -12
35 -14 65 -9 139 4 52 11 103 16 113 25 46 42 -1 59 -168 6 -60 13 -117 16
-126 5 -18 51 -42 58 -31 2 4 7 41 11 82 8 97 22 162 47 228 21 54 32 63 42
36z m1055 -777 c19 -9 39 -17 44 -17 6 0 21 -10 34 -22 51 -48 15 -178 -62
-223 -78 -46 -257 -26 -321 36 -38 37 -43 67 -19 120 l15 34 -1 -35 c-3 -80 0
-89 32 -105 31 -17 65 -13 54 5 -3 5 -17 10 -31 10 -23 0 -24 3 -24 60 0 33 4
60 10 60 14 0 12 27 -2 34 -9 3 -1 16 22 36 34 31 36 31 125 28 61 -2 101 -9
124 -21z m557 -126 c78 -21 147 -84 147 -134 0 -34 -42 -115 -72 -138 -51 -41
-268 -11 -319 44 -12 13 -28 49 -34 80 -11 52 -10 61 10 102 29 60 59 73 154
64 40 -3 91 -11 114 -18z m-351 -62 c5 -5 -6 -9 -28 -9 -35 0 -45 8 -30 23 8
8 43 -1 58 -14z m673 -128 c8 -5 12 -21 10 -37 l-3 -29 -75 4 c-41 2 -77 5
-78 6 -2 2 -1 17 3 34 6 31 7 31 68 31 34 0 68 -4 75 -9z m-1023 -57 c28 -8
66 -14 85 -14 34 0 64 -5 275 -48 100 -21 199 -44 265 -63 19 -6 45 -13 57
-16 38 -9 45 -29 52 -147 5 -83 12 -121 25 -141 22 -34 19 -53 -29 -168 -31
-73 -49 -99 -104 -154 -145 -144 -218 -183 -342 -183 -162 0 -331 90 -404 214
-70 119 -76 473 -11 654 34 93 35 94 59 86 12 -4 45 -13 72 -20z m-2081 -604
c22 -8 26 -16 26 -52 0 -91 -130 -361 -206 -428 -44 -38 -73 -45 -116 -27 -26
11 -37 23 -46 54 -17 56 -16 62 18 166 46 139 110 220 210 269 61 30 77 32
114 18z m156 -94 c0 -38 -20 -139 -36 -181 -27 -71 -123 -222 -157 -248 -60
-46 -107 -67 -147 -67 -22 0 -40 5 -40 10 0 6 5 10 10 10 18 0 101 83 144 145
91 130 136 251 136 370 0 28 3 55 8 59 11 12 82 -73 82 -98z m121 -70 c115
-77 267 -262 303 -369 22 -64 21 -70 -15 -86 -42 -18 -104 -100 -130 -171 -22
-61 -27 -67 -44 -51 -6 5 -57 23 -115 40 -166 50 -263 81 -285 90 -11 5 -47
21 -80 37 l-60 27 32 7 c46 10 74 31 125 92 86 101 158 234 193 356 10 34 20
62 22 62 2 0 26 -15 54 -34z m550 -485 c133 -46 178 -105 188 -246 l6 -80 46
-30 c25 -16 61 -43 80 -59 31 -27 85 -54 263 -135 144 -65 179 -49 473 221 89
81 165 148 170 148 12 0 44 -35 76 -83 l25 -37 -151 -153 c-84 -83 -172 -168
-197 -188 -69 -56 -178 -119 -205 -119 -70 0 -208 52 -425 160 -74 37 -152 72
-172 79 -72 24 -178 161 -154 200 3 4 1 22 -3 39 -6 20 -5 34 2 41 42 42 -128
38 -200 -4 -48 -29 -66 -59 -78 -132 -6 -37 -10 -43 -31 -43 -49 0 -56 53 -19
154 31 85 56 126 100 165 56 49 42 69 -21 30 -38 -23 -80 -81 -109 -149 -28
-68 -38 -72 -33 -13 8 87 69 191 130 220 30 14 119 41 139 42 9 1 54 -12 100
-28z m-617 -171 c141 -41 176 -57 176 -79 0 -19 -67 -85 -170 -166 -35 -27
-106 -94 -159 -149 -53 -55 -142 -148 -198 -206 -91 -94 -120 -128 -200 -235
-75 -100 -199 -295 -216 -339 -19 -50 -34 -100 -63 -221 -21 -86 -20 -229 4
-385 21 -133 79 -351 108 -400 8 -14 28 -50 43 -80 16 -30 50 -82 75 -115 26
-33 59 -79 74 -101 15 -23 36 -48 48 -55 12 -8 42 -28 68 -45 28 -19 85 -42
144 -58 144 -38 378 -93 452 -106 36 -7 85 -16 110 -20 25 -5 91 -9 147 -9
l101 -1 48 36 c83 64 214 222 214 259 0 10 59 129 136 275 78 146 144 385 144
517 0 28 3 58 6 67 7 18 36 21 65 6 10 -6 38 -13 61 -16 90 -11 256 -48 338
-75 84 -27 177 -44 410 -74 203 -25 217 -31 250 -94 30 -58 127 -140 303 -255
32 -21 107 -86 167 -144 91 -90 114 -119 144 -182 39 -82 68 -162 61 -168 -6
-6 -95 86 -95 98 0 10 -159 148 -213 185 -107 72 -277 129 -432 145 -135 14
-332 12 -390 -4 -55 -16 -156 -57 -177 -72 -7 -6 -30 -19 -51 -29 -45 -23
-114 -91 -103 -102 4 -4 13 -3 21 2 91 66 166 109 245 141 94 38 97 39 225 39
245 0 440 -39 584 -115 119 -64 263 -199 360 -338 30 -44 102 -214 114 -272 5
-25 12 -98 14 -162 3 -94 0 -137 -17 -215 -45 -209 -63 -243 -127 -243 -34 0
-334 82 -518 141 -229 74 -419 126 -540 149 -33 6 -93 22 -134 36 -40 13 -84
24 -98 24 -25 0 -85 17 -265 77 l-108 36 0 53 c0 29 4 63 9 76 5 13 18 55 29
93 62 218 90 295 149 409 14 28 14 28 -6 14 -62 -43 -156 -244 -180 -382 -9
-49 -35 -165 -50 -216 -5 -17 -18 -27 -42 -33 -19 -5 -75 -24 -126 -43 -140
-52 -207 -47 -478 31 -180 53 -249 75 -334 110 -35 15 -129 46 -210 71 -80 24
-175 55 -211 69 -36 13 -121 45 -189 70 -170 62 -292 155 -391 301 -79 116
-150 374 -150 545 0 60 -26 254 -36 271 -3 5 -12 53 -19 107 -25 177 -83 309
-179 406 -52 52 -59 65 -60 100 -2 92 182 345 336 462 46 35 231 185 238 193
6 7 303 248 364 295 89 69 186 125 220 125 15 0 74 -13 130 -30z m578 -107
c49 -44 -20 -155 -113 -178 -17 -4 -33 0 -48 13 -22 17 -23 21 -11 58 22 69
31 80 73 102 52 26 75 27 99 5z m-409 -82 c-18 -31 -104 -120 -236 -246 -203
-193 -374 -388 -486 -554 -45 -66 -125 -228 -134 -271 -3 -14 -15 -56 -27 -95
-37 -117 -42 -164 -37 -310 5 -136 15 -185 57 -280 5 -11 21 -56 35 -101 19
-61 37 -94 75 -140 28 -32 63 -64 79 -71 16 -7 37 -23 47 -36 47 -59 145 -135
191 -147 26 -7 95 -33 152 -57 58 -24 128 -50 155 -58 28 -7 105 -30 171 -50
187 -57 234 -66 312 -63 42 1 73 -2 74 -7 1 -6 -16 -19 -37 -30 -32 -17 -55
-20 -134 -17 -52 1 -135 11 -185 21 -49 11 -103 22 -120 26 -31 6 -60 13 -160
38 -33 9 -94 23 -135 32 -153 35 -198 55 -276 126 -85 77 -106 101 -161 189
-83 132 -94 161 -154 400 -37 145 -39 163 -39 302 0 156 5 186 59 346 34 103
108 226 248 414 94 126 392 440 533 561 52 45 106 92 120 104 39 36 43 27 13
-26z m88 -53 c11 -24 51 -48 81 -48 10 0 32 -9 50 -20 18 -11 43 -20 55 -20
26 0 108 34 117 49 14 23 54 11 82 -24 29 -36 74 -65 103 -65 9 0 41 -13 71
-30 72 -38 259 -131 288 -141 12 -5 32 -13 45 -18 12 -5 37 -14 55 -21 35 -14
43 -39 14 -47 -10 -2 -27 -24 -36 -48 -13 -31 -33 -53 -70 -79 -29 -20 -58
-36 -64 -36 -11 0 -66 22 -104 41 -10 5 -25 9 -33 9 -8 0 -23 4 -33 9 -9 5
-37 14 -62 21 -25 7 -55 16 -68 21 -31 12 -162 39 -190 39 -38 0 -124 -46
-171 -92 -39 -39 -185 -250 -224 -323 -9 -16 -39 -57 -67 -90 -28 -33 -81
-101 -119 -150 -37 -50 -94 -113 -126 -140 -32 -28 -89 -81 -127 -118 -68 -67
-70 -68 -116 -65 -39 3 -47 6 -47 23 0 27 -108 161 -145 180 -16 8 -43 15 -60
15 -35 0 -48 20 -33 53 22 47 32 73 38 97 19 70 118 249 203 370 117 164 207
268 297 340 37 30 89 75 114 100 26 25 74 68 106 95 64 54 124 115 125 128 0
17 41 5 51 -15z m2334 -344 c33 -8 71 -19 85 -24 14 -4 54 -17 90 -28 69 -21
275 -84 350 -107 25 -8 90 -29 145 -48 55 -19 127 -43 160 -52 170 -50 273
-85 344 -119 14 -6 40 -26 58 -44 39 -39 42 -73 17 -192 -31 -152 -41 -185
-140 -445 -63 -168 -104 -291 -104 -315 0 -14 -7 -43 -14 -65 -22 -64 -38 -64
-227 -13 -90 25 -188 51 -217 58 -29 7 -65 18 -80 25 -27 14 -325 103 -372
112 -14 2 -34 8 -45 13 -11 4 -54 18 -95 30 -41 12 -113 33 -160 46 -47 14
-103 31 -125 38 l-40 13 -3 76 c-2 54 5 113 23 199 15 68 30 146 35 173 10 56
11 62 75 275 26 85 50 178 55 205 12 73 51 199 64 207 11 7 17 6 121 -18z
m-2055 -134 c0 -5 -7 -10 -15 -10 -8 0 -15 5 -15 10 0 6 7 10 15 10 8 0 15 -4
15 -10z m120 0 c0 -5 18 -10 40 -10 22 0 40 -4 40 -9 0 -6 -27 -10 -60 -10
-49 1 -62 4 -70 20 -10 17 -7 19 20 19 16 0 30 -4 30 -10z m-245 -90 c-10 -11
-20 -18 -23 -16 -5 6 21 35 32 36 5 0 1 -9 -9 -20z m113 -5 c-6 -14 -15 -25
-20 -25 -4 0 -8 -7 -8 -15 0 -8 -4 -15 -10 -15 -16 0 -11 13 17 48 32 39 36
40 21 7z m185 -2 c-7 -2 -21 -2 -30 0 -10 3 -4 5 12 5 17 0 24 -2 18 -5z m-73
-13 c0 -5 -5 -10 -11 -10 -13 0 -34 -20 -42 -40 -5 -13 -6 -13 -6 0 -1 9 7 26
17 38 18 23 42 29 42 12z m225 0 c4 -6 -10 -10 -34 -10 -23 0 -41 5 -41 10 0
6 15 10 34 10 19 0 38 -4 41 -10z m-490 -30 c-10 -11 -20 -18 -23 -16 -5 6 21
35 32 36 5 0 1 -9 -9 -20z m560 10 c3 -5 -3 -10 -14 -10 -11 0 -23 5 -26 10
-3 6 3 10 14 10 11 0 23 -4 26 -10z m58 -17 c-7 -2 -21 -2 -30 0 -10 3 -4 5
12 5 17 0 24 -2 18 -5z m-513 -19 c0 -3 -7 -12 -15 -20 -16 -17 -18 -14 -9 10
6 15 24 23 24 10z m588 -1 c-10 -2 -26 -2 -35 0 -10 3 -2 5 17 5 19 0 27 -2
18 -5z m-725 -20 c-7 -3 -13 -12 -14 -21 0 -11 -2 -13 -6 -4 -6 15 17 46 26
36 3 -4 0 -9 -6 -11z m805 0 c-10 -2 -26 -2 -35 0 -10 3 -2 5 17 5 19 0 27 -2
18 -5z m-711 -35 c-3 -8 -6 -5 -6 6 -1 11 2 17 5 13 3 -3 4 -12 1 -19z m776
15 c-7 -2 -21 -2 -30 0 -10 3 -4 5 12 5 17 0 24 -2 18 -5z m57 -13 c12 -8 9
-10 -13 -10 -16 0 -26 4 -22 10 8 12 16 12 35 0z m-963 -22 c-3 -8 -6 -5 -6 6
-1 11 2 17 5 13 3 -3 4 -12 1 -19z m107 -12 c-3 -9 -10 -16 -15 -16 -5 0 -9
-4 -9 -10 0 -9 -6 -18 -52 -72 -10 -12 -18 -17 -18 -11 0 5 10 21 21 34 12 13
29 35 38 49 31 48 48 61 35 26z m103 -11 c-24 -37 -45 -49 -25 -13 18 31 32
47 40 48 4 0 -3 -16 -15 -35z m833 25 c0 -5 -9 -10 -19 -10 -11 0 -23 5 -26
10 -4 6 5 10 19 10 14 0 26 -4 26 -10z m70 -20 c0 -5 -9 -10 -19 -10 -11 0
-23 5 -26 10 -4 6 5 10 19 10 14 0 26 -4 26 -10z m65 -20 c-3 -5 -12 -10 -20
-10 -8 0 -17 5 -20 10 -4 6 5 10 20 10 15 0 24 -4 20 -10z m-1205 -10 c0 -5
-4 -10 -10 -10 -5 0 -10 5 -10 10 0 6 5 10 10 10 6 0 10 -4 10 -10z m1268 -7
c-10 -2 -26 -2 -35 0 -10 3 -2 5 17 5 19 0 27 -2 18 -5z m-1288 -20 c-1 -16
-30 -46 -37 -38 -5 4 -2 10 5 12 6 3 12 11 12 19 0 8 5 14 10 14 6 0 10 -3 10
-7z m1363 0 c-7 -2 -21 -2 -30 0 -10 3 -4 5 12 5 17 0 24 -2 18 -5z m50 -20
c-7 -2 -19 -2 -25 0 -7 3 -2 5 12 5 14 0 19 -2 13 -5z m42 -13 c3 -5 -1 -10
-9 -10 -9 0 -16 5 -16 10 0 6 4 10 9 10 6 0 13 -4 16 -10z m-1300 -65 c-15
-19 -32 -35 -37 -35 -5 0 -3 6 4 14 30 32 48 57 49 69 0 9 2 9 6 0 2 -7 -8
-28 -22 -48z m1345 45 c0 -5 7 -10 16 -10 21 0 47 -27 34 -35 -5 -3 -10 -2
-10 3 0 5 -14 15 -30 22 -35 15 -48 30 -26 30 9 0 16 -4 16 -10z m-1456 -34
c-6 -15 -24 -23 -24 -11 0 8 24 34 28 30 1 -1 0 -10 -4 -19z m-1679 -1 c48 -9
100 -22 115 -30 55 -28 118 -146 153 -285 50 -199 77 -363 77 -459 0 -138 40
-326 111 -516 10 -27 21 -62 25 -77 5 -25 3 -28 -19 -28 -15 0 -36 4 -49 9
-13 5 -49 16 -81 26 -62 18 -125 56 -169 102 -33 34 -148 231 -171 293 -17 45
-169 246 -205 272 -11 7 -58 49 -107 93 -101 93 -193 157 -250 175 -73 24
-167 73 -182 97 -25 38 -8 72 80 156 109 104 133 116 312 156 158 35 229 39
360 16z m1552 -37 c-3 -8 -6 -5 -6 6 -1 11 2 17 5 13 3 -3 4 -12 1 -19z m686
15 c-29 -2 -77 -2 -105 0 -29 2 -6 3 52 3 58 0 81 -1 53 -3z m917 -40 c-12 -9
-34 -29 -48 -44 -14 -16 -35 -28 -46 -28 -19 1 -19 2 -2 6 10 3 39 27 65 54
25 27 48 44 50 38 2 -6 -7 -18 -19 -26z m-1518 8 c-12 -10 -22 -23 -22 -30 0
-6 -5 -11 -11 -11 -5 0 -7 6 -3 13 13 23 37 47 47 47 6 0 0 -8 -11 -19z m721
12 c-13 -2 -33 -2 -45 0 -13 2 -3 4 22 4 25 0 35 -2 23 -4z m-823 -11 c0 -5
-18 -27 -40 -50 -51 -51 -53 -38 -2 17 40 44 42 45 42 33z m1020 -6 c8 -2 -21
-4 -65 -4 -44 0 -72 3 -63 6 17 7 95 5 128 -2z m-504 -44 c-11 -10 -15 4 -8
28 l7 25 3 -23 c2 -13 1 -26 -2 -30z m-344 9 c-12 -10 -22 -25 -23 -32 0 -11
-2 -11 -6 -1 -5 14 36 66 45 57 3 -3 -5 -13 -16 -24z m993 19 c3 -5 -3 -10
-14 -10 -12 0 -21 5 -21 10 0 6 6 10 14 10 8 0 18 -4 21 -10z m-382 -17 c71
-15 74 -22 32 -87 -59 -92 -46 -173 38 -248 l42 -36 -1 -107 c-1 -58 -7 -125
-14 -148 -50 -163 -90 -266 -158 -399 -42 -84 -87 -177 -100 -207 -30 -70 -99
-157 -136 -170 -36 -13 -178 -14 -220 -2 -17 5 -65 17 -106 27 -41 10 -104 28
-140 42 -36 13 -101 35 -145 49 -95 29 -168 61 -163 71 10 23 128 122 146 122
12 0 32 16 49 38 42 53 161 237 196 302 16 30 49 84 72 120 23 36 55 90 70
120 16 30 58 97 92 148 35 51 63 99 63 106 0 28 50 112 79 134 16 12 49 49 72
83 l41 61 71 -5 c40 -3 94 -9 120 -14z m432 -3 c3 -5 -3 -10 -14 -10 -12 0
-21 5 -21 10 0 6 6 10 14 10 8 0 18 -4 21 -10z m-1155 -20 c0 -5 -5 -10 -11
-10 -5 0 -7 5 -4 10 3 6 8 10 11 10 2 0 4 -4 4 -10z m1220 0 c0 -5 -9 -10 -19
-10 -11 0 -23 5 -26 10 -4 6 5 10 19 10 14 0 26 -4 26 -10z m68 -17 c-10 -2
-28 -2 -40 0 -13 2 -5 4 17 4 22 1 32 -1 23 -4z m-1221 -25 c-3 -8 -6 -5 -6 6
-1 11 2 17 5 13 3 -3 4 -12 1 -19z m338 12 c3 -5 1 -10 -4 -10 -6 0 -11 5 -11
10 0 6 2 10 4 10 3 0 8 -4 11 -10z m1008 -7 c-13 -2 -35 -2 -50 0 -16 2 -5 4
22 4 28 0 40 -2 28 -4z m-1573 -28 c-7 -9 -15 -13 -18 -10 -3 2 1 11 8 20 7 9
15 13 18 10 3 -2 -1 -11 -8 -20z m117 -7 c-3 -8 -6 -5 -6 6 -1 11 2 17 5 13 3
-3 4 -12 1 -19z m428 3 c-3 -6 -11 -11 -16 -11 -5 0 -4 6 3 14 14 16 24 13 13
-3z m-348 -33 c-27 -54 -26 -52 -32 -46 -7 7 36 88 46 88 5 0 -2 -19 -14 -42z
m-231 -13 c-3 -8 -11 -15 -18 -14 -10 0 -10 2 0 6 6 2 12 14 13 26 0 12 3 16
6 9 3 -7 2 -19 -1 -27z m128 -7 c-12 -22 -19 -28 -22 -18 -3 7 0 16 7 18 6 2
11 10 11 18 0 8 5 14 10 14 6 0 3 -15 -6 -32z m386 -25 c0 -5 -5 -15 -10 -23
-8 -12 -10 -11 -10 8 0 12 5 22 10 22 6 0 10 -3 10 -7z m-423 -37 c-7 -14 -13
-23 -15 -21 -7 6 9 45 18 45 4 0 3 -11 -3 -24z m399 -43 c-11 -11 -19 6 -11
24 8 17 8 17 12 0 3 -10 2 -21 -1 -24z m-1115 5 c13 -6 41 -35 62 -64 l37 -53
-35 -23 c-28 -19 -35 -29 -35 -55 0 -39 25 -45 53 -13 29 35 45 26 40 -23 -4
-36 -2 -45 12 -51 11 -4 25 0 35 9 17 15 20 13 48 -27 17 -24 51 -65 76 -93
25 -27 45 -55 46 -62 0 -24 -17 -21 -46 8 -81 84 -123 123 -164 151 -25 18
-46 35 -48 40 -5 12 -76 10 -89 -3 -12 -12 -28 10 -50 71 -25 68 -10 200 23
200 5 0 21 -5 35 -12z m776 -20 c-3 -8 -6 -5 -6 6 -1 11 2 17 5 13 3 -3 4 -12
1 -19z m299 -45 c-32 -34 -34 -23 -4 18 13 17 24 26 26 20 2 -6 -8 -23 -22
-38z m-606 10 c-7 -3 -42 -35 -75 -70 -34 -34 -66 -63 -71 -63 -4 0 23 32 61
70 38 39 76 70 85 69 13 0 13 -1 0 -6z m175 -13 c-10 -11 -20 -18 -23 -16 -5
6 21 35 32 36 5 0 1 -9 -9 -20z m89 -14 c-6 -15 -24 -23 -24 -11 0 8 24 34 28
30 1 -1 0 -10 -4 -19z m-114 -26 c0 -5 -4 -10 -10 -10 -5 0 -10 5 -10 10 0 6
5 10 10 10 6 0 10 -4 10 -10z m425 0 c3 -5 1 -10 -4 -10 -6 0 -11 5 -11 10 0
6 2 10 4 10 3 0 8 -4 11 -10z m-335 -7 c0 -5 -8 -17 -17 -28 -14 -18 -15 -18
-9 -2 3 10 6 23 6 28 0 5 5 9 10 9 6 0 10 -3 10 -7z m-110 -23 c0 -5 -4 -10
-10 -10 -5 0 -10 5 -10 10 0 6 5 10 10 10 6 0 10 -4 10 -10z m430 6 c0 -3 -4
-8 -10 -11 -5 -3 -10 -1 -10 4 0 6 5 11 10 11 6 0 10 -2 10 -4z m-450 -36 c0
-5 -4 -10 -10 -10 -5 0 -10 -7 -10 -17 0 -9 -3 -14 -6 -10 -8 8 5 47 17 47 5
0 9 -4 9 -10z m430 1 c0 -6 -4 -13 -10 -16 -5 -3 -10 1 -10 9 0 9 5 16 10 16
6 0 10 -4 10 -9z m-726 -50 c3 -5 -3 -11 -15 -14 -16 -4 -18 -3 -8 9 13 16 16
17 23 5z m253 -13 c-3 -8 -6 -5 -6 6 -1 11 2 17 5 13 3 -3 4 -12 1 -19z m425
-16 c-7 -2 -12 -10 -12 -18 0 -8 -4 -14 -10 -14 -14 0 -13 7 7 37 11 17 19 21
22 12 2 -7 -1 -15 -7 -17z m-1031 -38 c20 -45 18 -89 -4 -81 -9 3 -35 94 -37
130 -1 20 22 -8 41 -49z m696 34 c-3 -8 -6 -5 -6 6 -1 11 2 17 5 13 3 -3 4
-12 1 -19z m-350 -10 c-3 -8 -6 -5 -6 6 -1 11 2 17 5 13 3 -3 4 -12 1 -19z
m223 -23 c-13 -14 -25 -23 -28 -21 -5 6 41 55 47 50 3 -2 -6 -15 -19 -29z
m115 15 c3 -5 1 -10 -4 -10 -6 0 -11 5 -11 10 0 6 2 10 4 10 3 0 8 -4 11 -10z
m2305 -35 c32 -12 35 -16 35 -55 0 -47 0 -48 90 -80 33 -12 69 -26 80 -31 11
-4 51 -18 88 -30 74 -23 79 -35 26 -60 -81 -40 -112 -50 -132 -45 -12 3 -70
41 -128 85 -78 60 -111 92 -128 125 -13 24 -36 53 -52 65 -30 23 -36 40 -19
57 11 11 53 1 140 -31z m-2623 13 c-3 -8 -6 -5 -6 6 -1 11 2 17 5 13 3 -3 4
-12 1 -19z m-194 -56 c79 -59 82 -64 63 -112 -14 -35 -13 -70 2 -70 11 0 42
34 42 47 0 7 4 13 9 13 19 0 22 -21 7 -52 -9 -17 -16 -37 -16 -43 0 -23 30
-25 47 -5 10 11 21 20 24 20 7 0 43 -55 68 -105 17 -33 84 -103 145 -151 l40
-31 -31 -33 -31 -33 -73 38 c-91 46 -171 125 -304 300 -36 47 -105 167 -105
183 0 15 40 72 50 72 6 0 34 -17 63 -38z m446 9 c-18 -17 -35 -28 -37 -26 -7
7 43 54 57 54 7 1 -1 -12 -20 -28z m346 -26 c-17 -34 -35 -46 -35 -25 0 6 5
10 10 10 6 0 10 7 10 15 0 8 5 15 10 15 6 0 10 8 10 17 0 9 3 13 7 9 4 -4 -1
-22 -12 -41z m2193 1 c42 -13 109 -34 147 -45 226 -68 281 -86 388 -127 93
-36 117 -50 117 -65 0 -25 -14 -24 -102 5 -40 13 -107 33 -148 45 -41 12 -97
30 -125 41 -27 10 -86 31 -130 45 -44 14 -89 30 -100 35 -11 5 -47 18 -80 29
-45 15 -61 25 -63 40 -4 26 2 26 96 -3z m-2709 -7 c13 -11 21 -23 17 -26 -4
-4 -18 5 -32 20 -29 31 -20 35 15 6z m474 -56 c-7 -3 -14 -14 -14 -26 -1 -18
-2 -19 -6 -4 -5 19 16 52 26 41 3 -4 0 -9 -6 -11z m-1798 -49 c65 -66 61 -78
-22 -71 -98 9 -121 0 -165 -64 -78 -114 -99 -225 -55 -290 12 -18 44 -46 69
-63 40 -24 59 -29 116 -30 63 -1 71 1 117 36 79 57 95 79 102 137 3 31 10 50
17 48 6 -2 31 -42 55 -90 l45 -86 -28 -41 c-22 -34 -45 -50 -121 -87 -166 -80
-246 -72 -376 41 -108 93 -133 139 -137 256 -5 122 8 162 76 230 71 70 97 88
159 104 85 24 99 21 148 -30z m1379 21 c-4 -8 -8 -15 -10 -15 -2 0 -4 7 -4 15
0 8 4 15 10 15 5 0 7 -7 4 -15z m-358 -162 c100 -139 235 -269 307 -296 28
-11 20 -28 -10 -21 -74 17 -154 85 -259 219 -83 107 -134 192 -134 224 0 20 6
15 33 -30 18 -30 46 -73 63 -96z m744 131 c0 -8 -5 -12 -10 -9 -6 4 -8 11 -5
16 9 14 15 11 15 -7z m-444 -39 c0 -19 -4 -35 -8 -35 -4 0 -8 16 -8 35 0 19 4
35 8 35 4 0 8 -16 8 -35z m421 3 c-3 -8 -6 -5 -6 6 -1 11 2 17 5 13 3 -3 4
-12 1 -19z m2581 -44 c12 -4 22 -10 22 -15 0 -8 -181 -69 -206 -69 -25 0 -15
19 13 26 15 4 49 19 77 35 56 30 61 31 94 23z m-2991 -26 c-3 -8 -6 -5 -6 6
-1 11 2 17 5 13 3 -3 4 -12 1 -19z m383 18 c0 -3 -4 -8 -10 -11 -5 -3 -10 -1
-10 4 0 6 5 11 10 11 6 0 10 -2 10 -4z m-1688 -42 c34 -18 76 -72 88 -114 11
-40 -1 -103 -28 -139 -38 -52 -157 -93 -177 -61 -3 6 -14 10 -25 10 -10 0 -32
14 -50 30 -32 30 -33 31 -27 103 5 79 21 119 64 159 43 40 92 44 155 12z
m1668 6 c0 -5 -4 -10 -10 -10 -5 0 -10 5 -10 10 0 6 5 10 10 10 6 0 10 -4 10
-10z m-310 -35 c7 -8 8 -15 2 -15 -5 0 -15 7 -22 15 -7 8 -8 15 -2 15 5 0 15
-7 22 -15z m43 -46 c26 -30 15 -34 -13 -4 -13 14 -19 25 -14 25 5 0 18 -9 27
-21z m57 -48 c0 -4 13 -14 29 -24 29 -17 30 -17 55 8 14 14 26 22 26 17 0 -14
-36 -52 -49 -52 -16 0 -53 22 -73 44 -22 23 -22 27 -3 20 8 -4 15 -9 15 -13z
m1825 -1113 c42 -11 45 -14 45 -45 0 -91 74 -163 198 -192 76 -19 134 -2 201
56 l52 45 47 -11 c57 -14 122 -41 122 -52 0 -4 -15 -27 -33 -50 -26 -34 -50
-51 -122 -83 -85 -37 -96 -39 -190 -40 -117 -1 -150 12 -255 97 -79 64 -121
125 -139 199 -21 88 -11 99 74 76z m167 -37 c13 -5 70 -22 128 -37 136 -35
146 -44 88 -78 -52 -30 -94 -33 -164 -10 -56 19 -80 37 -100 76 -28 53 -9 72
48 49z"/>
<path d="M4460 6523 c-45 -9 -43 -21 4 -28 61 -10 142 3 125 19 -8 7 -104 14
-129 9z"/>
<path d="M4380 6490 c0 -5 5 -10 10 -10 6 0 10 5 10 10 0 6 -4 10 -10 10 -5 0
-10 -4 -10 -10z"/>
<path d="M4620 6490 c0 -5 4 -10 9 -10 6 0 13 5 16 10 3 6 -1 10 -9 10 -9 0
-16 -4 -16 -10z"/>
<path d="M4657 6483 c-12 -11 -8 -23 8 -23 8 0 15 7 15 15 0 16 -12 20 -23 8z"/>
<path d="M4690 6426 c0 -14 4 -27 9 -30 10 -7 20 23 14 42 -8 21 -23 13 -23
-12z"/>
<path d="M4670 6360 c0 -11 -4 -20 -10 -20 -5 0 -10 -7 -10 -15 0 -25 24 -17
38 12 16 35 15 43 -3 43 -8 0 -15 -9 -15 -20z"/>
<path d="M4438 6302 c-25 -5 -22 -19 4 -25 23 -6 38 -1 38 13 0 11 -21 17 -42
12z"/>
<path d="M4616 6293 c-4 -4 -22 -6 -41 -4 -40 3 -75 -6 -75 -20 0 -14 113 -10
133 5 9 7 17 16 17 20 0 8 -25 8 -34 -1z"/>
<path d="M4993 6376 c-26 -12 -30 -26 -8 -26 8 0 15 5 15 10 0 6 32 10 76 10
47 0 73 4 69 10 -8 13 -124 11 -152 -4z"/>
<path d="M5175 6360 c-3 -5 1 -10 9 -10 9 0 16 5 16 10 0 6 -4 10 -9 10 -6 0
-13 -4 -16 -10z"/>
<path d="M5210 6344 c0 -9 28 -34 38 -34 6 0 12 -26 14 -57 3 -49 0 -60 -21
-81 -26 -26 -23 -37 7 -28 19 6 52 87 52 128 0 23 -52 78 -74 78 -9 0 -16 -3
-16 -6z"/>
<path d="M4955 6329 c-4 -6 -9 -36 -12 -68 -5 -53 -3 -60 18 -75 26 -18 59
-21 59 -6 0 6 -7 10 -16 10 -8 0 -22 6 -30 14 -16 16 -19 86 -4 86 6 0 10 11
10 25 0 26 -14 33 -25 14z"/>
<path d="M5056 6171 c-24 -9 -13 -17 38 -26 34 -7 38 -6 34 11 -4 21 -40 28
-72 15z"/>
<path d="M5163 6143 c9 -2 25 -2 35 0 9 3 1 5 -18 5 -19 0 -27 -2 -17 -5z"/>
<path d="M4441 6056 c-17 -20 -2 -27 64 -31 56 -3 69 7 43 33 -17 17 -93 15
-107 -2z"/>
<path d="M4897 5964 c-3 -3 -3 -12 0 -20 4 -10 23 -14 69 -14 67 0 75 4 47 26
-18 13 -104 19 -116 8z"/>
<path d="M4475 5930 c-26 -10 -60 -72 -52 -94 10 -25 23 -19 47 19 28 45 44
40 48 -13 2 -33 7 -42 22 -42 35 0 42 73 9 114 -21 27 -39 31 -74 16z"/>
<path d="M4662 5848 c-47 -109 -52 -190 -12 -203 32 -10 42 3 26 33 -8 16 -11
34 -6 47 16 41 31 101 33 129 3 46 -21 43 -41 -6z"/>
<path d="M4867 5839 c-23 -13 -39 -56 -32 -80 9 -28 20 -23 45 17 25 43 37 36
42 -21 4 -50 33 -62 45 -18 21 81 -36 139 -100 102z"/>
<path d="M4931 5624 c-13 -9 -53 -25 -90 -35 -36 -10 -82 -23 -101 -28 -50
-16 -138 -13 -199 5 -29 8 -56 13 -59 9 -3 -3 2 -19 11 -34 9 -16 17 -38 17
-48 0 -32 57 -136 94 -172 56 -54 159 -61 246 -16 53 28 104 98 130 180 19 61
29 79 49 86 l25 10 -25 24 c-33 33 -69 40 -98 19z m-16 -73 c-11 -11 -47 -33
-80 -50 -64 -33 -122 -40 -172 -20 -27 11 -26 12 37 25 36 8 99 25 140 38 92
30 100 31 75 7z m-304 -83 c46 -29 60 -33 118 -32 52 1 79 8 130 33 35 18 66
30 68 27 3 -3 -3 -26 -12 -51 -22 -56 -91 -120 -140 -129 -43 -8 -104 7 -139
35 -39 31 -104 149 -82 149 3 0 28 -15 57 -32z"/>
<path d="M2199 4317 c-217 -214 -487 -499 -497 -527 -3 -8 -18 -33 -33 -55
-15 -23 -30 -52 -34 -67 -10 -39 12 -44 33 -7 69 128 143 212 555 634 185 190
224 236 200 235 -5 -1 -105 -96 -224 -213z"/>
<path d="M3798 2261 c-48 -68 -86 -191 -59 -191 5 0 14 15 21 33 33 88 63 158
71 163 11 6 12 34 2 34 -5 0 -20 -18 -35 -39z"/>
<path d="M4126 2131 c-14 -22 -35 -46 -47 -55 -27 -19 -88 -163 -96 -228 -8
-70 4 -140 25 -136 14 3 18 20 24 90 3 48 16 115 28 150 28 80 67 165 80 173
16 10 32 45 20 45 -5 0 -21 -18 -34 -39z"/>
<path d="M3639 1928 c0 -2 -2 -14 -4 -28 -1 -14 -6 -42 -10 -62 -5 -26 -4 -38
4 -38 6 0 11 8 11 19 0 10 6 24 13 30 14 11 11 67 -4 77 -5 3 -9 4 -10 2z"/>
<path d="M5240 3780 c-14 -20 -30 -30 -46 -30 -33 0 -81 -25 -94 -50 -14 -26
17 -72 60 -91 16 -8 31 -22 34 -32 8 -30 23 -11 30 38 4 24 11 47 15 50 5 2
11 23 15 46 4 23 13 51 21 62 19 27 19 37 1 37 -8 0 -24 -13 -36 -30z m-35
-92 c-10 -44 -13 -48 -36 -48 -24 0 -40 38 -27 63 5 10 20 17 39 17 29 0 30
-1 24 -32z"/>
<path d="M5492 3768 c-6 -7 -13 -31 -17 -53 -8 -48 -32 -132 -47 -162 -11 -23
-5 -53 11 -53 16 0 37 49 51 120 7 36 16 72 20 80 16 34 20 80 6 80 -7 0 -18
-6 -24 -12z"/>
<path d="M5295 3702 c-28 -26 -30 -31 -23 -76 9 -62 41 -98 83 -94 39 4 39 21
0 28 -48 8 -43 35 10 50 25 7 46 18 46 24 5 47 -29 96 -65 96 -12 0 -35 -13
-51 -28z m79 -25 c9 -15 7 -21 -9 -33 -11 -8 -26 -13 -35 -12 -19 4 -25 35 -9
54 15 19 38 15 53 -9z"/>
<path d="M5587 3714 c-9 -10 2 -24 19 -24 8 0 14 7 14 15 0 15 -21 21 -33 9z"/>
<path d="M5634 3645 c-8 -19 11 -118 28 -152 6 -13 16 -23 22 -22 12 0 70 73
101 127 11 17 23 32 27 32 4 0 8 7 8 15 0 33 -39 15 -66 -30 -29 -50 -61 -75
-69 -53 -3 7 -8 31 -13 52 -8 42 -28 58 -38 31z"/>
<path d="M5556 3632 c-14 -23 -37 -106 -32 -118 8 -21 36 -5 36 22 0 13 9 39
20 59 11 20 20 38 20 40 0 9 -39 5 -44 -3z"/>
<path d="M5846 3565 c-51 -55 -40 -141 20 -170 35 -16 64 -15 64 4 0 5 -15 11
-32 13 -25 2 -33 8 -33 23 0 14 11 24 39 33 42 13 66 29 66 43 0 15 -68 79
-84 79 -9 0 -28 -11 -40 -25z m74 -30 c18 -21 -4 -45 -41 -45 -29 0 -35 12
-23 44 8 20 48 21 64 1z"/>
<path d="M5996 3552 c-3 -9 -8 -45 -10 -78 -3 -33 -8 -73 -12 -88 -6 -25 -4
-27 17 -24 20 2 25 10 30 45 6 49 21 69 66 88 47 20 43 39 -6 32 -35 -4 -40
-2 -45 19 -7 28 -32 32 -40 6z"/>
<path d="M6156 3514 c-3 -9 -6 -46 -6 -83 0 -95 -39 -166 -73 -132 -16 16 -27
14 -27 -7 0 -22 19 -42 40 -42 22 0 73 56 95 104 10 22 38 62 63 88 33 36 42
52 34 60 -8 8 -19 2 -42 -21 -17 -17 -36 -31 -41 -31 -5 0 -9 18 -9 40 0 41
-21 57 -34 24z"/>
<path d="M5083 3403 c-13 -8 -23 -19 -23 -24 0 -5 21 -29 46 -54 25 -25 44
-51 42 -58 -7 -18 -63 -21 -78 -3 -7 9 -16 16 -21 16 -15 0 -10 -26 9 -43 27
-25 79 -21 113 7 l29 25 -45 44 c-65 66 -54 106 15 57 41 -29 53 -5 14 27 -33
26 -69 29 -101 6z"/>
<path d="M5248 3355 c-28 -28 -42 -84 -28 -120 12 -31 48 -55 83 -55 37 0 31
23 -9 30 -47 8 -41 33 13 50 60 19 69 51 27 93 -33 34 -54 34 -86 2z m70 -42
c-2 -22 -9 -29 -30 -31 -24 -3 -28 0 -28 21 0 30 7 37 37 37 21 0 24 -4 21
-27z"/>
<path d="M5403 3349 c-6 -8 -14 -43 -16 -79 -3 -36 -7 -78 -9 -95 -2 -20 1
-30 11 -30 18 0 28 20 36 68 5 32 14 43 51 65 55 33 59 56 9 46 -29 -5 -38 -2
-53 16 -15 18 -20 20 -29 9z"/>
<path d="M5691 3296 c-12 -12 -21 -26 -21 -32 -1 -13 -47 -64 -60 -64 -5 0
-10 7 -10 16 0 57 -37 114 -54 85 -9 -14 24 -155 40 -171 14 -13 17 -12 35 10
11 14 26 32 32 40 14 16 69 97 80 116 13 23 -21 22 -42 0z"/>
<path d="M5793 3303 c-21 -7 -15 -33 7 -33 11 0 20 6 20 14 0 18 -11 25 -27
19z"/>
<path d="M5894 3227 c-40 -23 -82 -64 -89 -86 -10 -32 10 -72 48 -98 37 -25
67 -29 85 -11 19 19 14 29 -13 22 -42 -10 -75 19 -75 66 0 44 20 64 83 81 22
6 37 15 34 22 -5 17 -48 19 -73 4z"/>
<path d="M5756 3208 c-19 -29 -42 -115 -33 -124 13 -14 37 6 37 32 0 15 7 35
15 44 19 21 24 61 8 67 -6 2 -19 -6 -27 -19z"/>
<path d="M6031 3154 c-36 -30 -46 -85 -25 -130 16 -34 63 -60 89 -50 21 8 19
26 -4 26 -59 0 -68 33 -13 51 67 21 78 45 42 91 -28 37 -56 40 -89 12z m64
-44 c0 -20 -6 -26 -27 -28 -24 -3 -28 0 -28 21 0 30 9 39 35 35 14 -2 20 -10
20 -28z"/>
<path d="M920 3395 c-41 -6 -104 -20 -140 -30 -36 -9 -75 -20 -88 -22 -22 -5
-40 -28 -30 -39 3 -2 33 5 67 16 138 44 375 68 486 50 33 -6 77 -13 98 -16 62
-11 42 11 -31 35 -78 24 -232 27 -362 6z"/>
<path d="M7310 3010 c-52 -4 -238 -8 -412 -9 -306 -1 -382 -9 -270 -28 99 -17
1212 -1 1212 17 0 18 -386 32 -530 20z"/>
<path d="M7222 2702 c-11 -7 -10 -11 5 -17 10 -5 214 -10 453 -13 392 -4 437
-3 449 12 12 15 -13 16 -300 16 -173 0 -377 3 -454 6 -80 3 -146 1 -153 -4z"/>
<path d="M6600 2402 c0 -22 384 -47 715 -46 336 1 715 14 715 24 0 4 -235 11
-522 14 -288 4 -610 9 -715 12 -122 3 -193 2 -193 -4z"/>
<path d="M7038 2069 c-11 -7 3 -13 57 -23 17 -3 161 -8 320 -11 331 -5 467
-11 578 -27 83 -11 108 -6 61 13 -72 29 -115 33 -484 43 -397 11 -520 12 -532
5z"/>
<path d="M6952 1784 c-22 -16 -15 -19 98 -33 158 -20 445 -25 545 -8 50 8 94
13 98 10 12 -7 57 6 57 16 0 6 -125 9 -292 9 -161 -1 -324 2 -363 6 -38 4 -82
9 -98 10 -15 2 -35 -3 -45 -10z"/>
<path d="M6475 1763 c-69 -6 -143 -52 -169 -104 -25 -49 -30 -120 -12 -144 13
-17 17 -18 25 -6 6 9 6 22 0 32 -20 39 32 129 93 160 34 17 55 20 124 17 76
-3 85 -6 113 -32 39 -37 39 -52 0 -99 -37 -44 -29 -63 30 -72 107 -17 181 -42
181 -60 0 -8 -11 -27 -25 -43 -35 -42 -32 -65 19 -132 24 -32 49 -67 55 -78
30 -57 -5 -131 -80 -170 -34 -17 -76 -27 -150 -34 -97 -10 -108 -9 -164 12
-86 31 -95 33 -95 23 0 -5 19 -16 43 -23 23 -8 47 -16 52 -20 35 -21 101 -33
180 -32 81 1 97 4 154 33 80 41 112 86 113 157 0 56 -7 72 -63 145 -44 58 -47
76 -20 101 25 23 34 61 21 87 -14 26 -85 56 -151 65 -49 7 -51 8 -44 33 15 51
10 109 -10 131 -38 42 -123 63 -220 53z"/>
<path d="M5790 1453 c0 -27 35 -34 203 -40 131 -5 176 -3 181 6 5 7 6 14 4 16
-2 2 -48 6 -103 9 -55 3 -142 8 -192 12 -61 5 -93 3 -93 -3z"/>
<path d="M5877 1263 c-48 -3 -67 -8 -64 -16 3 -9 46 -12 153 -12 149 0 191 6
179 25 -6 10 -113 11 -268 3z"/>
</g>
</svg>
